<svg width="14" height="17" viewBox="0 0 14 17" fill="none" xmlns="http://www.w3.org/2000/svg">
<path d="M12 2.5C12.5625 2.52083 13.0312 2.71875 13.4062 3.09375C13.7812 3.46875 13.9792 3.9375 14 4.5V14.5C13.9792 15.0625 13.7812 15.5312 13.4062 15.9062C13.0312 16.2812 12.5625 16.4792 12 16.5H2C1.4375 16.4792 0.96875 16.2812 0.59375 15.9062C0.21875 15.5312 0.0208333 15.0625 0 14.5V4.5C0.0208333 3.9375 0.21875 3.46875 0.59375 3.09375C0.96875 2.71875 1.4375 2.52083 2 2.5H3.25V1.25C3.29167 0.791667 3.54167 0.541667 4 0.5C4.45833 0.541667 4.70833 0.791667 4.75 1.25V2.5H9.25V1.25C9.25 1.04167 9.33333 0.864583 9.5 0.71875C9.64583 0.572917 9.82292 0.5 10.0312 0.5C10.4688 0.541667 10.7083 0.791667 10.75 1.25V2.5H12ZM12 15C12.3125 14.9792 12.4792 14.8125 12.5 14.5V6.5H1.5V14.5C1.52083 14.8125 1.6875 14.9792 2 15H12Z" fill="#C1C1C1"/>
</svg>
