<svg width="19" height="12" viewBox="0 0 19 12" fill="none" xmlns="http://www.w3.org/2000/svg">
<path d="M16.5 0C17.0625 0.0208333 17.5312 0.21875 17.9062 0.59375C18.2812 0.96875 18.4792 1.4375 18.5 2V10C18.4792 10.5625 18.2812 11.0312 17.9062 11.4062C17.5312 11.7812 17.0625 11.9792 16.5 12H2.5C1.9375 11.9792 1.46875 11.7812 1.09375 11.4062C0.71875 11.0312 0.520833 10.5625 0.5 10V2C0.520833 1.4375 0.71875 0.96875 1.09375 0.59375C1.46875 0.21875 1.9375 0.0208333 2.5 0H16.5ZM17 8.5V3.5C16.4375 3.47917 15.9688 3.28125 15.5938 2.90625C15.2188 2.53125 15.0208 2.0625 15 1.5H4C3.97917 2.0625 3.78125 2.53125 3.40625 2.90625C3.03125 3.28125 2.5625 3.47917 2 3.5V8.5C2.5625 8.52083 3.03125 8.71875 3.40625 9.09375C3.78125 9.46875 3.97917 9.9375 4 10.5H15C15.0208 9.9375 15.2188 9.46875 15.5938 9.09375C15.9688 8.71875 16.4375 8.52083 17 8.5ZM12 6C11.9792 5.14583 11.7396 4.4375 11.2812 3.875C10.8021 3.3125 10.2083 3.02083 9.5 3C8.79167 3.02083 8.19792 3.3125 7.71875 3.875C7.26042 4.4375 7.02083 5.14583 7 6C7.02083 6.85417 7.26042 7.5625 7.71875 8.125C8.19792 8.6875 8.79167 8.97917 9.5 9C10.2083 8.97917 10.8021 8.6875 11.2812 8.125C11.7396 7.5625 11.9792 6.85417 12 6Z" fill="#0066A1"/>
</svg>
