<svg width="15" height="10" viewBox="0 0 15 10" fill="none" xmlns="http://www.w3.org/2000/svg">
<path d="M14.5 1C14.5 1.27083 14.4062 1.51042 14.2188 1.71875L6.21875 9.71875C6.01042 9.90625 5.77083 10 5.5 10C5.22917 10 4.98958 9.90625 4.78125 9.71875L0.78125 5.71875C0.59375 5.51042 0.5 5.27083 0.5 5C0.5 4.70833 0.604167 4.46875 0.8125 4.28125C1 4.09375 1.22917 4 1.5 4C1.77083 4 2.01042 4.09375 2.21875 4.28125L5.5 7.59375L12.7812 0.28125C12.9896 0.09375 13.2292 0 13.5 0C13.7708 0 14 0.09375 14.1875 0.28125C14.3958 0.46875 14.5 0.708333 14.5 1Z" fill="white"/>
</svg>
