<svg width="20" height="21" viewBox="0 0 20 21" fill="none" xmlns="http://www.w3.org/2000/svg">
<path d="M17.5 12.375C18.2031 12.401 18.7891 12.6484 19.2578 13.1172C19.7266 13.5859 19.974 14.1719 20 14.875V18C19.974 18.7031 19.7266 19.2891 19.2578 19.7578C18.7891 20.2266 18.2031 20.474 17.5 20.5H2.5C1.79688 20.474 1.21094 20.2266 0.742188 19.7578C0.273438 19.2891 0.0260417 18.7031 0 18V14.875C0.0260417 14.1719 0.273438 13.5859 0.742188 13.1172C1.21094 12.6484 1.79688 12.401 2.5 12.375H4.60938L6.48438 14.25H2.5C2.10938 14.276 1.90104 14.4844 1.875 14.875V18C1.90104 18.3906 2.10938 18.599 2.5 18.625H17.5C17.8906 18.599 18.099 18.3906 18.125 18V14.875C18.099 14.4844 17.8906 14.276 17.5 14.25H13.5547L15.4297 12.375H17.5ZM16.875 16.4375C16.8229 17.0104 16.5104 17.3229 15.9375 17.375C15.3646 17.3229 15.0521 17.0104 15 16.4375C15.0521 15.8646 15.3646 15.5521 15.9375 15.5C16.5104 15.5521 16.8229 15.8646 16.875 16.4375ZM9.33594 14.875L3.98438 9.60156C3.61979 9.15885 3.61979 8.71615 3.98438 8.27344C4.42708 7.90885 4.86979 7.90885 5.3125 8.27344L9.0625 11.9844V1.4375C9.11458 0.864583 9.42708 0.552083 10 0.5C10.5729 0.552083 10.8854 0.864583 10.9375 1.4375V11.9844L14.6484 8.27344C15.0911 7.90885 15.5339 7.90885 15.9766 8.27344C16.3411 8.71615 16.3411 9.15885 15.9766 9.60156L10.6641 14.9141C10.4818 15.0964 10.2604 15.1875 10 15.1875C9.73958 15.1875 9.51823 15.0833 9.33594 14.875Z" fill="black"/>
</svg>
