<svg width="22" height="19" viewBox="0 0 22 19" fill="none" xmlns="http://www.w3.org/2000/svg">
<path d="M20.8438 1.80469C21.1302 2.48177 21.0391 3.10677 20.5703 3.67969L14.125 11.6094V16.7656C14.125 17.1823 13.9818 17.5339 13.6953 17.8203C13.4089 18.1068 13.0443 18.25 12.6016 18.25C12.2891 18.25 12.0026 18.1589 11.7422 17.9766L8.53906 15.4766C8.1224 15.1641 7.90104 14.7604 7.875 14.2656V11.6094L1.42969 3.67969C0.960938 3.10677 0.869792 2.48177 1.15625 1.80469C1.49479 1.1276 2.05469 0.776042 2.83594 0.75H19.1641C19.9453 0.776042 20.5052 1.1276 20.8438 1.80469ZM12.5234 10.5547L19.0078 2.625H2.99219L9.47656 10.5938C9.65885 10.8281 9.75 11.0885 9.75 11.375V14.0703L12.25 15.9844V11.3359C12.25 11.0495 12.3411 10.7891 12.5234 10.5547Z" fill="black"/>
</svg>
