<svg width="12" height="15" viewBox="0 0 12 15" fill="none" xmlns="http://www.w3.org/2000/svg">
<path d="M2.9375 7.75C2.9375 7.49479 3.01953 7.28516 3.18359 7.12109C3.34766 6.95703 3.55729 6.875 3.8125 6.875H8.1875C8.44271 6.875 8.65234 6.95703 8.81641 7.12109C8.98047 7.28516 9.0625 7.49479 9.0625 7.75V9.5C9.0625 9.75521 8.98047 9.96484 8.81641 10.1289C8.65234 10.293 8.44271 10.375 8.1875 10.375H3.8125C3.55729 10.375 3.34766 10.293 3.18359 10.1289C3.01953 9.96484 2.9375 9.75521 2.9375 9.5V7.75ZM10.7305 3.29297C11.0768 3.63932 11.25 4.05859 11.25 4.55078V13C11.2318 13.4922 11.0586 13.9023 10.7305 14.2305C10.4023 14.5586 9.99219 14.7318 9.5 14.75H2.5C2.00781 14.7318 1.59766 14.5586 1.26953 14.2305C0.941406 13.9023 0.768229 13.4922 0.75 13V2.5C0.768229 2.00781 0.941406 1.59766 1.26953 1.26953C1.59766 0.941406 2.00781 0.768229 2.5 0.75H7.44922C7.94141 0.75 8.36068 0.923177 8.70703 1.26953L10.7305 3.29297ZM9.9375 13H9.91016V5.125H7.75C7.49479 5.125 7.28516 5.04297 7.12109 4.87891C6.95703 4.71484 6.875 4.50521 6.875 4.25V2.0625H2.5C2.22656 2.09896 2.08073 2.24479 2.0625 2.5V13C2.08073 13.2734 2.22656 13.4193 2.5 13.4375H9.5C9.77344 13.4193 9.91927 13.2734 9.9375 13ZM3.375 4.25C3.10156 4.23177 2.95573 4.08594 2.9375 3.8125C2.95573 3.53906 3.10156 3.39323 3.375 3.375H5.5625C5.83594 3.39323 5.98177 3.53906 6 3.8125C5.98177 4.08594 5.83594 4.23177 5.5625 4.25H3.375ZM3.375 6C3.10156 5.98177 2.95573 5.83594 2.9375 5.5625C2.95573 5.28906 3.10156 5.14323 3.375 5.125H5.5625C5.83594 5.14323 5.98177 5.28906 6 5.5625C5.98177 5.83594 5.83594 5.98177 5.5625 6H3.375ZM8.625 11.25C8.89844 11.2682 9.04427 11.4141 9.0625 11.6875C9.04427 11.9609 8.89844 12.1068 8.625 12.125H6.4375C6.16406 12.1068 6.01823 11.9609 6 11.6875C6.01823 11.4141 6.16406 11.2682 6.4375 11.25H8.625Z" fill="#C1C1C1"/>
</svg>
