<svg width="23" height="21" viewBox="0 0 23 21" fill="none" xmlns="http://www.w3.org/2000/svg">
<path d="M22.75 10.1484C22.724 10.4609 22.6198 10.6953 22.4375 10.8516C22.2292 11.0078 22.0208 11.099 21.8125 11.125C21.6042 11.125 21.4089 11.0469 21.2266 10.8906L20.1328 10.1094V18.9375C20.1328 19.3802 19.9896 19.7448 19.7031 20.0312C19.4167 20.3438 19.0521 20.5 18.6094 20.5H14.8984C14.4818 20.5 14.1172 20.3438 13.8047 20.0312C13.4922 19.7448 13.3099 19.3802 13.2578 18.9375V14.25H9.54688V18.9375C9.54688 19.3802 9.40365 19.7448 9.11719 20.0312C8.83073 20.3438 8.46615 20.5 8.02344 20.5H4.3125C3.86979 20.5 3.50521 20.3438 3.21875 20.0312C2.90625 19.7448 2.75 19.3672 2.75 18.8984V10.0703L1.8125 10.8516C1.60417 11.0078 1.39583 11.0859 1.1875 11.0859C0.979167 11.0859 0.770833 11.0078 0.5625 10.8516C0.380208 10.7214 0.276042 10.487 0.25 10.1484C0.25 9.88802 0.354167 9.66667 0.5625 9.48438L10.9141 0.734375C11.0703 0.578125 11.2786 0.486979 11.5391 0.460938C11.7474 0.460938 11.9427 0.539062 12.125 0.695312L22.4375 9.44531C22.6458 9.6276 22.75 9.86198 22.75 10.1484ZM18.3359 18.5859V8.50781L11.5 2.64844L4.58594 8.46875C4.61198 8.49479 4.625 8.52083 4.625 8.54688C4.625 8.54688 4.625 8.5599 4.625 8.58594V18.5859H7.78906V13.8984C7.78906 13.4557 7.93229 13.0911 8.21875 12.8047C8.50521 12.5182 8.86979 12.362 9.3125 12.3359H13.6875C14.1042 12.362 14.4557 12.5182 14.7422 12.8047C15.0547 13.0911 15.2109 13.4557 15.2109 13.8984V18.5859H18.3359Z" fill="#C1C1C1"/>
</svg>
