<svg width="4" height="19" viewBox="0 0 4 19" fill="none" xmlns="http://www.w3.org/2000/svg">
<path d="M2 3.875C1.47917 3.84896 1.03646 3.66667 0.671875 3.32812C0.333333 2.96354 0.151042 2.52083 0.125 2C0.151042 1.47917 0.333333 1.03646 0.671875 0.671875C1.03646 0.333333 1.47917 0.151042 2 0.125C2.52083 0.151042 2.96354 0.333333 3.32812 0.671875C3.66667 1.03646 3.84896 1.47917 3.875 2C3.84896 2.52083 3.66667 2.96354 3.32812 3.32812C2.96354 3.66667 2.52083 3.84896 2 3.875ZM2 15.125C2.52083 15.151 2.96354 15.3333 3.32812 15.6719C3.66667 16.0365 3.84896 16.4792 3.875 17C3.84896 17.5208 3.66667 17.9635 3.32812 18.3281C2.96354 18.6667 2.52083 18.849 2 18.875C1.47917 18.849 1.03646 18.6667 0.671875 18.3281C0.333333 17.9635 0.151042 17.5208 0.125 17C0.151042 16.4792 0.333333 16.0365 0.671875 15.6719C1.03646 15.3333 1.47917 15.151 2 15.125ZM2 7.625C2.52083 7.65104 2.96354 7.83333 3.32812 8.17188C3.66667 8.53646 3.84896 8.97917 3.875 9.5C3.84896 10.0208 3.66667 10.4635 3.32812 10.8281C2.96354 11.1667 2.52083 11.349 2 11.375C1.47917 11.349 1.03646 11.1667 0.671875 10.8281C0.333333 10.4635 0.151042 10.0208 0.125 9.5C0.151042 8.97917 0.333333 8.53646 0.671875 8.17188C1.03646 7.83333 1.47917 7.65104 2 7.625Z" fill="#C1C1C1"/>
</svg>
