<svg width="13" height="13" viewBox="0 0 13 13" fill="none" xmlns="http://www.w3.org/2000/svg">
<path d="M12.4062 3.71484C12.5521 3.97005 12.625 4.26172 12.625 4.58984V11.125C12.6068 11.6172 12.4336 12.0273 12.1055 12.3555C11.7773 12.6836 11.3672 12.8568 10.875 12.875H2.125C1.63281 12.8568 1.22266 12.6836 0.894531 12.3555C0.566406 12.0273 0.393229 11.6172 0.375 11.125V4.58984C0.375 4.26172 0.447917 3.97005 0.59375 3.71484L1.85156 1.52734C2.19792 0.94401 2.69922 0.643229 3.35547 0.625H9.64453C10.3008 0.643229 10.8021 0.94401 11.1484 1.52734L12.4062 3.71484ZM10.0273 2.15625C9.9362 2.01042 9.80859 1.9375 9.64453 1.9375H7.12891V4.09766H11.0938L10.0273 2.15625ZM2.97266 2.15625L1.90625 4.09766H5.81641V1.9375H3.35547C3.19141 1.9375 3.0638 2.01042 2.97266 2.15625ZM10.875 11.5625C11.1484 11.5443 11.2943 11.3984 11.3125 11.125V5.41016H1.6875V11.125C1.70573 11.3984 1.85156 11.5443 2.125 11.5625H10.875Z" fill="#C1C1C1"/>
</svg>
