<svg width="15" height="15" viewBox="0 0 15 15" fill="none" xmlns="http://www.w3.org/2000/svg">
<path d="M15 1.25V6.25C14.9583 6.70833 14.7083 6.95833 14.25 7H9.25C8.79167 6.95833 8.54167 6.70833 8.5 6.25C8.54167 5.79167 8.79167 5.54167 9.25 5.5H12.4062C11.9062 4.58333 11.2292 3.85417 10.375 3.3125C9.52083 2.79167 8.5625 2.52083 7.5 2.5C5.9375 2.54167 4.63542 3.07292 3.59375 4.09375C2.57292 5.13542 2.04167 6.4375 2 8C2.04167 9.5625 2.58333 10.8646 3.625 11.9062C4.64583 12.9271 5.9375 13.4583 7.5 13.5C8.8125 13.4792 9.98958 13.0521 11.0312 12.2188C11.4062 11.9688 11.75 12 12.0625 12.3125C12.3333 12.6875 12.3021 13.0417 11.9688 13.375C10.6771 14.4375 9.1875 14.9792 7.5 15C6.1875 14.9792 5.01042 14.6562 3.96875 14.0312C2.90625 13.4062 2.07292 12.5729 1.46875 11.5312C0.84375 10.4688 0.520833 9.29167 0.5 8C0.520833 6.70833 0.84375 5.53125 1.46875 4.46875C2.07292 3.42708 2.90625 2.59375 3.96875 1.96875C5.01042 1.34375 6.1875 1.02083 7.5 1C8.77083 1.02083 9.92708 1.33333 10.9688 1.9375C12.0104 2.54167 12.8542 3.36458 13.5 4.40625V1.25C13.5417 0.791667 13.7917 0.541667 14.25 0.5C14.7083 0.541667 14.9583 0.791667 15 1.25Z" fill="#00A811"/>
</svg>
