<svg width="15" height="15" viewBox="0 0 15 15" fill="none" xmlns="http://www.w3.org/2000/svg">
<path d="M8.15625 7.85938L9.63281 8.98047C9.92448 9.25391 9.96094 9.55469 9.74219 9.88281C9.61458 10.0651 9.44141 10.1562 9.22266 10.1562C9.09505 10.1562 8.97656 10.1107 8.86719 10.0195L7.11719 8.70703C6.9349 8.57943 6.84375 8.40625 6.84375 8.1875V4.90625C6.88021 4.50521 7.09896 4.28646 7.5 4.25C7.90104 4.28646 8.11979 4.50521 8.15625 4.90625V7.85938ZM7.47266 0.75C8.78516 0.768229 9.96094 1.08724 11 1.70703C12.0573 2.32682 12.8958 3.16536 13.5156 4.22266C14.1172 5.26172 14.4271 6.4375 14.4453 7.75C14.4271 9.0625 14.1081 10.2383 13.4883 11.2773C12.8867 12.3346 12.0573 13.1732 11 13.793C9.96094 14.4128 8.78516 14.7318 7.47266 14.75C6.17839 14.7318 5.0026 14.4128 3.94531 13.793C2.88802 13.1732 2.04948 12.3346 1.42969 11.2773C0.809896 10.2383 0.490885 9.0625 0.472656 7.75C0.490885 6.4375 0.809896 5.26172 1.42969 4.22266C2.04948 3.16536 2.88802 2.32682 3.94531 1.70703C5.0026 1.08724 6.17839 0.768229 7.47266 0.75ZM7.5 13.4375C9.10417 13.401 10.444 12.8451 11.5195 11.7695C12.5951 10.694 13.151 9.35417 13.1875 7.75C13.151 6.14583 12.5951 4.80599 11.5195 3.73047C10.444 2.65495 9.10417 2.09896 7.5 2.0625C5.89583 2.09896 4.55599 2.65495 3.48047 3.73047C2.40495 4.80599 1.84896 6.14583 1.8125 7.75C1.84896 9.35417 2.40495 10.694 3.48047 11.7695C4.55599 12.8451 5.89583 13.401 7.5 13.4375Z" fill="#C1C1C1"/>
</svg>
