<svg width="13" height="15" viewBox="0 0 13 15" fill="none" xmlns="http://www.w3.org/2000/svg">
<path d="M7.8125 9.0625C9.17969 9.09896 10.3099 9.57292 11.2031 10.4844C12.1146 11.3776 12.5885 12.5078 12.625 13.875C12.625 14.1302 12.543 14.3398 12.3789 14.5039C12.2148 14.668 12.0052 14.75 11.75 14.75H1.25C0.994792 14.75 0.785156 14.668 0.621094 14.5039C0.457031 14.3398 0.375 14.1302 0.375 13.875C0.411458 12.5078 0.885417 11.3776 1.79688 10.4844C2.6901 9.57292 3.82031 9.09896 5.1875 9.0625H7.8125ZM1.71484 13.4375H11.2852C11.1576 12.5625 10.7747 11.8333 10.1367 11.25C9.4987 10.6849 8.72396 10.3932 7.8125 10.375H5.1875C4.27604 10.3932 3.5013 10.6849 2.86328 11.25C2.22526 11.8333 1.84245 12.5625 1.71484 13.4375ZM6.5 7.75C5.51562 7.73177 4.6862 7.39453 4.01172 6.73828C3.35547 6.0638 3.01823 5.23438 3 4.25C3.01823 3.26562 3.35547 2.4362 4.01172 1.76172C4.6862 1.10547 5.51562 0.768229 6.5 0.75C7.48438 0.768229 8.3138 1.10547 8.98828 1.76172C9.64453 2.4362 9.98177 3.26562 10 4.25C9.98177 5.23438 9.64453 6.0638 8.98828 6.73828C8.3138 7.39453 7.48438 7.73177 6.5 7.75ZM6.5 2.0625C5.88021 2.08073 5.36068 2.29036 4.94141 2.69141C4.54036 3.11068 4.33073 3.63021 4.3125 4.25C4.33073 4.86979 4.54036 5.38932 4.94141 5.80859C5.36068 6.20964 5.88021 6.41927 6.5 6.4375C7.11979 6.41927 7.63932 6.20964 8.05859 5.80859C8.45964 5.38932 8.66927 4.86979 8.6875 4.25C8.66927 3.63021 8.45964 3.11068 8.05859 2.69141C7.63932 2.29036 7.11979 2.08073 6.5 2.0625Z" fill="#C1C1C1"/>
</svg>
