<svg width="16" height="15" viewBox="0 0 16 15" fill="none" xmlns="http://www.w3.org/2000/svg">
<path d="M5.8125 6.875C5.44792 6.85677 5.13802 6.72917 4.88281 6.49219C4.64583 6.23698 4.51823 5.92708 4.5 5.5625V2.0625C4.51823 1.69792 4.64583 1.38802 4.88281 1.13281C5.13802 0.895833 5.44792 0.768229 5.8125 0.75H10.1875C10.5521 0.768229 10.862 0.895833 11.1172 1.13281C11.3542 1.38802 11.4818 1.69792 11.5 2.0625V5.5625C11.4818 5.92708 11.3542 6.23698 11.1172 6.49219C10.862 6.72917 10.5521 6.85677 10.1875 6.875H5.8125ZM5.8125 2.0625V5.5625H10.1875V2.0625H8.875V3.8125L8 3.375L7.125 3.8125V2.0625H5.8125ZM5.8125 8.625C6.17708 8.64323 6.48698 8.77083 6.74219 9.00781C6.97917 9.26302 7.10677 9.57292 7.125 9.9375V13.4375C7.10677 13.8021 6.97917 14.112 6.74219 14.3672C6.48698 14.6042 6.17708 14.7318 5.8125 14.75H1.4375C1.07292 14.7318 0.763021 14.6042 0.507812 14.3672C0.270833 14.112 0.143229 13.8021 0.125 13.4375V9.9375C0.143229 9.57292 0.270833 9.26302 0.507812 9.00781C0.763021 8.77083 1.07292 8.64323 1.4375 8.625H5.8125ZM5.8125 13.4375V9.9375H4.5V11.6875L3.625 11.25L2.75 11.6875V9.9375H1.4375V13.4375H5.8125ZM14.5625 8.625C14.9271 8.64323 15.237 8.77083 15.4922 9.00781C15.7292 9.26302 15.8568 9.57292 15.875 9.9375V13.4375C15.8568 13.8021 15.7292 14.112 15.4922 14.3672C15.237 14.6042 14.9271 14.7318 14.5625 14.75H10.1875C9.82292 14.7318 9.51302 14.6042 9.25781 14.3672C9.02083 14.112 8.89323 13.8021 8.875 13.4375V9.9375C8.89323 9.57292 9.02083 9.26302 9.25781 9.00781C9.51302 8.77083 9.82292 8.64323 10.1875 8.625H14.5625ZM14.5625 13.4375V9.9375H13.25V11.6875L12.375 11.25L11.5 11.6875V9.9375H10.1875V13.4375H14.5625Z" fill="#C1C1C1"/>
</svg>
