<svg width="269" height="256" viewBox="0 0 269 256" fill="none" xmlns="http://www.w3.org/2000/svg">
<g clip-path="url(#clip0_1886_33408)">
<path d="M39.394 123.44C-13.1313 153.764 -13.1313 202.929 39.394 233.254C91.9193 263.578 177.081 263.578 229.606 233.254C282.131 202.929 282.131 153.764 229.606 123.44C177.081 93.1152 91.9193 93.1152 39.394 123.44Z" fill="#F5F5F5"/>
<path d="M151.575 237.654C149.637 237.654 147.862 237.293 146.441 236.606L46.4664 188.338C45.6108 187.93 44.9123 187.395 44.4525 186.789C43.6958 185.794 43.6259 184.438 44.272 183.373C44.6795 182.709 45.3547 182.092 46.2278 181.592L118.433 139.906C119.812 139.103 121.552 138.672 123.462 138.672C125.656 138.672 127.792 139.277 129.323 140.325L212.308 197.353C213.815 198.378 214.642 199.798 214.566 201.236C214.519 202.621 213.611 203.919 212.017 204.844L157.722 236.193C156.109 237.124 153.868 237.654 151.569 237.654H151.575Z" fill="#E0E0E0"/>
<path d="M128.879 41.587L126.487 42.9723L122.558 26.9544C121.435 22.4261 117.075 16.6115 113.018 14.2834L110.83 13.0145C109.718 12.3684 107.762 12.3684 106.65 13.0145L99.9741 16.8443C99.3397 17.2168 98.5364 16.9899 98.1639 16.3554C97.803 15.7326 98.0184 14.9178 98.6529 14.5569L105.329 10.7154C107.244 9.61537 110.242 9.61537 112.145 10.7154L114.345 11.9843C119.002 14.6733 123.839 21.0991 125.131 26.3142L128.879 41.5812V41.587Z" fill="#00A811"/>
<path d="M50.319 49.4854L46.0176 42.0352L99.6139 11.0763C100.173 10.634 101.017 10.6456 101.948 11.1811C103.63 12.1531 104.992 14.5104 104.992 16.4486C104.992 17.5254 104.579 18.2646 103.921 18.5265L50.3248 49.4854H50.319Z" fill="#999999"/>
<path opacity="0.1" d="M47.7864 45.1084L103.693 12.8341C103.28 12.2637 102.797 11.7631 102.267 11.3906L46.8027 43.403L47.7806 45.1026L47.7864 45.1084Z" fill="white"/>
<path d="M46.0116 42.0353C47.1408 41.3834 49.0209 42.5184 50.2083 44.5788C51.3957 46.6334 51.4422 48.8336 50.313 49.4854C49.1838 50.1373 47.3038 49.0023 46.1164 46.9419C44.929 44.8873 44.8824 42.6872 46.0116 42.0353Z" fill="#999999"/>
<path opacity="0.3" d="M46.0116 42.0353C47.1408 41.3834 49.0209 42.5184 50.2083 44.5788C51.3957 46.6334 51.4422 48.8336 50.313 49.4854C49.1838 50.1373 47.3038 49.0023 46.1164 46.9419C44.929 44.8873 44.8824 42.6872 46.0116 42.0353Z" fill="black"/>
<path d="M60.2662 81.6898L57.874 83.0634L53.9451 67.0456C52.8217 62.5173 48.4504 56.7143 44.4109 54.3861L42.2107 53.1056C41.0698 52.4479 40.4121 51.4526 40.4121 50.3758C40.4121 49.2991 41.0698 48.3038 42.2107 47.6461L46.9778 44.9279C47.327 44.7242 47.9091 45.0734 48.2699 45.7137C48.6425 46.3481 48.6483 47.0233 48.2991 47.227H48.2874L43.532 49.9451C43.1536 50.1547 43.0663 50.3467 43.0547 50.3817C43.0663 50.4224 43.1478 50.6028 43.532 50.824L45.7322 52.0929C50.3887 54.7819 55.214 61.2077 56.5061 66.4111L60.2662 81.6898Z" fill="#00A811"/>
<path d="M132.285 206.8C132.32 206.817 132.349 206.835 132.39 206.847C128.757 211.561 122.838 212.911 121.505 212.289C120.434 211.794 119.8 210.519 120.614 209.757C120.987 209.408 121.639 209.047 122.244 208.54C124.025 207.062 124.613 204.489 124.776 202.481L132.279 206.8H132.285Z" fill="#E0E0E0"/>
<g opacity="0.2">
<path d="M132.285 206.8C132.32 206.817 132.349 206.835 132.39 206.847C128.757 211.561 122.838 212.911 121.505 212.289C120.434 211.794 119.8 210.519 120.614 209.757C120.987 209.408 121.639 209.047 122.244 208.54C124.025 207.062 124.613 204.489 124.776 202.481L132.279 206.8H132.285Z" fill="black"/>
</g>
<path d="M128.548 214.081C128.571 210.286 125.934 205.653 122.663 203.733C120.946 202.726 119.398 202.673 118.303 203.395L114.275 205.659L122.721 220.222L126.714 217.958V217.946C127.826 217.347 128.536 216.014 128.548 214.075V214.081Z" fill="#37474F"/>
<path d="M118.478 206.113C121.755 208.034 124.392 212.667 124.363 216.462C124.339 220.257 121.662 221.782 118.391 219.861C115.114 217.94 112.477 213.307 112.506 209.512C112.529 205.717 115.207 204.192 118.478 206.113Z" fill="#455A64"/>
<path d="M116.423 211.805C116.435 210.321 117.337 209.646 118.449 210.292C119.554 210.944 120.451 212.673 120.439 214.157C120.428 215.641 119.525 216.316 118.414 215.67C117.302 215.018 116.411 213.29 116.423 211.805Z" fill="#00A811"/>
<path d="M121.976 200.869C121.976 200.869 122.366 207.877 119.159 210.554C118.553 211.06 117.902 211.421 117.523 211.771C116.708 212.533 117.349 213.808 118.42 214.302C119.974 215.024 127.948 212.975 131.056 206.096L121.976 200.869Z" fill="#F5F5F5"/>
<path d="M118.577 212.23C118.914 212.399 119.205 212.841 119.223 213.22C119.246 213.598 118.99 213.767 118.652 213.592C118.315 213.424 118.024 212.981 118.006 212.603C117.983 212.225 118.239 212.056 118.577 212.23Z" fill="#00A811"/>
<path d="M91.5289 187.017C91.5638 187.034 91.6279 187.069 91.6279 187.069C87.9958 191.783 82.0821 193.122 80.7491 192.505C79.6781 192.01 79.0437 190.736 79.8586 189.973C80.2311 189.624 80.883 189.263 81.4884 188.757C83.2695 187.278 83.8574 184.706 84.0203 182.698L91.5231 187.017H91.5289Z" fill="#E0E0E0"/>
<g opacity="0.2">
<path d="M91.5289 187.017C91.5638 187.034 91.6279 187.069 91.6279 187.069C87.9958 191.783 82.0821 193.122 80.7491 192.505C79.6781 192.01 79.0437 190.736 79.8586 189.973C80.2311 189.624 80.883 189.263 81.4884 188.757C83.2695 187.278 83.8574 184.706 84.0203 182.698L91.5231 187.017H91.5289Z" fill="black"/>
</g>
<path d="M87.7917 194.298C87.815 190.503 85.1782 185.87 81.907 183.949C80.19 182.942 78.6417 182.89 77.5474 183.612L73.5195 185.876L81.9653 200.438L85.9582 198.174V198.163C87.0699 197.563 87.7801 196.23 87.7917 194.292V194.298Z" fill="#37474F"/>
<path d="M77.7222 186.324C80.9992 188.245 83.6359 192.878 83.6068 196.673C83.5836 200.468 80.9061 201.992 77.6349 200.072C74.3579 198.151 71.7211 193.518 71.7502 189.723C71.7735 185.928 74.451 184.403 77.7222 186.324Z" fill="#455A64"/>
<path d="M75.673 192.022C75.6846 190.538 76.5868 189.863 77.6985 190.509C78.8045 191.161 79.7008 192.889 79.6892 194.373C79.6776 195.858 78.7754 196.533 77.6636 195.887C76.5519 195.235 75.6613 193.506 75.673 192.022Z" fill="#00A811"/>
<path d="M81.2201 181.085C81.2201 181.085 81.6101 188.093 78.403 190.771C77.7976 191.277 77.1457 191.638 76.7674 191.987C75.9525 192.75 76.5927 194.024 77.6637 194.519C79.2178 195.241 87.1921 193.192 90.3003 186.312L81.2201 181.085Z" fill="#F5F5F5"/>
<path d="M77.8209 192.441C78.1585 192.61 78.4495 193.052 78.467 193.431C78.4903 193.809 78.2342 193.978 77.8966 193.803C77.559 193.634 77.268 193.192 77.2505 192.814C77.2272 192.435 77.4833 192.266 77.8209 192.441Z" fill="#00A811"/>
<path d="M190.549 173.367C186.911 178.065 181.003 179.421 179.67 178.798C178.599 178.303 177.965 177.028 178.779 176.266C179.152 175.917 179.804 175.556 180.409 175.05C182.19 173.571 182.778 170.999 182.941 168.99L189.996 173.047L190.444 173.309L190.543 173.367H190.549Z" fill="#E0E0E0"/>
<g opacity="0.2">
<path d="M190.549 173.367C186.911 178.065 181.003 179.421 179.67 178.798C178.599 178.303 177.965 177.028 178.779 176.266C179.152 175.917 179.804 175.556 180.409 175.05C182.19 173.571 182.778 170.999 182.941 168.99L189.996 173.047L190.444 173.309L190.543 173.367H190.549Z" fill="black"/>
</g>
<path d="M186.713 180.591C186.736 176.796 184.099 172.163 180.828 170.242C179.111 169.235 177.563 169.183 176.468 169.904L172.44 172.168L180.886 186.731L184.879 184.467V184.455C185.991 183.856 186.701 182.523 186.713 180.585V180.591Z" fill="#37474F"/>
<path d="M176.643 172.617C179.92 174.537 182.557 179.17 182.528 182.965C182.504 186.76 179.827 188.285 176.556 186.364C173.279 184.444 170.642 179.811 170.671 176.016C170.694 172.221 173.372 170.696 176.643 172.617Z" fill="#455A64"/>
<path d="M174.588 178.315C174.6 176.831 175.502 176.155 176.614 176.801C177.719 177.453 178.616 179.182 178.604 180.666C178.593 182.15 177.69 182.826 176.579 182.174C175.467 181.522 174.576 179.793 174.588 178.309V178.315Z" fill="#00A811"/>
<path d="M180.141 167.378C180.141 167.378 180.531 174.386 177.324 177.063C176.719 177.57 176.067 177.931 175.688 178.28C174.873 179.042 175.514 180.317 176.585 180.812C178.139 181.533 186.113 179.485 189.221 172.605L180.141 167.378Z" fill="#F5F5F5"/>
<path d="M176.736 178.734C177.074 178.903 177.365 179.345 177.382 179.723C177.405 180.102 177.149 180.27 176.812 180.096C176.474 179.927 176.183 179.485 176.166 179.106C176.142 178.728 176.398 178.559 176.736 178.734Z" fill="#00A811"/>
<path d="M155.451 150.115C155.486 150.132 155.55 150.167 155.55 150.167C151.918 154.882 146.004 156.221 144.677 155.604C143.606 155.109 142.971 153.834 143.786 153.072C144.159 152.722 144.811 152.362 145.416 151.855C147.197 150.377 147.785 147.804 147.948 145.796L155.451 150.115Z" fill="#E0E0E0"/>
<g opacity="0.2">
<path d="M155.451 150.115C155.486 150.132 155.55 150.167 155.55 150.167C151.918 154.882 146.004 156.221 144.677 155.604C143.606 155.109 142.971 153.834 143.786 153.072C144.159 152.722 144.811 152.362 145.416 151.855C147.197 150.377 147.785 147.804 147.948 145.796L155.451 150.115Z" fill="black"/>
</g>
<path d="M151.714 157.396C151.737 153.601 149.1 148.968 145.829 147.047C144.112 146.041 142.564 145.988 141.469 146.71L137.441 148.974L145.887 163.537L149.88 161.273V161.261C150.998 160.661 151.702 159.329 151.714 157.39V157.396Z" fill="#37474F"/>
<path d="M141.644 149.422C144.921 151.343 147.558 155.976 147.529 159.771C147.505 163.566 144.828 165.091 141.557 163.17C138.28 161.249 135.643 156.616 135.672 152.821C135.695 149.026 138.373 147.502 141.644 149.422Z" fill="#455A64"/>
<path d="M139.595 155.12C139.606 153.636 140.509 152.961 141.62 153.607C142.726 154.259 143.623 155.988 143.611 157.472C143.599 158.956 142.697 159.631 141.585 158.979C140.474 158.327 139.583 156.599 139.595 155.115V155.12Z" fill="#00A811"/>
<path d="M145.148 144.184C145.148 144.184 145.538 151.192 142.331 153.869C141.725 154.375 141.073 154.736 140.695 155.086C139.88 155.848 140.52 157.123 141.591 157.617C143.146 158.339 151.12 156.29 154.228 149.411L145.148 144.184Z" fill="#F5F5F5"/>
<path d="M141.743 155.539C142.08 155.708 142.371 156.151 142.389 156.529C142.412 156.907 142.156 157.076 141.818 156.901C141.481 156.733 141.19 156.29 141.167 155.912C141.143 155.534 141.399 155.365 141.737 155.539H141.743Z" fill="#00A811"/>
<path d="M152.385 215.887C149.801 215.887 147.245 215.398 145.191 214.409L73.9288 179.998C66.6531 176.489 61.7463 169.3 61.1235 161.245L53.999 69.2355L57.2178 68.9852L64.3423 160.995C64.8778 167.909 69.0861 174.073 75.3316 177.088L146.593 211.499C150.115 213.198 155.959 212.983 159.346 211.027L198.915 188.182C200.277 187.396 201.051 186.378 201.092 185.324C201.133 184.265 200.44 183.194 199.142 182.303L139.102 141.042C133.404 137.125 129.824 130.926 129.295 124.029L122.036 30.2503L125.255 30L132.513 123.779C132.973 129.698 136.041 135.018 140.93 138.376L200.97 179.637C203.182 181.157 204.398 183.275 204.317 185.446C204.229 187.617 202.85 189.637 200.527 190.976L160.959 213.821C158.596 215.183 155.464 215.881 152.373 215.881L152.385 215.887Z" fill="#00A811"/>
<path d="M205.479 150.749L131.842 100.146C130.94 99.5292 129.561 99.1509 128.158 99.1509C126.965 99.1509 125.853 99.407 125.038 99.8842L60.9587 136.879C60.4814 137.152 60.2602 137.403 60.1846 137.525C60.2719 137.636 60.5105 137.868 61.0053 138.107L149.723 180.945C150.608 181.37 151.807 181.609 153.111 181.609C154.665 181.609 156.207 181.26 157.226 180.672L205.403 152.856C205.95 152.536 206.311 152.14 206.323 151.837C206.34 151.535 206.003 151.11 205.485 150.755L205.479 150.749ZM181.469 162.838L172.598 167.966C171.312 168.711 169.211 168.728 167.907 168.018L145.463 155.714C145.34 155.644 145.224 155.574 145.125 155.493C145.218 155.417 145.323 155.347 145.439 155.283L155.474 149.486C156.76 148.741 158.838 148.758 160.113 149.521L181.492 162.32C181.626 162.401 181.742 162.483 181.847 162.57C181.742 162.669 181.609 162.751 181.469 162.832V162.838ZM164.548 172.611L155.66 177.738C154.374 178.483 152.255 178.553 150.916 177.895L127.18 166.196C127.069 166.144 126.965 166.08 126.866 166.016C126.935 165.964 127.017 165.911 127.098 165.865L137.098 160.091C138.385 159.346 140.492 159.317 141.801 160.015L164.508 172.197C164.63 172.261 164.74 172.331 164.839 172.407C164.746 172.477 164.653 172.541 164.542 172.605L164.548 172.611ZM69.969 137.705L82.204 130.639C83.4903 129.889 85.5974 129.859 86.907 130.564L106.179 140.907C106.301 140.971 106.412 141.041 106.511 141.116C106.418 141.186 106.325 141.25 106.214 141.314L94.957 147.815C93.6706 148.561 91.5461 148.63 90.2073 147.973L70.0447 138.031C69.9341 137.979 69.8235 137.915 69.7246 137.851C69.7944 137.804 69.8759 137.752 69.9574 137.705H69.969ZM91.1095 125.5L103.478 118.364C104.765 117.619 106.843 117.637 108.117 118.399L126.249 129.254C126.382 129.336 126.499 129.417 126.604 129.51C126.493 129.609 126.365 129.691 126.225 129.772L114.875 136.32C113.589 137.065 111.482 137.088 110.178 136.373L91.1328 125.931C91.0106 125.861 90.8942 125.791 90.7952 125.709C90.8883 125.634 90.9931 125.564 91.1095 125.5ZM152.22 145.33L142.04 151.209C140.754 151.954 138.652 151.977 137.349 151.261L118.303 140.819C118.181 140.749 118.065 140.68 117.966 140.598C118.059 140.522 118.158 140.453 118.274 140.389L129.479 133.922C130.765 133.177 132.843 133.195 134.118 133.957L152.244 144.812C152.377 144.894 152.494 144.975 152.599 145.068C152.494 145.167 152.36 145.249 152.22 145.33ZM170.829 134.591L160.608 140.499C159.321 141.244 157.249 141.215 155.98 140.441L138.088 129.481C137.954 129.4 137.832 129.307 137.727 129.219C137.837 129.114 137.977 129.027 138.123 128.94L149.409 122.427C150.695 121.682 152.744 121.752 153.972 122.578L170.934 133.957C171.073 134.05 171.19 134.149 171.3 134.26C171.172 134.382 171.015 134.498 170.835 134.597L170.829 134.591ZM146.341 118.155L134.904 124.761C133.618 125.506 131.545 125.477 130.276 124.703L112.384 113.749C112.244 113.661 112.128 113.574 112.017 113.487C112.134 113.382 112.267 113.289 112.419 113.201L124.922 105.99C126.208 105.245 128.257 105.315 129.485 106.147L146.44 117.526C146.58 117.619 146.696 117.712 146.807 117.823C146.679 117.945 146.522 118.061 146.341 118.16V118.155ZM98.5425 151.785L109.666 145.365C110.952 144.62 113.059 144.591 114.363 145.289L133.641 155.632C133.763 155.696 133.874 155.766 133.973 155.848C133.879 155.918 133.786 155.982 133.676 156.04L123.525 161.901C122.238 162.646 120.114 162.716 118.775 162.058L98.6181 152.117C98.5075 152.064 98.4028 152.006 98.3038 151.936C98.3737 151.89 98.4552 151.837 98.5366 151.791L98.5425 151.785ZM163.419 144.946C163.53 144.841 163.669 144.754 163.815 144.667L173.89 138.852C175.183 138.107 177.226 138.171 178.46 139.003L198.477 152.443C198.616 152.536 198.733 152.635 198.843 152.745C198.715 152.868 198.558 152.984 198.378 153.083L189.519 158.199C188.232 158.944 186.166 158.915 184.891 158.141L163.78 145.214C163.64 145.126 163.524 145.039 163.413 144.952L163.419 144.946Z" fill="#999999"/>
<g opacity="0.7">
<path d="M205.479 150.749L131.842 100.146C130.94 99.5292 129.561 99.1509 128.158 99.1509C126.965 99.1509 125.853 99.407 125.038 99.8842L60.9587 136.879C60.4814 137.152 60.2602 137.403 60.1846 137.525C60.2719 137.636 60.5105 137.868 61.0053 138.107L149.723 180.945C150.608 181.37 151.807 181.609 153.111 181.609C154.665 181.609 156.207 181.26 157.226 180.672L205.403 152.856C205.95 152.536 206.311 152.14 206.323 151.837C206.34 151.535 206.003 151.11 205.485 150.755L205.479 150.749ZM181.469 162.838L172.598 167.966C171.312 168.711 169.211 168.728 167.907 168.018L145.463 155.714C145.34 155.644 145.224 155.574 145.125 155.493C145.218 155.417 145.323 155.347 145.439 155.283L155.474 149.486C156.76 148.741 158.838 148.758 160.113 149.521L181.492 162.32C181.626 162.401 181.742 162.483 181.847 162.57C181.742 162.669 181.609 162.751 181.469 162.832V162.838ZM164.548 172.611L155.66 177.738C154.374 178.483 152.255 178.553 150.916 177.895L127.18 166.196C127.069 166.144 126.965 166.08 126.866 166.016C126.935 165.964 127.017 165.911 127.098 165.865L137.098 160.091C138.385 159.346 140.492 159.317 141.801 160.015L164.508 172.197C164.63 172.261 164.74 172.331 164.839 172.407C164.746 172.477 164.653 172.541 164.542 172.605L164.548 172.611ZM69.969 137.705L82.204 130.639C83.4903 129.889 85.5974 129.859 86.907 130.564L106.179 140.907C106.301 140.971 106.412 141.041 106.511 141.116C106.418 141.186 106.325 141.25 106.214 141.314L94.957 147.815C93.6706 148.561 91.5461 148.63 90.2073 147.973L70.0447 138.031C69.9341 137.979 69.8235 137.915 69.7246 137.851C69.7944 137.804 69.8759 137.752 69.9574 137.705H69.969ZM91.1095 125.5L103.478 118.364C104.765 117.619 106.843 117.637 108.117 118.399L126.249 129.254C126.382 129.336 126.499 129.417 126.604 129.51C126.493 129.609 126.365 129.691 126.225 129.772L114.875 136.32C113.589 137.065 111.482 137.088 110.178 136.373L91.1328 125.931C91.0106 125.861 90.8942 125.791 90.7952 125.709C90.8883 125.634 90.9931 125.564 91.1095 125.5ZM152.22 145.33L142.04 151.209C140.754 151.954 138.652 151.977 137.349 151.261L118.303 140.819C118.181 140.749 118.065 140.68 117.966 140.598C118.059 140.522 118.158 140.453 118.274 140.389L129.479 133.922C130.765 133.177 132.843 133.195 134.118 133.957L152.244 144.812C152.377 144.894 152.494 144.975 152.599 145.068C152.494 145.167 152.36 145.249 152.22 145.33ZM170.829 134.591L160.608 140.499C159.321 141.244 157.249 141.215 155.98 140.441L138.088 129.481C137.954 129.4 137.832 129.307 137.727 129.219C137.837 129.114 137.977 129.027 138.123 128.94L149.409 122.427C150.695 121.682 152.744 121.752 153.972 122.578L170.934 133.957C171.073 134.05 171.19 134.149 171.3 134.26C171.172 134.382 171.015 134.498 170.835 134.597L170.829 134.591ZM146.341 118.155L134.904 124.761C133.618 125.506 131.545 125.477 130.276 124.703L112.384 113.749C112.244 113.661 112.128 113.574 112.017 113.487C112.134 113.382 112.267 113.289 112.419 113.201L124.922 105.99C126.208 105.245 128.257 105.315 129.485 106.147L146.44 117.526C146.58 117.619 146.696 117.712 146.807 117.823C146.679 117.945 146.522 118.061 146.341 118.16V118.155ZM98.5425 151.785L109.666 145.365C110.952 144.62 113.059 144.591 114.363 145.289L133.641 155.632C133.763 155.696 133.874 155.766 133.973 155.848C133.879 155.918 133.786 155.982 133.676 156.04L123.525 161.901C122.238 162.646 120.114 162.716 118.775 162.058L98.6181 152.117C98.5075 152.064 98.4028 152.006 98.3038 151.936C98.3737 151.89 98.4552 151.837 98.5366 151.791L98.5425 151.785ZM163.419 144.946C163.53 144.841 163.669 144.754 163.815 144.667L173.89 138.852C175.183 138.107 177.226 138.171 178.46 139.003L198.477 152.443C198.616 152.536 198.733 152.635 198.843 152.745C198.715 152.868 198.558 152.984 198.378 153.083L189.519 158.199C188.232 158.944 186.166 158.915 184.891 158.141L163.78 145.214C163.64 145.126 163.524 145.039 163.413 144.952L163.419 144.946Z" fill="white"/>
</g>
<path d="M133.635 153.426L114.357 143.083C113.048 142.385 110.947 142.414 109.66 143.159L98.537 149.579C97.3554 150.26 97.2914 151.261 98.3042 151.93C98.374 151.884 98.4555 151.832 98.537 151.785L109.66 145.365C110.947 144.62 113.054 144.591 114.357 145.289L133.635 155.632C133.758 155.696 133.868 155.766 133.967 155.848C134.951 155.103 134.834 154.067 133.635 153.426ZM198.471 150.237L178.454 136.797C177.214 135.971 175.177 135.901 173.885 136.646L163.809 142.461C162.663 143.124 162.523 144.172 163.414 144.946C163.524 144.841 163.664 144.754 163.809 144.667L173.885 138.852C175.177 138.107 177.22 138.171 178.454 139.003L198.471 152.443C198.611 152.536 198.727 152.635 198.838 152.745C199.653 151.994 199.531 150.953 198.471 150.237ZM106.185 138.701L86.9132 128.358C85.5978 127.653 83.4965 127.688 82.2102 128.433L69.9752 135.499C68.7995 136.18 68.7296 137.181 69.7424 137.851C69.8122 137.804 69.8937 137.752 69.9752 137.705L82.2102 130.639C83.4965 129.888 85.6036 129.859 86.9132 130.564L106.185 140.907C106.308 140.971 106.418 141.04 106.517 141.116C107.495 140.377 107.384 139.341 106.185 138.701ZM164.514 169.997L141.808 157.821C140.492 157.116 138.391 157.146 137.104 157.891L127.105 163.664C125.923 164.345 125.853 165.352 126.872 166.022C126.942 165.969 127.023 165.917 127.105 165.87L137.104 160.097C138.391 159.352 140.498 159.322 141.808 160.021L164.514 172.203C164.636 172.267 164.747 172.337 164.846 172.413C165.823 171.673 165.713 170.637 164.514 169.997ZM181.493 160.12L160.113 147.321C158.839 146.564 156.761 146.541 155.474 147.286L145.44 153.077C144.275 153.752 144.177 154.782 145.125 155.493C145.218 155.417 145.323 155.347 145.44 155.283L155.474 149.486C156.761 148.741 158.839 148.758 160.113 149.521L181.493 162.32C181.626 162.401 181.743 162.483 181.848 162.57C182.744 161.825 182.628 160.783 181.493 160.108V160.12ZM126.249 127.048L108.118 116.193C106.843 115.431 104.765 115.413 103.479 116.158L91.1099 123.294C89.9458 123.969 89.8468 124.994 90.7956 125.709C90.8887 125.634 90.9935 125.564 91.1099 125.5L103.479 118.364C104.765 117.619 106.843 117.636 108.118 118.399L126.249 129.254C126.383 129.336 126.499 129.417 126.604 129.51C127.5 128.765 127.384 127.723 126.249 127.042V127.048ZM146.435 115.32L129.479 103.941C128.245 103.115 126.202 103.045 124.916 103.784L112.413 111.001C111.261 111.665 111.121 112.712 112.012 113.487C112.128 113.382 112.262 113.289 112.413 113.201L124.916 105.99C126.202 105.245 128.251 105.315 129.479 106.147L146.435 117.526C146.575 117.619 146.691 117.712 146.802 117.823C147.622 117.072 147.5 116.03 146.435 115.32ZM152.244 142.606L134.118 131.757C132.844 130.994 130.766 130.977 129.479 131.722L118.275 138.188C117.111 138.864 117.017 139.894 117.966 140.604C118.059 140.528 118.158 140.458 118.275 140.394L129.479 133.928C130.766 133.183 132.844 133.2 134.118 133.963L152.244 144.818C152.378 144.899 152.494 144.981 152.599 145.074C153.495 144.335 153.379 143.293 152.244 142.606ZM170.922 131.751L153.961 120.372C152.727 119.546 150.684 119.476 149.398 120.215L138.111 126.728C136.959 127.392 136.819 128.445 137.716 129.213C137.826 129.109 137.966 129.021 138.111 128.934L149.398 122.421C150.684 121.676 152.733 121.746 153.961 122.572L170.922 133.951C171.062 134.044 171.178 134.143 171.289 134.254C172.104 133.503 171.982 132.461 170.922 131.751Z" fill="#999999"/>
<path opacity="0.3" d="M106.517 141.116C107.495 140.377 107.384 139.341 106.185 138.701L86.9132 128.358C85.5978 127.653 83.4965 127.688 82.2102 128.433L69.9752 135.499C68.7995 136.18 68.7296 137.181 69.7424 137.851C69.8122 137.804 69.8937 137.752 69.9752 137.705L82.2102 130.645C83.4965 129.894 85.6036 129.865 86.9132 130.569L106.185 140.912C106.308 140.976 106.418 141.046 106.517 141.122V141.116ZM90.7956 125.709C90.8887 125.634 90.9935 125.564 91.1099 125.5L103.479 118.364C104.765 117.619 106.843 117.636 108.118 118.399L126.249 129.254C126.383 129.336 126.499 129.417 126.604 129.51C127.5 128.765 127.384 127.723 126.249 127.042L108.118 116.187C106.843 115.425 104.765 115.407 103.479 116.152L91.1099 123.288C89.9458 123.963 89.8468 124.988 90.7956 125.704V125.709ZM137.716 129.213C137.826 129.109 137.966 129.021 138.111 128.934L149.398 122.421C150.684 121.676 152.733 121.746 153.961 122.572L170.922 133.951C171.062 134.044 171.178 134.143 171.289 134.254C172.104 133.503 171.982 132.461 170.922 131.751L153.961 120.372C152.727 119.546 150.684 119.476 149.398 120.215L138.111 126.728C136.959 127.392 136.819 128.445 137.716 129.213ZM134.113 131.757C132.838 130.994 130.76 130.977 129.474 131.722L118.269 138.188C117.105 138.864 117.012 139.894 117.96 140.604C118.054 140.528 118.153 140.458 118.269 140.394L129.474 133.928C130.76 133.183 132.838 133.2 134.113 133.963L152.238 144.818C152.372 144.899 152.488 144.981 152.593 145.074C153.49 144.335 153.373 143.293 152.238 142.606L134.113 131.757ZM112.413 113.201L124.916 105.99C126.202 105.245 128.251 105.315 129.479 106.147L146.435 117.526C146.575 117.619 146.691 117.712 146.802 117.823C147.622 117.072 147.5 116.03 146.435 115.32L129.479 103.941C128.245 103.115 126.202 103.045 124.916 103.784L112.413 111.001C111.261 111.665 111.121 112.712 112.012 113.487C112.128 113.382 112.262 113.289 112.413 113.201ZM181.493 160.12L160.113 147.321C158.839 146.564 156.761 146.541 155.474 147.286L145.44 153.077C144.275 153.752 144.177 154.782 145.125 155.493C145.218 155.417 145.323 155.347 145.44 155.283L155.474 149.486C156.761 148.741 158.839 148.758 160.113 149.521L181.493 162.32C181.626 162.401 181.743 162.483 181.848 162.57C182.744 161.825 182.628 160.783 181.493 160.108V160.12ZM133.973 155.853C134.957 155.108 134.84 154.072 133.641 153.432L114.363 143.089C113.054 142.391 110.952 142.42 109.666 143.165L98.5428 149.585C97.3613 150.266 97.2972 151.267 98.31 151.936C98.3799 151.89 98.4613 151.837 98.5428 151.791L109.666 145.371C110.952 144.626 113.059 144.597 114.363 145.295L133.641 155.638C133.763 155.702 133.874 155.772 133.973 155.853ZM198.471 150.243L178.454 136.803C177.214 135.977 175.177 135.907 173.885 136.652L163.809 142.466C162.663 143.13 162.523 144.178 163.414 144.952C163.524 144.847 163.664 144.76 163.809 144.672L173.885 138.858C175.177 138.113 177.22 138.177 178.454 139.009L198.471 152.448C198.611 152.542 198.727 152.641 198.838 152.751C199.653 152 199.531 150.958 198.471 150.243ZM164.514 169.997L141.808 157.821C140.492 157.116 138.391 157.146 137.104 157.891L127.105 163.664C125.923 164.345 125.853 165.352 126.872 166.022C126.942 165.969 127.023 165.917 127.105 165.87L137.104 160.097C138.391 159.352 140.498 159.322 141.808 160.021L164.514 172.203C164.636 172.267 164.747 172.337 164.846 172.413C165.823 171.673 165.713 170.637 164.514 169.997Z" fill="white"/>
<path d="M128.745 98.045L128.705 97.0089L125.812 29.2184C125.509 29.1834 125.201 29.1602 124.898 29.1602C123.821 29.1602 122.808 29.3988 122.057 29.8353L55.6848 68.157C55.0097 68.5412 54.8525 68.8788 54.8467 68.937L59.9164 134.999L60.1842 137.525C60.2599 137.403 60.481 137.152 60.9583 136.879L125.038 99.8842C125.852 99.4128 126.958 99.1508 128.157 99.1508C128.373 99.1508 128.582 99.1625 128.792 99.1799L128.745 98.0508V98.045ZM119.17 74.251L106.47 81.5906C106.254 81.7128 106.045 81.8001 105.847 81.8467C105.812 81.6895 105.783 81.5149 105.771 81.3229L105.114 69.3037C105.038 67.8195 106.01 66.0151 107.302 65.2701L120.16 57.8491C120.369 57.7327 120.567 57.6453 120.765 57.5988C120.806 57.7559 120.829 57.9247 120.841 58.1168L121.388 70.2233C121.452 71.7075 120.463 73.5118 119.176 74.2569L119.17 74.251ZM119.851 36.2494L120.393 48.3559C120.457 49.8401 119.467 51.6503 118.181 52.3953L105.288 59.8396C105.073 59.9619 104.863 60.0492 104.665 60.0957C104.63 59.9386 104.601 59.764 104.59 59.5719L103.932 47.5527C103.856 46.0743 104.828 44.2642 106.121 43.5192L119.176 35.9817C119.38 35.8653 119.584 35.778 119.782 35.7314C119.822 35.8886 119.846 36.0574 119.857 36.2494H119.851ZM85.3991 77.9121L98.2569 70.491C98.4722 70.3688 98.6876 70.2815 98.8855 70.2349C98.9262 70.3921 98.9553 70.5667 98.967 70.7588L99.6422 82.7605C99.7295 84.2447 98.7516 86.049 97.4594 86.7941L84.7472 94.1336C84.526 94.2617 84.3048 94.349 84.1011 94.3955C84.0604 94.2384 84.0254 94.0638 84.0138 93.8717L83.2455 81.9515C83.1465 80.4673 84.1128 78.6629 85.3991 77.9179V77.9121ZM97.7388 49.0311L98.4198 61.0328C98.5013 62.517 97.5235 64.3272 96.2371 65.0722L83.3503 72.5107C83.1291 72.6388 82.9137 72.7261 82.7042 72.7668C82.6634 72.6097 82.6285 72.4409 82.6169 72.2488L81.8427 60.3227C81.7438 58.8444 82.71 57.0342 84.0022 56.2892L97.0287 48.7692C97.2441 48.647 97.4594 48.5597 97.6573 48.5131C97.6981 48.6702 97.7272 48.839 97.7388 49.0311ZM63.5078 90.5541L76.3597 83.133C76.5809 83.005 76.8021 82.9177 77.0116 82.8711C77.0523 83.0341 77.0873 83.2029 77.0989 83.4007L77.8963 95.2977C77.9953 96.7819 77.0291 98.5863 75.7427 99.3313L63.0188 106.682C62.7918 106.811 62.5706 106.904 62.3553 106.944C62.3087 106.781 62.2796 106.613 62.2621 106.421L61.3716 94.5876C61.261 93.1092 62.2156 91.3049 63.5019 90.5599L63.5078 90.5541ZM75.6496 61.8011L76.447 73.7039C76.5518 75.1823 75.5856 76.9866 74.2992 77.7375L61.4123 85.1702C61.1853 85.2982 60.9583 85.3913 60.7488 85.4321C60.7022 85.2749 60.6731 85.1003 60.6557 84.9082L59.7651 73.0811C59.6545 71.6027 60.6091 69.7984 61.8954 69.0476L74.9104 61.5392C75.1374 61.4112 75.3527 61.318 75.5623 61.2715C75.603 61.4344 75.6379 61.6032 75.6496 61.8011ZM63.8686 127.91L62.9839 116.082C62.8733 114.598 63.8279 112.794 65.1143 112.049L77.8032 104.721C78.0244 104.593 78.2398 104.506 78.4493 104.465C78.49 104.622 78.525 104.791 78.5366 104.983L79.334 116.886C79.4388 118.37 78.4726 120.174 77.1862 120.919L64.6253 128.172C64.3925 128.3 64.1713 128.393 63.9559 128.433C63.9094 128.27 63.8803 128.102 63.8628 127.91H63.8686ZM85.4166 115.483L84.6424 103.557C84.5435 102.079 85.5155 100.268 86.8019 99.5233L99.4792 92.2071C99.6946 92.0848 99.9041 91.9975 100.102 91.9568C100.143 92.1139 100.172 92.2827 100.183 92.469L100.865 104.477C100.946 105.955 99.9681 107.765 98.6818 108.51L86.15 115.745C85.9288 115.873 85.7134 115.96 85.5039 116.007C85.4631 115.844 85.4282 115.675 85.4166 115.483ZM106.941 103.074L106.284 91.0488C106.208 89.5704 107.18 87.7603 108.466 87.0152L121.126 79.7048C121.33 79.5884 121.534 79.5011 121.731 79.4545C121.772 79.6116 121.795 79.7804 121.807 79.9725L122.354 92.079C122.418 93.5632 121.429 95.3734 120.142 96.1184L107.634 103.336C107.419 103.458 107.209 103.545 107.011 103.586C106.97 103.429 106.947 103.26 106.935 103.074H106.941Z" fill="#999999"/>
<path opacity="0.3" d="M128.745 98.045L128.705 97.0089L125.812 29.2184C125.509 29.1834 125.201 29.1602 124.898 29.1602C123.821 29.1602 122.808 29.3988 122.057 29.8353L55.6848 68.157C55.0097 68.5412 54.8525 68.8788 54.8467 68.937L59.9164 134.999L60.1842 137.525C60.2599 137.403 60.481 137.152 60.9583 136.879L125.038 99.8842C125.852 99.4128 126.958 99.1508 128.157 99.1508C128.373 99.1508 128.582 99.1625 128.792 99.1799L128.745 98.0508V98.045ZM119.17 74.251L106.47 81.5906C106.254 81.7128 106.045 81.8001 105.847 81.8467C105.812 81.6895 105.783 81.5149 105.771 81.3229L105.114 69.3037C105.038 67.8195 106.01 66.0151 107.302 65.2701L120.16 57.8491C120.369 57.7327 120.567 57.6453 120.765 57.5988C120.806 57.7559 120.829 57.9247 120.841 58.1168L121.388 70.2233C121.452 71.7075 120.463 73.5118 119.176 74.2569L119.17 74.251ZM119.851 36.2494L120.393 48.3559C120.457 49.8401 119.467 51.6503 118.181 52.3953L105.288 59.8396C105.073 59.9619 104.863 60.0492 104.665 60.0957C104.63 59.9386 104.601 59.764 104.59 59.5719L103.932 47.5527C103.856 46.0743 104.828 44.2642 106.121 43.5192L119.176 35.9817C119.38 35.8653 119.584 35.778 119.782 35.7314C119.822 35.8886 119.846 36.0574 119.857 36.2494H119.851ZM85.3991 77.9121L98.2569 70.491C98.4722 70.3688 98.6876 70.2815 98.8855 70.2349C98.9262 70.3921 98.9553 70.5667 98.967 70.7588L99.6422 82.7605C99.7295 84.2447 98.7516 86.049 97.4594 86.7941L84.7472 94.1336C84.526 94.2617 84.3048 94.349 84.1011 94.3955C84.0604 94.2384 84.0254 94.0638 84.0138 93.8717L83.2455 81.9515C83.1465 80.4673 84.1128 78.6629 85.3991 77.9179V77.9121ZM97.7388 49.0311L98.4198 61.0328C98.5013 62.517 97.5235 64.3272 96.2371 65.0722L83.3503 72.5107C83.1291 72.6388 82.9137 72.7261 82.7042 72.7668C82.6634 72.6097 82.6285 72.4409 82.6169 72.2488L81.8427 60.3227C81.7438 58.8444 82.71 57.0342 84.0022 56.2892L97.0287 48.7692C97.2441 48.647 97.4594 48.5597 97.6573 48.5131C97.6981 48.6702 97.7272 48.839 97.7388 49.0311ZM63.5078 90.5541L76.3597 83.133C76.5809 83.005 76.8021 82.9177 77.0116 82.8711C77.0523 83.0341 77.0873 83.2029 77.0989 83.4007L77.8963 95.2977C77.9953 96.7819 77.0291 98.5863 75.7427 99.3313L63.0188 106.682C62.7918 106.811 62.5706 106.904 62.3553 106.944C62.3087 106.781 62.2796 106.613 62.2621 106.421L61.3716 94.5876C61.261 93.1092 62.2156 91.3049 63.5019 90.5599L63.5078 90.5541ZM75.6496 61.8011L76.447 73.7039C76.5518 75.1823 75.5856 76.9866 74.2992 77.7375L61.4123 85.1702C61.1853 85.2982 60.9583 85.3913 60.7488 85.4321C60.7022 85.2749 60.6731 85.1003 60.6557 84.9082L59.7651 73.0811C59.6545 71.6027 60.6091 69.7984 61.8954 69.0476L74.9104 61.5392C75.1374 61.4112 75.3527 61.318 75.5623 61.2715C75.603 61.4344 75.6379 61.6032 75.6496 61.8011ZM63.8686 127.91L62.9839 116.082C62.8733 114.598 63.8279 112.794 65.1143 112.049L77.8032 104.721C78.0244 104.593 78.2398 104.506 78.4493 104.465C78.49 104.622 78.525 104.791 78.5366 104.983L79.334 116.886C79.4388 118.37 78.4726 120.174 77.1862 120.919L64.6253 128.172C64.3925 128.3 64.1713 128.393 63.9559 128.433C63.9094 128.27 63.8803 128.102 63.8628 127.91H63.8686ZM85.4166 115.483L84.6424 103.557C84.5435 102.079 85.5155 100.268 86.8019 99.5233L99.4792 92.2071C99.6946 92.0848 99.9041 91.9975 100.102 91.9568C100.143 92.1139 100.172 92.2827 100.183 92.469L100.865 104.477C100.946 105.955 99.9681 107.765 98.6818 108.51L86.15 115.745C85.9288 115.873 85.7134 115.96 85.5039 116.007C85.4631 115.844 85.4282 115.675 85.4166 115.483ZM106.941 103.074L106.284 91.0488C106.208 89.5704 107.18 87.7603 108.466 87.0152L121.126 79.7048C121.33 79.5884 121.534 79.5011 121.731 79.4545C121.772 79.6116 121.795 79.7804 121.807 79.9725L122.354 92.079C122.418 93.5632 121.429 95.3734 120.142 96.1184L107.634 103.336C107.419 103.458 107.209 103.545 107.011 103.586C106.97 103.429 106.947 103.26 106.935 103.074H106.941Z" fill="white"/>
<path d="M101.971 93.5516C101.901 92.3119 101.115 91.6949 100.114 91.9568C100.155 92.114 100.184 92.2828 100.195 92.469L100.876 104.477C100.958 105.955 99.98 107.765 98.6937 108.51L86.1619 115.745C85.9407 115.873 85.7253 115.96 85.5158 116.007C85.8185 117.095 86.8138 117.474 87.9372 116.828L100.469 109.593C101.755 108.842 102.727 107.043 102.646 105.553L101.971 93.5516ZM122.611 59.1878C122.558 57.9364 121.778 57.3194 120.76 57.593C120.8 57.7501 120.824 57.9189 120.835 58.111L121.382 70.2175C121.446 71.7017 120.457 73.5061 119.171 74.2511L106.47 81.5906C106.255 81.7129 106.045 81.8002 105.847 81.8467C106.132 82.941 107.122 83.3135 108.251 82.6674L120.952 75.3337C122.238 74.5886 123.228 72.7901 123.158 71.3001L122.616 59.1878H122.611ZM100.743 71.8298C100.679 70.5958 99.8986 69.9789 98.8916 70.2292C98.9323 70.3863 98.9614 70.5609 98.9731 70.753L99.6483 82.7547C99.7356 84.2389 98.7577 86.0433 97.4655 86.7883L84.7533 94.1278C84.5321 94.2559 84.3109 94.3432 84.1072 94.3898C84.4099 95.484 85.4052 95.8565 86.5286 95.2104L99.2408 87.8709C100.527 87.1259 101.499 85.3215 101.424 83.8373L100.743 71.8298ZM121.627 37.3321C121.575 36.0865 120.795 35.4579 119.782 35.7315C119.823 35.8886 119.846 36.0574 119.857 36.2495L120.399 48.356C120.463 49.8402 119.473 51.6503 118.187 52.3953L105.294 59.8397C105.079 59.9619 104.869 60.0492 104.671 60.0958C104.957 61.19 105.946 61.5683 107.075 60.9223L119.968 53.478C121.254 52.7329 122.244 50.9286 122.174 49.4386L121.633 37.3321H121.627ZM99.5144 50.1137C99.4504 48.874 98.6646 48.257 97.6634 48.5131C97.7042 48.6703 97.7333 48.8391 97.7449 49.0311L98.4259 61.0329C98.5074 62.5171 97.5296 64.3272 96.2432 65.0723L83.3564 72.5108C83.1352 72.6388 82.9198 72.7261 82.7103 72.7669C83.0071 73.8611 84.0024 74.2394 85.1258 73.5934L98.0127 66.149C99.3049 65.404 100.277 63.6055 100.195 62.1155L99.5144 50.1137ZM77.431 62.8779C77.3437 61.6557 76.5637 61.0329 75.5684 61.2715C75.6091 61.4345 75.644 61.6033 75.6557 61.8012L76.4531 73.7039C76.5579 75.1823 75.5917 76.9867 74.3053 77.7375L61.4184 85.1702C61.1914 85.2982 60.9644 85.3914 60.7549 85.4321C61.0634 86.5264 62.0703 86.8989 63.1937 86.2528L76.0748 78.8143C77.3611 78.0693 78.3273 76.2708 78.2284 74.7807L77.431 62.8779ZM123.594 81.0551C123.536 79.8096 122.756 79.181 121.743 79.4545C121.784 79.6117 121.807 79.7805 121.819 79.9725L122.366 92.079C122.43 93.5633 121.441 95.3734 120.154 96.1184L107.646 103.336C107.43 103.458 107.221 103.545 107.023 103.586C107.302 104.686 108.292 105.064 109.427 104.413L121.935 97.1952C123.222 96.4502 124.211 94.6459 124.141 93.1558L123.6 81.0493L123.594 81.0551ZM80.318 106.066C80.2365 104.837 79.4507 104.22 78.4554 104.465C78.4961 104.622 78.5311 104.791 78.5427 104.983L79.3401 116.886C79.4449 118.37 78.4787 120.174 77.1923 120.919L64.6314 128.172C64.3986 128.3 64.1774 128.393 63.962 128.433C64.2764 129.522 65.2833 129.9 66.4067 129.254L78.9618 122.002C80.254 121.257 81.2144 119.458 81.1154 117.968L80.318 106.066ZM78.8687 84.4717C78.7872 83.2495 78.0072 82.6267 77.0119 82.8653C77.0526 83.0283 77.0876 83.1971 77.0992 83.395L77.8966 95.2919C77.9956 96.7761 77.0293 98.5805 75.743 99.3255L63.0191 106.677C62.7921 106.805 62.5709 106.898 62.3556 106.939C62.664 108.027 63.671 108.4 64.7944 107.753L77.5183 100.408C78.8046 99.6631 79.7709 97.8646 79.6661 96.3745L78.8687 84.4717Z" fill="#999999"/>
<path d="M212.271 94.6635L128.594 30.2662C127.895 29.7307 126.894 29.3582 125.812 29.2244L128.745 98.016L128.792 99.1801C129.903 99.2849 130.939 99.5526 131.842 100.146L206.41 151.389L213.092 95.9265V95.8916C213.092 95.5191 212.795 95.0651 212.271 94.6693V94.6635ZM179.78 106.531C179.78 106.601 179.769 106.671 179.757 106.735C179.67 106.688 179.582 106.63 179.501 106.566L161.713 93.7671C160.508 92.8999 159.559 90.9908 159.6 89.5008L159.88 78.8668C159.88 78.8319 159.88 78.7912 159.88 78.7562C159.926 78.7912 159.973 78.8203 160.019 78.8552L178.482 92.5216C179.676 93.4121 180.56 95.327 180.456 96.8112L179.774 106.52L179.78 106.531ZM205.554 125.279C205.438 125.221 205.315 125.145 205.193 125.058L187.551 112.363C186.346 111.49 185.455 109.587 185.578 108.103L186.311 98.5282C186.311 98.47 186.323 98.4118 186.334 98.3536C186.422 98.4002 186.509 98.4642 186.59 98.5282L204.745 111.968C205.938 112.858 206.776 114.767 206.602 116.246L205.595 125.029C205.583 125.116 205.572 125.197 205.56 125.273L205.554 125.279ZM187.993 79.9145L206.788 94.291C207.97 95.1931 208.784 97.1255 208.616 98.6039L207.615 107.375C207.615 107.445 207.597 107.515 207.58 107.579C207.469 107.521 207.353 107.451 207.242 107.364L188.954 93.7322C187.766 92.8417 186.893 90.9209 187.004 89.4425L187.737 79.8912C187.737 79.8447 187.737 79.7981 187.749 79.7573C187.83 79.7981 187.912 79.8621 187.993 79.9203V79.9145ZM160.52 58.9027L179.833 73.675C181.014 74.5772 181.887 76.5095 181.783 77.9996L181.102 87.6906C181.102 87.743 181.09 87.8012 181.084 87.8536C181.003 87.807 180.927 87.7488 180.846 87.6906L162.208 73.8031C161.02 72.9125 160.083 70.986 160.124 69.5018L160.398 58.8853C160.398 58.8853 160.398 58.8445 160.398 58.8271C160.433 58.8562 160.473 58.8795 160.508 58.9086L160.52 58.9027ZM153.78 87.9118C153.78 87.9583 153.78 88.0049 153.78 88.0456C153.733 88.0165 153.686 87.9874 153.646 87.9525L135.654 75.0079C134.449 74.1348 133.431 72.2315 133.384 70.7415L132.988 58.8445L151.876 72.8252C153.069 73.7099 154.018 75.6307 153.989 77.1149L153.791 87.906L153.78 87.9118ZM152.255 52.5876C153.436 53.4839 154.368 55.4221 154.344 56.9122L154.152 67.7032V67.7847C154.117 67.7614 154.071 67.7323 154.036 67.7032L134.909 53.449C133.716 52.5585 132.709 50.6319 132.657 49.1477L132.261 37.2915L152.255 52.5934V52.5876ZM153.238 108.225L136.393 96.5551C135.171 95.7112 134.135 93.8195 134.088 92.3353L133.693 80.4442V80.3976C133.693 80.3976 133.693 80.3976 133.704 80.3976L151.463 93.0861C152.674 93.9534 153.634 95.8567 153.605 97.3467L153.407 108.144C153.407 108.208 153.407 108.266 153.395 108.324C153.343 108.289 153.291 108.26 153.232 108.219L153.238 108.225ZM178.156 125.483L161.218 113.754C159.996 112.911 159.036 111.013 159.076 109.529L159.356 98.8891C159.356 98.8367 159.356 98.7843 159.367 98.732C159.42 98.7669 159.472 98.8018 159.525 98.8367L177.144 111.42C178.348 112.288 179.251 114.185 179.146 115.675L178.465 125.401C178.465 125.488 178.447 125.57 178.436 125.646C178.343 125.605 178.249 125.541 178.156 125.477V125.483ZM203.138 142.793L186.148 131.018C184.926 130.174 184.029 128.282 184.14 126.804L184.868 117.206C184.868 117.13 184.885 117.055 184.897 116.985C184.99 117.037 185.077 117.095 185.17 117.165L202.696 129.685C203.907 130.546 204.751 132.444 204.582 133.922L203.575 142.729C203.563 142.833 203.546 142.921 203.528 143.014C203.406 142.956 203.278 142.886 203.144 142.793H203.138Z" fill="#999999"/>
<path opacity="0.5" d="M212.271 94.6635L128.594 30.2662C127.895 29.7307 126.894 29.3582 125.812 29.2244L128.745 98.016L128.792 99.1801C129.903 99.2849 130.939 99.5526 131.842 100.146L206.41 151.389L213.092 95.9265V95.8916C213.092 95.5191 212.795 95.0651 212.271 94.6693V94.6635ZM179.78 106.531C179.78 106.601 179.769 106.671 179.757 106.735C179.67 106.688 179.582 106.63 179.501 106.566L161.713 93.7671C160.508 92.8999 159.559 90.9908 159.6 89.5008L159.88 78.8668C159.88 78.8319 159.88 78.7912 159.88 78.7562C159.926 78.7912 159.973 78.8203 160.019 78.8552L178.482 92.5216C179.676 93.4121 180.56 95.327 180.456 96.8112L179.774 106.52L179.78 106.531ZM205.554 125.279C205.438 125.221 205.315 125.145 205.193 125.058L187.551 112.363C186.346 111.49 185.455 109.587 185.578 108.103L186.311 98.5282C186.311 98.47 186.323 98.4118 186.334 98.3536C186.422 98.4002 186.509 98.4642 186.59 98.5282L204.745 111.968C205.938 112.858 206.776 114.767 206.602 116.246L205.595 125.029C205.583 125.116 205.572 125.197 205.56 125.273L205.554 125.279ZM187.993 79.9145L206.788 94.291C207.97 95.1931 208.784 97.1255 208.616 98.6039L207.615 107.375C207.615 107.445 207.597 107.515 207.58 107.579C207.469 107.521 207.353 107.451 207.242 107.364L188.954 93.7322C187.766 92.8417 186.893 90.9209 187.004 89.4425L187.737 79.8912C187.737 79.8447 187.737 79.7981 187.749 79.7573C187.83 79.7981 187.912 79.8621 187.993 79.9203V79.9145ZM160.52 58.9027L179.833 73.675C181.014 74.5772 181.887 76.5095 181.783 77.9996L181.102 87.6906C181.102 87.743 181.09 87.8012 181.084 87.8536C181.003 87.807 180.927 87.7488 180.846 87.6906L162.208 73.8031C161.02 72.9125 160.083 70.986 160.124 69.5018L160.398 58.8853C160.398 58.8853 160.398 58.8445 160.398 58.8271C160.433 58.8562 160.473 58.8795 160.508 58.9086L160.52 58.9027ZM153.78 87.9118C153.78 87.9583 153.78 88.0049 153.78 88.0456C153.733 88.0165 153.686 87.9874 153.646 87.9525L135.654 75.0079C134.449 74.1348 133.431 72.2315 133.384 70.7415L132.988 58.8445L151.876 72.8252C153.069 73.7099 154.018 75.6307 153.989 77.1149L153.791 87.906L153.78 87.9118ZM152.255 52.5876C153.436 53.4839 154.368 55.4221 154.344 56.9122L154.152 67.7032V67.7847C154.117 67.7614 154.071 67.7323 154.036 67.7032L134.909 53.449C133.716 52.5585 132.709 50.6319 132.657 49.1477L132.261 37.2915L152.255 52.5934V52.5876ZM153.238 108.225L136.393 96.5551C135.171 95.7112 134.135 93.8195 134.088 92.3353L133.693 80.4442V80.3976C133.693 80.3976 133.693 80.3976 133.704 80.3976L151.463 93.0861C152.674 93.9534 153.634 95.8567 153.605 97.3467L153.407 108.144C153.407 108.208 153.407 108.266 153.395 108.324C153.343 108.289 153.291 108.26 153.232 108.219L153.238 108.225ZM178.156 125.483L161.218 113.754C159.996 112.911 159.036 111.013 159.076 109.529L159.356 98.8891C159.356 98.8367 159.356 98.7843 159.367 98.732C159.42 98.7669 159.472 98.8018 159.525 98.8367L177.144 111.42C178.348 112.288 179.251 114.185 179.146 115.675L178.465 125.401C178.465 125.488 178.447 125.57 178.436 125.646C178.343 125.605 178.249 125.541 178.156 125.477V125.483ZM203.138 142.793L186.148 131.018C184.926 130.174 184.029 128.282 184.14 126.804L184.868 117.206C184.868 117.13 184.885 117.055 184.897 116.985C184.99 117.037 185.077 117.095 185.17 117.165L202.696 129.685C203.907 130.546 204.751 132.444 204.582 133.922L203.575 142.729C203.563 142.833 203.546 142.921 203.528 143.014C203.406 142.956 203.278 142.886 203.144 142.793H203.138Z" fill="white"/>
<path d="M134.903 53.4431C133.71 52.5526 132.703 50.626 132.651 49.1418L132.255 37.2856L132.214 37.2507C131.032 36.3543 130.113 36.8199 130.165 38.3042L130.561 50.2186C130.608 51.7028 131.615 53.6235 132.808 54.5141L151.94 68.7741C153.11 69.6472 154.082 69.1932 154.146 67.773C154.111 67.7497 154.065 67.7206 154.03 67.6915L134.903 53.4373V53.4431ZM135.648 75.0078C134.443 74.1347 133.425 72.2315 133.378 70.7414L132.982 58.8445L132.965 58.8328C131.772 57.9423 130.846 58.437 130.893 59.9212L131.289 71.8182C131.341 73.3024 132.36 75.2173 133.564 76.0846L151.556 89.0292C152.726 89.8732 153.698 89.425 153.779 88.0456C153.733 88.0165 153.686 87.9874 153.646 87.9524L135.654 75.0078H135.648ZM161.218 113.754C159.996 112.91 159.035 111.013 159.076 109.529L159.356 98.889C159.356 98.8366 159.356 98.7843 159.367 98.7319C158.232 98.0218 157.307 98.5456 157.266 99.9716L156.987 110.611C156.952 112.096 157.906 113.987 159.129 114.831L176.061 126.559C177.213 127.363 178.238 126.949 178.436 125.651C178.342 125.611 178.249 125.547 178.156 125.483L161.218 113.754ZM136.393 96.555C135.171 95.7111 134.135 93.8194 134.088 92.3352L133.693 80.4441V80.3975C132.488 79.5419 131.551 80.0483 131.597 81.5267L131.993 93.412C132.039 94.8962 133.07 96.7879 134.292 97.6318L151.143 109.302C152.313 110.117 153.291 109.674 153.395 108.33C153.343 108.295 153.291 108.266 153.232 108.225L136.387 96.555H136.393ZM207.242 107.358L188.953 93.7263C187.766 92.8358 186.893 90.915 187.004 89.4366L187.737 79.8853C187.737 79.8388 187.737 79.7922 187.749 79.7514C186.672 79.0821 185.758 79.5827 185.647 80.9621L184.908 90.5134C184.798 91.9976 185.671 93.9184 186.864 94.8089L205.146 108.435C206.281 109.278 207.335 108.894 207.579 107.573C207.469 107.515 207.352 107.445 207.242 107.358ZM161.713 93.7729C160.508 92.9056 159.559 90.9965 159.6 89.5065L159.879 78.8726C159.879 78.8376 159.879 78.7969 159.879 78.762C158.75 78.0111 157.825 78.5175 157.784 79.9435L157.505 90.5833C157.47 92.0675 158.413 93.9766 159.618 94.8438L177.405 107.643C178.552 108.469 179.571 108.056 179.751 106.735C179.664 106.688 179.576 106.63 179.495 106.566L161.707 93.767L161.713 93.7729ZM187.551 112.363C186.346 111.49 185.455 109.587 185.578 108.103L186.311 98.5282C186.311 98.47 186.323 98.4117 186.334 98.3535C185.246 97.7133 184.326 98.2313 184.221 99.6108L183.482 109.18C183.372 110.664 184.256 112.573 185.461 113.44L203.103 126.14C204.238 126.961 205.292 126.565 205.554 125.279C205.437 125.221 205.315 125.145 205.193 125.058L187.551 112.363ZM186.148 131.018C184.926 130.174 184.029 128.282 184.14 126.804L184.867 117.206C184.867 117.13 184.885 117.055 184.897 116.985C183.802 116.379 182.883 116.915 182.778 118.283L182.044 127.881C181.934 129.365 182.83 131.251 184.053 132.1L201.049 143.869C202.19 144.661 203.243 144.271 203.523 143.014C203.4 142.956 203.272 142.886 203.138 142.793L186.148 131.018ZM162.214 73.7971C161.026 72.9066 160.089 70.9801 160.13 69.4958L160.403 58.8794C160.403 58.8794 160.403 58.8386 160.403 58.8212C159.274 58.0354 158.349 58.5185 158.308 59.9562L158.029 70.5726C157.994 72.0568 158.925 73.9834 160.118 74.8739L178.756 88.7615C179.902 89.6171 180.915 89.2038 181.084 87.8477C181.003 87.8011 180.927 87.7429 180.845 87.6847L162.208 73.7971H162.214Z" fill="#999999"/>
<path opacity="0.2" d="M134.903 53.4431C133.71 52.5526 132.703 50.626 132.651 49.1418L132.255 37.2856L132.214 37.2507C131.032 36.3543 130.113 36.8199 130.165 38.3042L130.561 50.2186C130.608 51.7028 131.615 53.6235 132.808 54.5141L151.94 68.7741C153.11 69.6472 154.082 69.1932 154.146 67.773C154.111 67.7497 154.065 67.7206 154.03 67.6915L134.903 53.4373V53.4431ZM135.648 75.0078C134.443 74.1347 133.425 72.2315 133.378 70.7414L132.982 58.8445L132.965 58.8328C131.772 57.9423 130.846 58.437 130.893 59.9212L131.289 71.8182C131.341 73.3024 132.36 75.2173 133.564 76.0846L151.556 89.0292C152.726 89.8732 153.698 89.425 153.779 88.0456C153.733 88.0165 153.686 87.9874 153.646 87.9524L135.654 75.0078H135.648ZM161.218 113.754C159.996 112.91 159.035 111.013 159.076 109.529L159.356 98.889C159.356 98.8366 159.356 98.7843 159.367 98.7319C158.232 98.0218 157.307 98.5456 157.266 99.9716L156.987 110.611C156.952 112.096 157.906 113.987 159.129 114.831L176.061 126.559C177.213 127.363 178.238 126.949 178.436 125.651C178.342 125.611 178.249 125.547 178.156 125.483L161.218 113.754ZM136.393 96.555C135.171 95.7111 134.135 93.8194 134.088 92.3352L133.693 80.4441V80.3975C132.488 79.5419 131.551 80.0483 131.597 81.5267L131.993 93.412C132.039 94.8962 133.07 96.7879 134.292 97.6318L151.143 109.302C152.313 110.117 153.291 109.674 153.395 108.33C153.343 108.295 153.291 108.266 153.232 108.225L136.387 96.555H136.393ZM207.242 107.358L188.953 93.7263C187.766 92.8358 186.893 90.915 187.004 89.4366L187.737 79.8853C187.737 79.8388 187.737 79.7922 187.749 79.7514C186.672 79.0821 185.758 79.5827 185.647 80.9621L184.908 90.5134C184.798 91.9976 185.671 93.9184 186.864 94.8089L205.146 108.435C206.281 109.278 207.335 108.894 207.579 107.573C207.469 107.515 207.352 107.445 207.242 107.358ZM161.713 93.7729C160.508 92.9056 159.559 90.9965 159.6 89.5065L159.879 78.8726C159.879 78.8376 159.879 78.7969 159.879 78.762C158.75 78.0111 157.825 78.5175 157.784 79.9435L157.505 90.5833C157.47 92.0675 158.413 93.9766 159.618 94.8438L177.405 107.643C178.552 108.469 179.571 108.056 179.751 106.735C179.664 106.688 179.576 106.63 179.495 106.566L161.707 93.767L161.713 93.7729ZM187.551 112.363C186.346 111.49 185.455 109.587 185.578 108.103L186.311 98.5282C186.311 98.47 186.323 98.4117 186.334 98.3535C185.246 97.7133 184.326 98.2313 184.221 99.6108L183.482 109.18C183.372 110.664 184.256 112.573 185.461 113.44L203.103 126.14C204.238 126.961 205.292 126.565 205.554 125.279C205.437 125.221 205.315 125.145 205.193 125.058L187.551 112.363ZM186.148 131.018C184.926 130.174 184.029 128.282 184.14 126.804L184.867 117.206C184.867 117.13 184.885 117.055 184.897 116.985C183.802 116.379 182.883 116.915 182.778 118.283L182.044 127.881C181.934 129.365 182.83 131.251 184.053 132.1L201.049 143.869C202.19 144.661 203.243 144.271 203.523 143.014C203.4 142.956 203.272 142.886 203.138 142.793L186.148 131.018ZM162.214 73.7971C161.026 72.9066 160.089 70.9801 160.13 69.4958L160.403 58.8794C160.403 58.8794 160.403 58.8386 160.403 58.8212C159.274 58.0354 158.349 58.5185 158.308 59.9562L158.029 70.5726C157.994 72.0568 158.925 73.9834 160.118 74.8739L178.756 88.7615C179.902 89.6171 180.915 89.2038 181.084 87.8477C181.003 87.8011 180.927 87.7429 180.845 87.6847L162.208 73.7971H162.214Z" fill="white"/>
<path d="M213.587 92.958L129.91 28.5608C127.552 26.7448 123.559 26.4829 120.981 27.9671L54.6083 66.2888C53.3278 67.028 52.6933 67.9825 52.6875 68.9371H54.8411C54.8411 68.8789 55.0099 68.5413 55.6793 68.1572L122.058 29.8354C122.809 29.3989 123.821 29.1603 124.898 29.1603C126.313 29.1603 127.698 29.5735 128.594 30.2662L212.271 94.6634C212.807 95.0708 213.11 95.5481 213.092 95.9206H215.246C215.263 94.8846 214.716 93.8194 213.587 92.9522V92.958Z" fill="#999999"/>
<path opacity="0.7" d="M213.587 92.958L129.91 28.5608C127.552 26.7448 123.559 26.4829 120.981 27.9671L54.6083 66.2888C53.3278 67.028 52.6933 67.9825 52.6875 68.9371H54.8411C54.8411 68.8789 55.0099 68.5413 55.6793 68.1572L122.058 29.8354C122.809 29.3989 123.821 29.1603 124.898 29.1603C126.313 29.1603 127.698 29.5735 128.594 30.2662L212.271 94.6634C212.807 95.0708 213.11 95.5481 213.092 95.9206H215.246C215.263 94.8846 214.716 93.8194 213.587 92.9522V92.958Z" fill="white"/>
<path d="M154.962 127.217L54.6551 71.5914C53.4793 70.9396 52.839 70.1072 52.7168 69.24L58.0136 137.665C58.0136 137.665 58.0136 137.712 58.0136 137.735C58.1067 138.596 58.7877 139.429 60.0624 140.046L148.78 182.884C150.177 183.559 151.993 183.838 153.786 183.74L159.834 128.277C158.076 128.317 156.301 127.968 154.956 127.223L154.962 127.217ZM127.39 114.826L153.577 129.266C154.88 129.988 155.812 131.769 155.666 133.247L154.601 143.846C154.578 144.056 154.537 144.248 154.479 144.423C154.322 144.382 154.153 144.312 153.996 144.225L128.798 130.809C127.483 130.11 126.47 128.341 126.528 126.856L126.976 115.181C126.976 115 127.011 114.826 127.046 114.668C127.157 114.709 127.279 114.767 127.395 114.831L127.39 114.826ZM120.05 146.582L96.0222 134.359C94.6951 133.684 93.595 131.938 93.5659 130.453L93.2923 117.579C93.2923 117.398 93.304 117.224 93.3273 117.066C93.4088 117.101 93.4902 117.142 93.5776 117.183L118.577 130.413C119.893 131.105 120.917 132.881 120.87 134.365L120.492 146.157C120.492 146.367 120.457 146.559 120.405 146.739C120.288 146.704 120.166 146.646 120.044 146.588L120.05 146.582ZM153.786 151.855L152.715 162.443C152.692 162.67 152.645 162.873 152.575 163.054C152.412 163.013 152.249 162.943 152.081 162.862L128.053 150.645C126.726 149.969 125.702 148.217 125.76 146.733L126.208 135.063C126.208 134.865 126.243 134.679 126.289 134.516C126.406 134.551 126.528 134.609 126.65 134.673L151.679 147.915C153 148.607 153.937 150.371 153.792 151.849L153.786 151.855ZM93.0886 95.9034L119.241 110.332C120.544 111.048 121.563 112.835 121.511 114.319L121.132 126.111C121.132 126.303 121.097 126.49 121.063 126.653C120.946 126.618 120.824 126.56 120.707 126.496L95.5391 113.097C94.2236 112.404 93.1352 110.629 93.1061 109.145L92.8267 96.2584C92.8267 96.0896 92.8267 95.9383 92.8558 95.7928C92.9315 95.8277 93.0071 95.8626 93.0886 95.9034ZM88.0247 130.29L63.9972 118.068C62.6701 117.392 61.5118 115.646 61.4012 114.162L60.3767 100.071C60.3651 99.9078 60.3651 99.7565 60.3767 99.6168C60.4175 99.6343 60.4699 99.6517 60.5164 99.6808L85.5218 112.911C86.8373 113.603 87.9316 115.373 87.9723 116.857L88.3099 129.848C88.3099 130.046 88.2983 130.232 88.2691 130.395C88.1877 130.36 88.1062 130.325 88.0189 130.285L88.0247 130.29ZM58.8517 77.0219L84.9572 91.4158C86.261 92.1317 87.3495 93.9186 87.3844 95.4028L87.7337 108.411C87.7337 108.592 87.7337 108.755 87.6987 108.906C87.6231 108.877 87.5474 108.842 87.4659 108.801L62.3208 95.4145C61.0054 94.716 59.8529 92.9466 59.7481 91.4624L58.7237 77.3711C58.712 77.2256 58.712 77.0917 58.7237 76.9637C58.7644 76.9812 58.811 77.0044 58.8517 77.0277V77.0219ZM88.4962 148.706L65.4349 137.485C64.1019 136.833 62.9262 135.104 62.8156 133.626L62.0298 122.782C62.0181 122.602 62.0181 122.433 62.0414 122.276C62.088 122.293 62.1462 122.316 62.1986 122.346L86.0631 134.4C87.3902 135.069 88.502 136.815 88.5369 138.305L88.8047 148.235C88.8047 148.444 88.793 148.636 88.7523 148.817C88.665 148.788 88.5776 148.753 88.4962 148.712V148.706ZM119.485 163.787L96.4355 152.571C95.1026 151.919 93.9908 150.185 93.9617 148.701L93.7522 138.87C93.7522 138.672 93.7638 138.48 93.7929 138.317C93.8802 138.352 93.9734 138.393 94.0548 138.433L117.914 150.482C119.241 151.151 120.283 152.897 120.236 154.387L119.951 163.316C119.951 163.543 119.916 163.752 119.852 163.933C119.73 163.898 119.602 163.845 119.479 163.787H119.485ZM150.445 178.856L127.419 167.646C126.086 167 125.044 165.265 125.102 163.781L125.44 154.957C125.451 154.742 125.475 154.544 125.533 154.364C125.655 154.399 125.783 154.451 125.911 154.515L149.77 166.563C151.097 167.239 152.052 168.973 151.9 170.457L151.091 178.391C151.068 178.629 151.015 178.845 150.94 179.037C150.771 179.002 150.608 178.932 150.439 178.856H150.445Z" fill="#999999"/>
<path opacity="0.5" d="M154.962 127.217L54.6551 71.5914C53.4793 70.9396 52.839 70.1072 52.7168 69.24L58.0136 137.665C58.0136 137.665 58.0136 137.712 58.0136 137.735C58.1067 138.596 58.7877 139.429 60.0624 140.046L148.78 182.884C150.177 183.559 151.993 183.838 153.786 183.74L159.834 128.277C158.076 128.317 156.301 127.968 154.956 127.223L154.962 127.217ZM127.39 114.826L153.577 129.266C154.88 129.988 155.812 131.769 155.666 133.247L154.601 143.846C154.578 144.056 154.537 144.248 154.479 144.423C154.322 144.382 154.153 144.312 153.996 144.225L128.798 130.809C127.483 130.11 126.47 128.341 126.528 126.856L126.976 115.181C126.976 115 127.011 114.826 127.046 114.668C127.157 114.709 127.279 114.767 127.395 114.831L127.39 114.826ZM120.05 146.582L96.0222 134.359C94.6951 133.684 93.595 131.938 93.5659 130.453L93.2923 117.579C93.2923 117.398 93.304 117.224 93.3273 117.066C93.4088 117.101 93.4902 117.142 93.5776 117.183L118.577 130.413C119.893 131.105 120.917 132.881 120.87 134.365L120.492 146.157C120.492 146.367 120.457 146.559 120.405 146.739C120.288 146.704 120.166 146.646 120.044 146.588L120.05 146.582ZM153.786 151.855L152.715 162.443C152.692 162.67 152.645 162.873 152.575 163.054C152.412 163.013 152.249 162.943 152.081 162.862L128.053 150.645C126.726 149.969 125.702 148.217 125.76 146.733L126.208 135.063C126.208 134.865 126.243 134.679 126.289 134.516C126.406 134.551 126.528 134.609 126.65 134.673L151.679 147.915C153 148.607 153.937 150.371 153.792 151.849L153.786 151.855ZM93.0886 95.9034L119.241 110.332C120.544 111.048 121.563 112.835 121.511 114.319L121.132 126.111C121.132 126.303 121.097 126.49 121.063 126.653C120.946 126.618 120.824 126.56 120.707 126.496L95.5391 113.097C94.2236 112.404 93.1352 110.629 93.1061 109.145L92.8267 96.2584C92.8267 96.0896 92.8267 95.9383 92.8558 95.7928C92.9315 95.8277 93.0071 95.8626 93.0886 95.9034ZM88.0247 130.29L63.9972 118.068C62.6701 117.392 61.5118 115.646 61.4012 114.162L60.3767 100.071C60.3651 99.9078 60.3651 99.7565 60.3767 99.6168C60.4175 99.6343 60.4699 99.6517 60.5164 99.6808L85.5218 112.911C86.8373 113.603 87.9316 115.373 87.9723 116.857L88.3099 129.848C88.3099 130.046 88.2983 130.232 88.2691 130.395C88.1877 130.36 88.1062 130.325 88.0189 130.285L88.0247 130.29ZM58.8517 77.0219L84.9572 91.4158C86.261 92.1317 87.3495 93.9186 87.3844 95.4028L87.7337 108.411C87.7337 108.592 87.7337 108.755 87.6987 108.906C87.6231 108.877 87.5474 108.842 87.4659 108.801L62.3208 95.4145C61.0054 94.716 59.8529 92.9466 59.7481 91.4624L58.7237 77.3711C58.712 77.2256 58.712 77.0917 58.7237 76.9637C58.7644 76.9812 58.811 77.0044 58.8517 77.0277V77.0219ZM88.4962 148.706L65.4349 137.485C64.1019 136.833 62.9262 135.104 62.8156 133.626L62.0298 122.782C62.0181 122.602 62.0181 122.433 62.0414 122.276C62.088 122.293 62.1462 122.316 62.1986 122.346L86.0631 134.4C87.3902 135.069 88.502 136.815 88.5369 138.305L88.8047 148.235C88.8047 148.444 88.793 148.636 88.7523 148.817C88.665 148.788 88.5776 148.753 88.4962 148.712V148.706ZM119.485 163.787L96.4355 152.571C95.1026 151.919 93.9908 150.185 93.9617 148.701L93.7522 138.87C93.7522 138.672 93.7638 138.48 93.7929 138.317C93.8802 138.352 93.9734 138.393 94.0548 138.433L117.914 150.482C119.241 151.151 120.283 152.897 120.236 154.387L119.951 163.316C119.951 163.543 119.916 163.752 119.852 163.933C119.73 163.898 119.602 163.845 119.479 163.787H119.485ZM150.445 178.856L127.419 167.646C126.086 167 125.044 165.265 125.102 163.781L125.44 154.957C125.451 154.742 125.475 154.544 125.533 154.364C125.655 154.399 125.783 154.451 125.911 154.515L149.77 166.563C151.097 167.239 152.052 168.973 151.9 170.457L151.091 178.391C151.068 178.629 151.015 178.845 150.94 179.037C150.771 179.002 150.608 178.932 150.439 178.856H150.445Z" fill="white"/>
<path d="M150.445 178.862L127.418 167.652C126.086 167.006 125.044 165.271 125.102 163.787L125.439 154.963C125.451 154.748 125.474 154.55 125.533 154.369C124.374 153.985 123.455 154.655 123.402 155.993L123.065 164.823C123.012 166.307 124.042 168.036 125.387 168.688L148.408 179.898C149.531 180.439 150.567 180.055 150.951 179.042C150.782 179.007 150.619 178.938 150.451 178.862H150.445ZM153.995 144.219L128.798 130.803C127.482 130.104 126.47 128.335 126.528 126.851L126.976 115.175C126.976 114.994 127.011 114.82 127.046 114.663C125.905 114.226 124.991 114.86 124.933 116.211L124.485 127.887C124.427 129.365 125.445 131.14 126.755 131.839L151.952 145.255C153.076 145.854 154.112 145.47 154.478 144.417C154.321 144.376 154.153 144.306 153.995 144.219ZM152.086 162.867L128.059 150.65C126.732 149.975 125.707 148.223 125.765 146.739L126.214 135.069C126.214 134.871 126.248 134.685 126.295 134.522C125.143 134.109 124.229 134.766 124.176 136.111L123.728 147.775C123.67 149.259 124.694 151.011 126.021 151.686L150.055 163.903C151.178 164.474 152.208 164.09 152.587 163.059C152.424 163.019 152.261 162.949 152.092 162.867H152.086ZM120.061 146.582L96.0336 134.359C94.7065 133.684 93.6064 131.938 93.5773 130.453L93.3038 117.579C93.3038 117.398 93.3154 117.224 93.3387 117.066C92.1455 116.577 91.2316 117.229 91.2607 118.615L91.5343 131.489C91.5692 132.974 92.6635 134.726 93.9906 135.395L118.018 147.618C119.153 148.194 120.131 147.798 120.422 146.727C120.306 146.692 120.183 146.634 120.061 146.576V146.582ZM120.725 126.501L95.5564 113.103C94.2409 112.41 93.1524 110.635 93.1233 109.151L92.8439 96.2641C92.8439 96.0953 92.8439 95.944 92.873 95.7985C91.6856 95.2747 90.7718 95.9091 90.8067 97.306L91.0861 110.187C91.121 111.671 92.2095 113.446 93.5191 114.145L118.693 127.543C119.828 128.154 120.812 127.747 121.086 126.658C120.969 126.624 120.847 126.565 120.731 126.501H120.725ZM88.0361 130.296L64.0086 118.073C62.6815 117.398 61.5232 115.652 61.4126 114.168L60.3882 100.077C60.3765 99.9136 60.3765 99.7622 60.3882 99.6225C59.1425 99.0405 58.2462 99.6866 58.3451 101.113L59.3696 115.204C59.4743 116.682 60.6384 118.434 61.9655 119.109L85.9931 131.326C87.1397 131.914 88.0769 131.495 88.2806 130.407C88.1991 130.372 88.1176 130.337 88.0303 130.296H88.0361ZM119.491 163.793L96.4411 152.577C95.1082 151.925 93.9964 150.19 93.9673 148.706L93.7578 138.876C93.7578 138.678 93.7694 138.486 93.7985 138.323C92.5995 137.857 91.6856 138.526 91.7147 139.917L91.9243 149.748C91.9592 151.232 93.0651 152.967 94.398 153.619L117.448 164.835C118.577 165.388 119.561 164.986 119.857 163.938C119.735 163.903 119.607 163.851 119.485 163.793H119.491ZM87.4773 108.807L62.3322 95.4202C61.0168 94.7217 59.8643 92.9523 59.7595 91.4681L58.7351 77.3768C58.7235 77.2313 58.7235 77.0975 58.7351 76.9694C57.4953 76.3583 56.5989 76.9811 56.6979 78.4187L57.7223 92.51C57.8329 93.9942 58.9796 95.7636 60.295 96.462L85.4401 109.849C86.5984 110.46 87.5355 110.041 87.7102 108.918C87.6345 108.889 87.5588 108.854 87.4773 108.813V108.807ZM88.5018 148.712L65.4405 137.49C64.1075 136.838 62.9318 135.11 62.8212 133.631L62.0354 122.788C62.0238 122.607 62.0238 122.439 62.047 122.281C60.8014 121.74 59.8934 122.398 59.9982 123.824L60.7898 134.673C60.9004 136.152 62.0645 137.88 63.4032 138.532L86.4645 149.754C87.617 150.313 88.5541 149.894 88.7637 148.823C88.6764 148.794 88.5891 148.759 88.5076 148.718L88.5018 148.712Z" fill="#999999"/>
<path opacity="0.2" d="M150.445 178.862L127.418 167.652C126.086 167.006 125.044 165.271 125.102 163.787L125.439 154.963C125.451 154.748 125.474 154.55 125.533 154.369C124.374 153.985 123.455 154.655 123.402 155.993L123.065 164.823C123.012 166.307 124.042 168.036 125.387 168.688L148.408 179.898C149.531 180.439 150.567 180.055 150.951 179.042C150.782 179.007 150.619 178.938 150.451 178.862H150.445ZM153.995 144.219L128.798 130.803C127.482 130.104 126.47 128.335 126.528 126.851L126.976 115.175C126.976 114.994 127.011 114.82 127.046 114.663C125.905 114.226 124.991 114.86 124.933 116.211L124.485 127.887C124.427 129.365 125.445 131.14 126.755 131.839L151.952 145.255C153.076 145.854 154.112 145.47 154.478 144.417C154.321 144.376 154.153 144.306 153.995 144.219ZM152.086 162.867L128.059 150.65C126.732 149.975 125.707 148.223 125.765 146.739L126.214 135.069C126.214 134.871 126.248 134.685 126.295 134.522C125.143 134.109 124.229 134.766 124.176 136.111L123.728 147.775C123.67 149.259 124.694 151.011 126.021 151.686L150.055 163.903C151.178 164.474 152.208 164.09 152.587 163.059C152.424 163.019 152.261 162.949 152.092 162.867H152.086ZM120.061 146.582L96.0336 134.359C94.7065 133.684 93.6064 131.938 93.5773 130.453L93.3038 117.579C93.3038 117.398 93.3154 117.224 93.3387 117.066C92.1455 116.577 91.2316 117.229 91.2607 118.615L91.5343 131.489C91.5692 132.974 92.6635 134.726 93.9906 135.395L118.018 147.618C119.153 148.194 120.131 147.798 120.422 146.727C120.306 146.692 120.183 146.634 120.061 146.576V146.582ZM120.725 126.501L95.5564 113.103C94.2409 112.41 93.1524 110.635 93.1233 109.151L92.8439 96.2641C92.8439 96.0953 92.8439 95.944 92.873 95.7985C91.6856 95.2747 90.7718 95.9091 90.8067 97.306L91.0861 110.187C91.121 111.671 92.2095 113.446 93.5191 114.145L118.693 127.543C119.828 128.154 120.812 127.747 121.086 126.658C120.969 126.624 120.847 126.565 120.731 126.501H120.725ZM88.0361 130.296L64.0086 118.073C62.6815 117.398 61.5232 115.652 61.4126 114.168L60.3882 100.077C60.3765 99.9136 60.3765 99.7622 60.3882 99.6225C59.1425 99.0405 58.2462 99.6866 58.3451 101.113L59.3696 115.204C59.4743 116.682 60.6384 118.434 61.9655 119.109L85.9931 131.326C87.1397 131.914 88.0769 131.495 88.2806 130.407C88.1991 130.372 88.1176 130.337 88.0303 130.296H88.0361ZM119.491 163.793L96.4411 152.577C95.1082 151.925 93.9964 150.19 93.9673 148.706L93.7578 138.876C93.7578 138.678 93.7694 138.486 93.7985 138.323C92.5995 137.857 91.6856 138.526 91.7147 139.917L91.9243 149.748C91.9592 151.232 93.0651 152.967 94.398 153.619L117.448 164.835C118.577 165.388 119.561 164.986 119.857 163.938C119.735 163.903 119.607 163.851 119.485 163.793H119.491ZM87.4773 108.807L62.3322 95.4202C61.0168 94.7217 59.8643 92.9523 59.7595 91.4681L58.7351 77.3768C58.7235 77.2313 58.7235 77.0975 58.7351 76.9694C57.4953 76.3583 56.5989 76.9811 56.6979 78.4187L57.7223 92.51C57.8329 93.9942 58.9796 95.7636 60.295 96.462L85.4401 109.849C86.5984 110.46 87.5355 110.041 87.7102 108.918C87.6345 108.889 87.5588 108.854 87.4773 108.813V108.807ZM88.5018 148.712L65.4405 137.49C64.1075 136.838 62.9318 135.11 62.8212 133.631L62.0354 122.788C62.0238 122.607 62.0238 122.439 62.047 122.281C60.8014 121.74 59.8934 122.398 59.9982 123.824L60.7898 134.673C60.9004 136.152 62.0645 137.88 63.4032 138.532L86.4645 149.754C87.617 150.313 88.5541 149.894 88.7637 148.823C88.6764 148.794 88.5891 148.759 88.5076 148.718L88.5018 148.712Z" fill="white"/>
<path d="M213.197 98.93L164.333 127.142C163.088 127.858 161.475 128.242 159.84 128.277L153.792 183.739C155.439 183.652 157.063 183.251 158.297 182.535L206.474 154.719C207.662 154.032 208.32 153.112 208.448 152.164L208.465 152.024L215.182 96.4563C214.996 97.3992 214.326 98.2839 213.191 98.9358L213.197 98.93ZM207.167 122.77L205.892 133.364C205.712 134.836 204.53 136.635 203.244 137.38L185.712 147.501C185.526 147.612 185.346 147.682 185.177 147.74C185.159 147.571 185.159 147.391 185.177 147.199L186.294 136.798C186.451 135.319 187.621 133.515 188.914 132.77L206.667 122.479C206.847 122.375 207.01 122.299 207.173 122.247C207.185 122.41 207.173 122.578 207.155 122.776L207.167 122.77ZM181.446 137.647L180.299 148.124C180.136 149.603 178.966 151.401 177.68 152.146L159.892 162.413C159.712 162.518 159.537 162.594 159.368 162.652C159.351 162.483 159.351 162.309 159.368 162.117L160.515 151.634C160.684 150.156 161.854 148.357 163.14 147.612L180.916 137.345C181.097 137.234 181.277 137.164 181.446 137.112C181.463 137.281 181.463 137.455 181.446 137.647ZM209.402 104.186L208.133 114.773C207.953 116.246 206.765 118.044 205.479 118.795L187.685 129.068C187.505 129.173 187.336 129.249 187.173 129.301C187.162 129.138 187.173 128.963 187.191 128.766L188.465 118.178C188.646 116.7 189.827 114.901 191.114 114.156L208.913 103.883C209.094 103.778 209.257 103.703 209.42 103.65C209.431 103.813 209.42 103.988 209.402 104.186ZM183.652 119.045L182.354 129.662C182.173 131.134 180.98 132.933 179.694 133.678L161.918 143.945C161.737 144.056 161.557 144.126 161.388 144.178C161.37 144.009 161.37 143.835 161.388 143.643L162.54 133.16C162.703 131.687 163.879 129.883 165.165 129.138L183.157 118.754C183.332 118.65 183.5 118.574 183.658 118.527C183.669 118.69 183.658 118.859 183.64 119.051L183.652 119.045ZM157.634 177.948L158.495 170.102C158.658 168.63 159.828 166.825 161.114 166.08L178.937 155.79C179.123 155.679 179.31 155.598 179.478 155.545C179.502 155.714 179.502 155.889 179.478 156.087L178.698 163.857C178.547 165.329 177.383 167.134 176.097 167.879L158.146 178.239C157.965 178.35 157.785 178.42 157.616 178.478C157.599 178.309 157.599 178.134 157.616 177.942L157.634 177.948ZM183.372 163.071L184.211 155.26C184.368 153.782 185.538 151.983 186.83 151.238L204.437 141.07C204.618 140.965 204.786 140.889 204.949 140.837C204.961 141 204.949 141.175 204.932 141.373L203.972 149.306C203.791 150.778 202.61 152.577 201.323 153.322L183.896 163.374C183.71 163.479 183.53 163.56 183.361 163.618C183.343 163.449 183.343 163.275 183.361 163.077L183.372 163.071Z" fill="#999999"/>
<path opacity="0.3" d="M213.197 98.93L164.333 127.142C163.088 127.858 161.475 128.242 159.84 128.277L153.792 183.739C155.439 183.652 157.063 183.251 158.297 182.535L206.474 154.719C207.662 154.032 208.32 153.112 208.448 152.164L208.465 152.024L215.182 96.4563C214.996 97.3992 214.326 98.2839 213.191 98.9358L213.197 98.93ZM207.167 122.77L205.892 133.364C205.712 134.836 204.53 136.635 203.244 137.38L185.712 147.501C185.526 147.612 185.346 147.682 185.177 147.74C185.159 147.571 185.159 147.391 185.177 147.199L186.294 136.798C186.451 135.319 187.621 133.515 188.914 132.77L206.667 122.479C206.847 122.375 207.01 122.299 207.173 122.247C207.185 122.41 207.173 122.578 207.155 122.776L207.167 122.77ZM181.446 137.647L180.299 148.124C180.136 149.603 178.966 151.401 177.68 152.146L159.892 162.413C159.712 162.518 159.537 162.594 159.368 162.652C159.351 162.483 159.351 162.309 159.368 162.117L160.515 151.634C160.684 150.156 161.854 148.357 163.14 147.612L180.916 137.345C181.097 137.234 181.277 137.164 181.446 137.112C181.463 137.281 181.463 137.455 181.446 137.647ZM209.402 104.186L208.133 114.773C207.953 116.246 206.765 118.044 205.479 118.795L187.685 129.068C187.505 129.173 187.336 129.249 187.173 129.301C187.162 129.138 187.173 128.963 187.191 128.766L188.465 118.178C188.646 116.7 189.827 114.901 191.114 114.156L208.913 103.883C209.094 103.778 209.257 103.703 209.42 103.65C209.431 103.813 209.42 103.988 209.402 104.186ZM183.652 119.045L182.354 129.662C182.173 131.134 180.98 132.933 179.694 133.678L161.918 143.945C161.737 144.056 161.557 144.126 161.388 144.178C161.37 144.009 161.37 143.835 161.388 143.643L162.54 133.16C162.703 131.687 163.879 129.883 165.165 129.138L183.157 118.754C183.332 118.65 183.5 118.574 183.658 118.527C183.669 118.69 183.658 118.859 183.64 119.051L183.652 119.045ZM157.634 177.948L158.495 170.102C158.658 168.63 159.828 166.825 161.114 166.08L178.937 155.79C179.123 155.679 179.31 155.598 179.478 155.545C179.502 155.714 179.502 155.889 179.478 156.087L178.698 163.857C178.547 165.329 177.383 167.134 176.097 167.879L158.146 178.239C157.965 178.35 157.785 178.42 157.616 178.478C157.599 178.309 157.599 178.134 157.616 177.942L157.634 177.948ZM183.372 163.071L184.211 155.26C184.368 153.782 185.538 151.983 186.83 151.238L204.437 141.07C204.618 140.965 204.786 140.889 204.949 140.837C204.961 141 204.949 141.175 204.932 141.373L203.972 149.306C203.791 150.778 202.61 152.577 201.323 153.322L183.896 163.374C183.71 163.479 183.53 163.56 183.361 163.618C183.343 163.449 183.343 163.275 183.361 163.077L183.372 163.071Z" fill="white"/>
<path d="M183.663 118.516C183.675 118.679 183.663 118.848 183.646 119.04L182.348 129.656C182.168 131.129 180.974 132.927 179.688 133.672L161.912 143.939C161.731 144.05 161.551 144.12 161.382 144.172C161.475 145.249 162.308 145.61 163.425 144.964L181.201 134.702C182.488 133.957 183.675 132.159 183.861 130.686L185.159 120.07C185.317 118.795 184.665 118.178 183.658 118.522L183.663 118.516ZM209.414 103.645C209.426 103.808 209.414 103.982 209.396 104.18L208.128 114.767C207.947 116.24 206.76 118.038 205.473 118.789L187.68 129.062C187.499 129.167 187.33 129.243 187.167 129.295C187.249 130.372 188.07 130.733 189.199 130.087L206.993 119.814C208.279 119.069 209.466 117.27 209.641 115.798L210.916 105.204C211.067 103.936 210.421 103.313 209.414 103.65V103.645ZM181.446 137.1C181.463 137.269 181.463 137.444 181.446 137.636L180.299 148.113C180.136 149.591 178.966 151.39 177.68 152.135L159.892 162.402C159.712 162.507 159.537 162.582 159.368 162.64C159.461 163.711 160.294 164.078 161.411 163.432L179.193 153.165C180.48 152.42 181.661 150.621 181.818 149.143L182.965 138.66C183.105 137.397 182.453 136.774 181.452 137.1H181.446ZM207.179 122.235C207.19 122.398 207.179 122.567 207.161 122.765L205.887 133.358C205.706 134.83 204.525 136.629 203.238 137.374L185.707 147.496C185.52 147.606 185.34 147.676 185.171 147.734C185.264 148.805 186.102 149.172 187.214 148.526L204.746 138.404C206.032 137.659 207.22 135.861 207.4 134.382L208.675 123.795C208.826 122.526 208.18 121.903 207.173 122.241L207.179 122.235ZM179.478 155.54C179.502 155.708 179.502 155.883 179.478 156.081L178.699 163.851C178.547 165.324 177.383 167.128 176.097 167.873L158.146 178.233C157.965 178.344 157.785 178.414 157.616 178.472C157.709 179.543 158.542 179.91 159.659 179.264L177.61 168.903C178.896 168.158 180.061 166.36 180.212 164.875L180.992 157.111C181.12 155.854 180.468 155.225 179.473 155.54H179.478ZM204.944 140.825C204.955 140.988 204.944 141.163 204.926 141.361L203.966 149.294C203.785 150.767 202.604 152.565 201.317 153.31L183.89 163.362C183.704 163.467 183.524 163.548 183.355 163.607C183.454 164.672 184.286 165.038 185.398 164.392L202.825 154.34C204.111 153.595 205.299 151.797 205.479 150.324L206.434 142.391C206.585 141.116 205.945 140.5 204.938 140.831L204.944 140.825Z" fill="#999999"/>
<path d="M213.092 95.9266C213.063 96.3049 212.702 96.7298 212.12 97.0674L163.256 125.279C162.319 125.82 160.969 126.129 159.554 126.129C158.14 126.129 156.912 125.844 156.004 125.343L55.6968 69.7056C55.0216 69.333 54.8528 69.0013 54.847 68.9373H52.6934C52.6934 69.9034 53.3453 70.8638 54.6549 71.5914L154.962 127.217C157.563 128.661 161.76 128.626 164.333 127.136L213.197 98.9241C214.542 98.15 215.228 97.0499 215.246 95.9208H213.092V95.9266Z" fill="#999999"/>
<path opacity="0.7" d="M213.092 95.9266C213.063 96.3049 212.702 96.7298 212.12 97.0674L163.256 125.279C162.319 125.82 160.969 126.129 159.554 126.129C158.14 126.129 156.912 125.844 156.004 125.343L55.6968 69.7056C55.0216 69.333 54.8528 69.0013 54.847 68.9373H52.6934C52.6934 69.9034 53.3453 70.8638 54.6549 71.5914L154.962 127.217C157.563 128.661 161.76 128.626 164.333 127.136L213.197 98.9241C214.542 98.15 215.228 97.0499 215.246 95.9208H213.092V95.9266Z" fill="white"/>
<path d="M39.1961 98.4176L34.528 97.8996C34.0798 97.853 33.7189 97.4863 33.6782 97.0323L33.1427 91.078C33.131 90.915 32.9913 90.7928 32.8284 90.7928C32.6654 90.7928 32.5257 90.915 32.514 91.078L31.9785 97.0381C31.9378 97.4863 31.5827 97.853 31.1287 97.8996L26.4606 98.4176C26.3034 98.435 26.1812 98.5689 26.1812 98.7319C26.1812 98.8949 26.3034 99.0287 26.4606 99.0462L31.1287 99.5642C31.5769 99.6108 31.9378 99.9775 31.9785 100.426L32.514 106.38C32.5257 106.543 32.6654 106.665 32.8284 106.665C32.9913 106.665 33.131 106.543 33.1427 106.38L33.6782 100.42C33.7189 99.9716 34.074 99.605 34.528 99.5584L39.1961 99.0404C39.3533 99.0229 39.4755 98.889 39.4755 98.7261C39.4755 98.5631 39.3533 98.4292 39.1961 98.4118V98.4176ZM34.4581 98.9356C33.7131 99.0171 33.1194 99.6224 33.0495 100.373L32.8284 102.841L32.6072 100.373C32.5373 99.6224 31.9494 99.0171 31.1986 98.9356L29.3709 98.7319L31.1986 98.5282C31.9436 98.4467 32.5373 97.8414 32.6072 97.0905L32.8284 94.6227L33.0495 97.0905C33.1194 97.8414 33.7073 98.4467 34.4581 98.5282L36.2858 98.7319L34.4581 98.9356ZM195.812 34.3579L189.118 33.6187C188.408 33.5431 187.843 32.9668 187.779 32.2509L187.011 23.7124C186.993 23.5552 186.865 23.433 186.702 23.433C186.539 23.433 186.411 23.5552 186.394 23.7124L185.625 32.2509C185.561 32.9668 184.997 33.5431 184.287 33.6187L177.599 34.3579C177.442 34.3754 177.325 34.5093 177.325 34.6664C177.325 34.8236 177.442 34.9574 177.599 34.9749L184.287 35.7141C184.997 35.7956 185.561 36.3718 185.625 37.0819L186.394 45.6205C186.405 45.7776 186.539 45.8998 186.702 45.8998C186.865 45.8998 186.993 45.7776 187.011 45.6205L187.779 37.0819C187.843 36.366 188.408 35.7897 189.118 35.7141L195.812 34.9749C195.969 34.9574 196.085 34.8236 196.085 34.6664C196.085 34.5093 195.969 34.3754 195.812 34.3579ZM189.054 35.0971C188.053 35.2077 187.255 36.0167 187.168 37.0237L186.708 42.1515L186.248 37.0237C186.155 36.0167 185.364 35.2077 184.362 35.0971L180.445 34.6664L184.362 34.2357C185.364 34.1251 186.161 33.3161 186.248 32.3091L186.708 27.1813L187.168 32.3091C187.261 33.3161 188.053 34.1251 189.054 34.2357L192.971 34.6664L189.054 35.0971ZM9.57497 52.1044L12.5493 52.4362C12.8345 52.4653 13.0615 52.6981 13.0906 52.9891L13.434 56.7899C13.4457 56.8946 13.533 56.9761 13.6319 56.9761C13.7309 56.9761 13.824 56.8946 13.8298 56.7899L14.1733 52.9891C14.1965 52.7039 14.4235 52.4711 14.7146 52.4362L17.6947 52.1044C17.7995 52.0928 17.8752 52.0055 17.8752 51.9065C17.8752 51.8076 17.7995 51.7203 17.6947 51.7086L14.7146 51.3769C14.4294 51.3478 14.2024 51.1149 14.1733 50.8239L13.8298 47.0232C13.8182 46.9184 13.7309 46.8369 13.6319 46.8369C13.533 46.8369 13.4399 46.9184 13.434 47.0232L13.0906 50.8239C13.0615 51.1091 12.8403 51.3419 12.5493 51.3769L9.57497 51.7086C9.4702 51.7203 9.39453 51.8076 9.39453 51.9065C9.39453 52.0055 9.4702 52.0928 9.57497 52.1044ZM12.5959 51.7726C13.0732 51.7203 13.4515 51.3361 13.4922 50.8588L13.6319 49.2873L13.7716 50.8588C13.8124 51.3361 14.1907 51.7203 14.668 51.7726L15.8321 51.9007L14.668 52.0287C14.1907 52.0811 13.8124 52.4653 13.7716 52.9426L13.6319 54.5141L13.4922 52.9426C13.4515 52.4653 13.0732 52.0811 12.5959 52.0287L11.4317 51.9007L12.5959 51.7726ZM64.0502 8.59088L67.0245 8.92264C67.3097 8.95174 67.5367 9.18456 67.5658 9.47558L67.9092 13.2763C67.9209 13.3811 68.0082 13.4626 68.1071 13.4626C68.2061 13.4626 68.2992 13.3811 68.305 13.2763L68.6485 9.47558C68.6717 9.19038 68.8987 8.95757 69.1898 8.92264L72.1699 8.59088C72.2747 8.57924 72.3504 8.49193 72.3504 8.39298C72.3504 8.29404 72.2747 8.20673 72.1699 8.19509L69.1898 7.86332C68.9046 7.83422 68.6776 7.6014 68.6485 7.31038L68.305 3.50964C68.2934 3.40487 68.2061 3.32339 68.1071 3.32339C68.0082 3.32339 67.9151 3.40487 67.9092 3.50964L67.5658 7.31038C67.5367 7.59558 67.3155 7.8284 67.0245 7.86332L64.0502 8.19509C63.9454 8.20673 63.8697 8.29404 63.8697 8.39298C63.8697 8.49193 63.9454 8.57924 64.0502 8.59088ZM67.0711 8.25911C67.5484 8.20673 67.9267 7.82258 67.9674 7.34531L68.1071 5.77379L68.2468 7.34531C68.2876 7.82258 68.6659 8.20673 69.1432 8.25911L70.3073 8.38716L69.1432 8.51521C68.6659 8.5676 68.2876 8.95175 68.2468 9.42902L68.1071 11.0005L67.9674 9.42902C67.9267 8.95175 67.5484 8.5676 67.0711 8.51521L65.9069 8.38716L67.0711 8.25911ZM21.0707 61.6674L24.045 61.9991C24.3302 62.0282 24.5573 62.2611 24.5864 62.5521L24.9298 66.3528C24.9414 66.4576 25.0287 66.5391 25.1277 66.5391C25.2266 66.5391 25.3198 66.4576 25.3256 66.3528L25.669 62.5521C25.6923 62.2669 25.9193 62.0341 26.2103 61.9991L29.1905 61.6674C29.2952 61.6557 29.3709 61.5684 29.3709 61.4695C29.3709 61.3705 29.2952 61.2832 29.1905 61.2716L26.2103 60.9398C25.9251 60.9107 25.6981 60.6779 25.669 60.3869L25.3256 56.5861C25.3139 56.4814 25.2266 56.3999 25.1277 56.3999C25.0287 56.3999 24.9356 56.4814 24.9298 56.5861L24.5864 60.3869C24.5573 60.6721 24.3361 60.9049 24.045 60.9398L21.0707 61.2716C20.9659 61.2832 20.8903 61.3705 20.8903 61.4695C20.8903 61.5684 20.9659 61.6557 21.0707 61.6674ZM24.0916 61.3356C24.5689 61.2832 24.9472 60.8991 24.988 60.4218L25.1277 58.8503L25.2674 60.4218C25.3081 60.8991 25.6865 61.2832 26.1637 61.3356L27.3279 61.4637L26.1637 61.5917C25.6865 61.6441 25.3081 62.0282 25.2674 62.5055L25.1277 64.077L24.988 62.5055C24.9472 62.0282 24.5689 61.6441 24.0916 61.5917L22.9275 61.4637L24.0916 61.3356ZM222.831 62.2494L226.003 62.5987C226.312 62.6336 226.55 62.878 226.579 63.1865L226.946 67.2317C226.958 67.3423 227.051 67.4296 227.161 67.4296C227.272 67.4296 227.365 67.3481 227.377 67.2317L227.743 63.1807C227.773 62.8722 228.011 62.6278 228.32 62.5928L231.492 62.2436C231.603 62.232 231.684 62.1388 231.684 62.0282C231.684 61.9177 231.603 61.8245 231.492 61.8129L228.32 61.4637C228.011 61.4287 227.773 61.1843 227.743 60.8758L227.377 56.8306C227.365 56.72 227.272 56.6327 227.161 56.6327C227.051 56.6327 226.958 56.7142 226.946 56.8306L226.579 60.8816C226.55 61.1901 226.312 61.4346 226.003 61.4695L222.831 61.8187C222.72 61.8304 222.639 61.9235 222.639 62.0341C222.639 62.1447 222.72 62.2378 222.831 62.2494ZM226.05 61.9002C226.556 61.842 226.958 61.4346 227.004 60.9224L227.156 59.2461L227.307 60.9224C227.354 61.4346 227.755 61.842 228.262 61.9002L229.501 62.0399L228.262 62.1796C227.755 62.2378 227.354 62.6452 227.307 63.1574L227.156 64.8337L227.004 63.1574C226.958 62.6452 226.556 62.2378 226.05 62.1796L224.81 62.0399L226.05 61.9002ZM152.762 15.5114L155.521 15.814C155.789 15.8431 155.999 16.0585 156.022 16.3262L156.342 19.8476C156.354 19.9465 156.429 20.0164 156.528 20.0164C156.627 20.0164 156.703 19.9407 156.714 19.8476L157.035 16.3262C157.058 16.0585 157.267 15.8431 157.535 15.814L160.294 15.5114C160.387 15.4997 160.463 15.4182 160.463 15.3251C160.463 15.232 160.393 15.1505 160.294 15.1389L157.535 14.8362C157.267 14.8071 157.058 14.5917 157.035 14.324L156.714 10.8026C156.703 10.7037 156.627 10.6338 156.528 10.6338C156.429 10.6338 156.354 10.7095 156.342 10.8026L156.022 14.324C155.999 14.5917 155.789 14.8071 155.521 14.8362L152.762 15.1389C152.669 15.1505 152.593 15.232 152.593 15.3251C152.593 15.4182 152.663 15.4997 152.762 15.5114ZM155.562 15.2087C156.004 15.1621 156.354 14.8013 156.394 14.3589L156.528 12.9038L156.662 14.3589C156.703 14.8013 157.052 15.1563 157.494 15.2087L158.577 15.3251L157.494 15.4473C157.052 15.4939 156.703 15.8548 156.662 16.2971L156.528 17.7522L156.394 16.2971C156.354 15.8548 156.004 15.4997 155.562 15.4473L154.479 15.3251L155.562 15.2087ZM206.638 13.8409L209.874 14.2018C210.188 14.2367 210.433 14.487 210.462 14.8013L210.835 18.9338C210.846 19.0444 210.939 19.1317 211.056 19.1317C211.172 19.1317 211.265 19.0444 211.277 18.9338L211.649 14.8013C211.679 14.487 211.923 14.2367 212.237 14.2018L215.474 13.8409C215.584 13.8293 215.672 13.7361 215.672 13.6256C215.672 13.515 215.59 13.4218 215.474 13.4102L212.237 13.0551C211.923 13.0202 211.679 12.7699 211.649 12.4556L211.277 8.32314C211.265 8.21255 211.172 8.12524 211.056 8.12524C210.939 8.12524 210.846 8.21255 210.835 8.32314L210.462 12.4556C210.433 12.7699 210.188 13.0202 209.874 13.0551L206.638 13.4102C206.527 13.4218 206.44 13.515 206.44 13.6256C206.44 13.7361 206.522 13.8293 206.638 13.8409ZM209.927 13.48C210.445 13.4218 210.852 13.0028 210.904 12.4847L211.056 10.7735L211.207 12.4847C211.254 13.0028 211.667 13.4218 212.185 13.48L213.454 13.6197L212.185 13.7594C211.667 13.8176 211.254 14.2367 211.207 14.7547L211.056 16.4659L210.904 14.7547C210.858 14.2367 210.445 13.8176 209.927 13.7594L208.658 13.6197L209.927 13.48ZM260.077 115.215L257.557 114.936C257.312 114.913 257.12 114.715 257.103 114.47L256.812 111.257C256.806 111.17 256.73 111.1 256.643 111.1C256.556 111.1 256.48 111.17 256.474 111.257L256.183 114.47C256.16 114.715 255.968 114.907 255.723 114.936L253.209 115.215C253.121 115.227 253.057 115.297 253.057 115.384C253.057 115.471 253.121 115.541 253.209 115.553L255.723 115.832C255.968 115.861 256.16 116.053 256.183 116.298L256.474 119.511C256.48 119.598 256.556 119.668 256.643 119.668C256.73 119.668 256.806 119.598 256.812 119.511L257.103 116.298C257.126 116.053 257.318 115.861 257.557 115.832L260.077 115.553C260.164 115.541 260.228 115.471 260.228 115.384C260.228 115.297 260.164 115.227 260.077 115.215ZM257.522 115.495C257.12 115.541 256.8 115.867 256.765 116.269L256.643 117.596L256.521 116.269C256.486 115.861 256.166 115.541 255.764 115.495L254.78 115.384L255.764 115.274C256.166 115.227 256.486 114.901 256.521 114.499L256.643 113.172L256.765 114.499C256.8 114.907 257.12 115.227 257.522 115.274L258.505 115.384L257.522 115.495ZM17.7006 113.766L14.7204 113.434C14.4352 113.405 14.2082 113.172 14.1791 112.881L13.8357 109.081C13.824 108.976 13.7367 108.894 13.6378 108.894C13.5388 108.894 13.4457 108.976 13.4399 109.081L13.0964 112.881C13.0673 113.167 12.8462 113.399 12.5551 113.434L9.58079 113.766C9.47602 113.778 9.40035 113.865 9.40035 113.964C9.40035 114.063 9.47602 114.15 9.58079 114.162L12.5551 114.494C12.8403 114.523 13.0673 114.756 13.0964 115.047L13.4399 118.847C13.4515 118.952 13.533 119.034 13.6378 119.034C13.7425 119.034 13.8298 118.952 13.8357 118.847L14.1791 115.047C14.2024 114.761 14.4294 114.529 14.7204 114.494L17.7006 114.162C17.8053 114.15 17.881 114.063 17.881 113.964C17.881 113.865 17.8053 113.778 17.7006 113.766ZM14.6797 114.098C14.2024 114.15 13.824 114.534 13.7833 115.012L13.6436 116.583L13.5039 115.012C13.4631 114.534 13.0848 114.15 12.6075 114.098L11.4434 113.97L12.6075 113.842C13.0848 113.789 13.4631 113.405 13.5039 112.928L13.6436 111.356L13.7833 112.928C13.824 113.405 14.2024 113.789 14.6797 113.842L15.8438 113.97L14.6797 114.098ZM246.073 96.3222L241.41 95.81C240.962 95.7576 240.607 95.3968 240.566 94.9486L240.031 89.0001C240.013 88.8372 239.88 88.7149 239.717 88.7149C239.554 88.7149 239.42 88.8372 239.402 89.0001L238.867 94.9486C238.826 95.3968 238.471 95.7635 238.023 95.81L233.36 96.3222C233.203 96.3397 233.081 96.4736 233.081 96.6365C233.081 96.7995 233.203 96.9334 233.36 96.9508L238.023 97.4689C238.471 97.5212 238.826 97.8821 238.867 98.3303L239.402 104.279C239.42 104.442 239.554 104.564 239.717 104.564C239.88 104.564 240.013 104.442 240.031 104.279L240.566 98.3303C240.607 97.8821 240.962 97.5154 241.41 97.4689L246.073 96.9508C246.23 96.9334 246.352 96.7995 246.352 96.6365C246.352 96.4736 246.23 96.3397 246.073 96.3222ZM241.34 96.8402C240.595 96.9217 240.002 97.5271 239.938 98.2721L239.717 100.734L239.495 98.2721C239.425 97.5271 238.838 96.9217 238.093 96.8402L236.265 96.6365L238.093 96.4328C238.838 96.3513 239.431 95.746 239.495 95.001L239.717 92.539L239.938 95.001C240.008 95.746 240.595 96.3513 241.34 96.4328L243.162 96.6365L241.34 96.8402ZM27.939 4.85998L24.9589 4.52822C24.6737 4.49911 24.4467 4.2663 24.4176 3.97528L24.0741 0.174535C24.0625 0.0697673 23.9752 -0.0117188 23.8762 -0.0117188C23.7773 -0.0117188 23.6842 0.0697673 23.6783 0.174535L23.3349 3.97528C23.3058 4.26048 23.0846 4.49329 22.7936 4.52822L19.8193 4.85998C19.7145 4.87162 19.6388 4.95893 19.6388 5.05788C19.6388 5.15682 19.7145 5.24413 19.8193 5.25577L22.7936 5.58754C23.0788 5.61664 23.3058 5.84946 23.3349 6.14048L23.6783 9.94122C23.69 10.046 23.7715 10.1217 23.8762 10.1217C23.981 10.1217 24.0683 10.0402 24.0741 9.94122L24.4176 6.14048C24.4408 5.85528 24.6678 5.62246 24.9589 5.58754L27.939 5.25577C28.0438 5.24413 28.1195 5.15682 28.1195 5.05788C28.1195 4.95893 28.0438 4.87162 27.939 4.85998ZM24.9181 5.19175C24.4408 5.24413 24.0625 5.62828 24.0218 6.10555L23.8821 7.67707L23.7424 6.10555C23.7016 5.62828 23.3233 5.24413 22.846 5.19175L21.6819 5.0637L22.846 4.93565C23.3233 4.88326 23.7016 4.49911 23.7424 4.02184L23.8821 2.45032L24.0218 4.02184C24.0625 4.49911 24.4408 4.88326 24.9181 4.93565L26.0823 5.0637L24.9181 5.19175ZM259.396 45.4633L252.9 44.7474C252.208 44.6717 251.66 44.113 251.596 43.4203L250.851 35.1379C250.84 34.9807 250.706 34.8643 250.555 34.8643C250.403 34.8643 250.269 34.9807 250.258 35.1379L249.513 43.4203C249.449 44.113 248.901 44.6717 248.209 44.7474L241.719 45.4633C241.567 45.4808 241.451 45.6088 241.451 45.7601C241.451 45.9115 241.567 46.0395 241.719 46.057L248.209 46.7729C248.901 46.8486 249.449 47.4073 249.513 48.1L250.258 56.3824C250.269 56.5396 250.403 56.656 250.555 56.656C250.706 56.656 250.84 56.5396 250.851 56.3824L251.596 48.1C251.66 47.4073 252.208 46.8486 252.9 46.7729L259.396 46.057C259.547 46.0395 259.664 45.9115 259.664 45.7601C259.664 45.6088 259.547 45.4808 259.396 45.4633ZM252.836 46.1792C251.864 46.284 251.096 47.0697 251.003 48.0476L250.555 53.024L250.106 48.0476C250.019 47.0697 249.245 46.284 248.273 46.1792L244.472 45.7601L248.273 45.3411C249.245 45.2363 250.019 44.4506 250.106 43.4727L250.555 38.4962L251.003 43.4727C251.09 44.4506 251.858 45.2363 252.836 45.3411L256.643 45.7601L252.836 46.1792ZM46.4952 19.51L41.3381 18.9396C40.8433 18.8872 40.4475 18.4856 40.401 17.9851L39.8073 11.408C39.7898 11.2275 39.6385 11.0878 39.458 11.0878C39.2776 11.0878 39.1263 11.2275 39.1088 11.408L38.5151 17.9851C38.4685 18.4798 38.0786 18.8872 37.578 18.9396L32.4209 19.51C32.2463 19.5333 32.1124 19.6788 32.1124 19.8592C32.1124 20.0397 32.2463 20.1852 32.4209 20.2085L37.578 20.7789C38.0727 20.8312 38.4685 21.2329 38.5151 21.7334L39.1088 28.3105C39.1263 28.4909 39.2776 28.6306 39.458 28.6306C39.6385 28.6306 39.7898 28.4909 39.8073 28.3105L40.401 21.7334C40.4475 21.2387 40.8375 20.8312 41.3381 20.7789L46.4952 20.2085C46.6698 20.1852 46.8037 20.0397 46.8037 19.8592C46.8037 19.6788 46.6698 19.5333 46.4952 19.51ZM41.2624 20.0804C40.4359 20.1735 39.784 20.8371 39.7083 21.6636L39.4639 24.3875L39.2194 21.6636C39.1437 20.8371 38.4918 20.1677 37.6653 20.0804L35.6455 19.8592L37.6653 19.6381C38.4918 19.5449 39.1437 18.8814 39.2194 18.0549L39.4639 15.3309L39.7083 18.0549C39.784 18.8814 40.4359 19.5507 41.2624 19.6381L43.2822 19.8592L41.2624 20.0804Z" fill="#F0F0F0"/>
</g>
<defs>
<clipPath id="clip0_1886_33408">
<rect width="269" height="256" fill="white"/>
</clipPath>
</defs>
</svg>
