<svg width="296" height="301" viewBox="0 0 296 301" fill="none" xmlns="http://www.w3.org/2000/svg">
<g clip-path="url(#clip0_1886_33010)">
<path d="M263.256 208.162H282.048V200.213H263.256V208.162Z" fill="#EBEBEB"/>
<path d="M273.738 218.185L283.219 217.986L287.888 217.908C289.442 217.873 290.982 217.88 292.536 217.873L292.217 218.192L292.182 210.243L292.536 210.599L283.141 210.556C280.011 210.556 276.874 210.478 273.745 210.442L273.936 210.25C273.922 211.55 273.872 212.857 273.844 214.186L273.745 218.199L273.738 218.185ZM273.738 218.185L273.638 214.25C273.603 212.921 273.56 211.579 273.546 210.236V210.044H273.738C276.867 210.009 280.004 209.931 283.133 209.931L292.529 209.888H292.884V210.243L292.849 218.192V218.512H292.529C290.947 218.498 289.357 218.512 287.782 218.476L283.055 218.398L273.745 218.199L273.738 218.185Z" fill="#EBEBEB"/>
<path d="M135.325 140.11L144.806 139.911L149.476 139.833C151.03 139.798 152.57 139.805 154.124 139.79L153.805 140.11L153.77 132.161L154.124 132.516L144.728 132.474C141.599 132.474 138.462 132.396 135.332 132.36L135.524 132.168C135.51 133.468 135.46 134.775 135.432 136.104L135.332 140.117L135.325 140.11ZM135.325 140.11L135.226 136.175C135.191 134.846 135.148 133.504 135.134 132.161V131.97H135.325C138.455 131.934 141.592 131.856 144.721 131.856L154.117 131.813H154.472V132.168L154.437 140.117V140.437H154.117C152.535 140.423 150.945 140.437 149.37 140.394L144.643 140.316L135.332 140.117L135.325 140.11Z" fill="#EBEBEB"/>
<path d="M145.807 150.133H164.599V142.184H145.807V150.133Z" fill="#EBEBEB"/>
<path d="M124.68 150.133L134.161 149.934L138.831 149.856C140.385 149.821 141.925 149.828 143.479 149.813L143.159 150.133L143.124 142.184L143.479 142.539L134.083 142.497C130.953 142.497 127.817 142.419 124.687 142.383L124.879 142.191C124.864 143.491 124.815 144.798 124.786 146.127L124.687 150.14L124.68 150.133ZM124.68 150.133L124.581 146.198C124.545 144.869 124.502 143.527 124.488 142.184V141.992H124.68C127.81 141.957 130.946 141.879 134.076 141.879L143.472 141.836H143.827V142.191L143.791 150.14V150.46H143.472C141.889 150.446 140.3 150.46 138.724 150.424L133.998 150.346L124.687 150.147L124.68 150.133Z" fill="#EBEBEB"/>
<path d="M164.265 49.4548H183.057V41.506H164.265V49.4548Z" fill="#EBEBEB"/>
<path d="M3.46993 218.185L12.951 217.986L17.6206 217.908C19.1747 217.873 20.7147 217.88 22.2689 217.873L21.9495 218.192L21.914 210.243L22.2689 210.599L12.8729 210.556C9.74334 210.556 6.60663 210.478 3.47703 210.442L3.66863 210.25C3.65444 211.55 3.60476 212.857 3.57638 214.186L3.47703 218.199L3.46993 218.185ZM3.46993 218.185L3.37058 214.25C3.33509 212.921 3.29251 211.579 3.27832 210.236V210.044H3.46993C6.59954 210.009 9.73624 209.931 12.8659 209.931L22.2618 209.888H22.6166V210.243L22.5811 218.192V218.512H22.2618C20.6792 218.498 19.0896 218.512 17.5141 218.476L12.7878 218.398L3.47703 218.199L3.46993 218.185Z" fill="#EBEBEB"/>
<path d="M13.9514 16.949L23.4325 16.7501L28.102 16.672C29.6562 16.6365 31.1962 16.6436 32.7503 16.6294L32.431 16.949L32.3955 9.00017L32.7503 9.35535L23.3544 9.31273C20.2248 9.31273 17.0881 9.23459 13.9585 9.19907L14.1501 9.00728C14.1359 10.3072 14.0862 11.6143 14.0578 12.9426L13.9585 16.9561L13.9514 16.949ZM13.9514 16.949L13.852 13.0137C13.8165 11.6853 13.774 10.3427 13.7598 9.00017V8.80838H13.9514C17.081 8.77286 20.2177 8.69472 23.3473 8.69472L32.7432 8.6521H33.0981V9.00728L33.0626 16.9561V17.2758H32.7432C31.1607 17.2616 29.571 17.2758 27.9956 17.2332L23.2692 17.155L13.9585 16.9561L13.9514 16.949Z" fill="#EBEBEB"/>
<path d="M3.46987 26.9722L22.2617 26.9722V19.0233L3.46987 19.0233V26.9722Z" fill="#EBEBEB"/>
<path d="M273.738 16.949L283.219 16.7501L287.888 16.672C289.442 16.6365 290.982 16.6436 292.536 16.6294L292.217 16.949L292.182 9.00017L292.536 9.35535L283.141 9.31273C280.011 9.31273 276.874 9.23459 273.745 9.19907L273.936 9.00728C273.922 10.3072 273.872 11.6143 273.844 12.9426L273.745 16.9561L273.738 16.949ZM273.738 16.949L273.638 13.0137C273.603 11.6853 273.56 10.3427 273.546 9.00017V8.80838H273.738C276.867 8.77286 280.004 8.69472 283.133 8.69472L292.529 8.6521H292.884V9.00728L292.849 16.9561V17.2758H292.529C290.947 17.2616 289.357 17.2758 287.782 17.2332L283.055 17.155L273.745 16.9561L273.738 16.949Z" fill="#EBEBEB"/>
<path d="M90.7086 243.957H39.6484V300.551H90.7086V243.957Z" fill="#EBEBEB"/>
<path d="M13.2923 300.558H39.6562L39.6562 243.957H13.2923L13.2923 300.558Z" fill="#DBDBDB"/>
<path d="M15.1016 296.658C17.0531 292.63 18.9905 288.595 20.9066 284.546L26.6265 272.371L32.2754 260.146C34.1489 256.061 36.0011 251.97 37.8391 247.857C35.8876 251.884 33.9502 255.919 32.0341 259.968L26.3142 272.144L20.6653 284.369C18.7918 288.453 16.9396 292.545 15.1016 296.658Z" fill="#EBEBEB"/>
<path d="M15.1016 247.857C16.9396 251.963 18.7918 256.061 20.6653 260.146L26.3142 272.371L32.0341 284.546C33.9502 288.595 35.8876 292.637 37.8391 296.658C36.0011 292.552 34.1489 288.453 32.2754 284.369L26.6265 272.144L20.9066 259.968C18.9905 255.919 17.0531 251.877 15.1016 247.857Z" fill="#EBEBEB"/>
<path d="M90.7086 158.48H39.6484V211.174H90.7086V158.48Z" fill="#EBEBEB"/>
<path d="M13.2923 211.188H39.6562L39.6562 158.487H13.2923L13.2923 211.188Z" fill="#DBDBDB"/>
<path d="M60.8467 170.712H61.9254H62.7415L63.2028 169.775L63.8557 170.712L64.7356 168.773L65.573 170.712H67.9575H69.0504L69.4478 169.419L69.8168 170.712H70.5265V158.48H60.8467V170.712Z" fill="#DBDBDB"/>
<path d="M15.1016 207.821C17.0531 204.071 18.9905 200.313 20.9066 196.541L26.6265 185.204L32.2754 173.817C34.1489 170.016 36.0011 166.202 37.8391 162.373C35.8876 166.116 33.9502 169.881 32.0341 173.653L26.3142 184.99L20.6653 196.377C18.7918 200.178 16.9396 203.992 15.1016 207.821Z" fill="#EBEBEB"/>
<path d="M15.1016 162.38C16.9396 166.209 18.7918 170.023 20.6653 173.824L26.3142 185.211L32.0341 196.548C33.9502 200.32 35.8876 204.078 37.8391 207.828C36.0011 204 34.1489 200.185 32.2754 196.385L26.6265 184.998L20.9066 173.66C18.9905 169.888 17.0531 166.131 15.1016 162.38Z" fill="#EBEBEB"/>
<path d="M43.0124 207.906H48.6826V202.231H43.0124V207.906Z" fill="white"/>
<path d="M87.3102 211.181H36.25V243.957H87.3102V211.181Z" fill="#DBDBDB"/>
<path d="M9.88606 243.957H36.25L36.25 211.181H9.88606L9.88606 243.957Z" fill="#C7C7C7"/>
<path d="M57.4473 223.413H58.526H59.335L59.8033 222.469L60.4491 223.413L61.3362 221.474L62.1665 223.413H64.5581H65.651L66.0413 222.121L66.4174 223.413H67.1271V211.181H57.4473V223.413Z" fill="white"/>
<path d="M11.7021 242.01C13.6537 239.631 15.5911 237.237 17.5072 234.843L23.2271 227.64L28.876 220.401C30.7495 217.986 32.6017 215.564 34.4397 213.127C32.4881 215.507 30.5508 217.894 28.6347 220.295L22.9148 227.498L17.2659 234.736C15.3924 237.152 13.5402 239.574 11.7021 242.01Z" fill="#DBDBDB"/>
<path d="M11.7021 213.135C13.5402 215.564 15.3924 217.993 17.2659 220.409L22.9148 227.647L28.6347 234.85C30.5508 237.244 32.4881 239.638 34.4397 242.017C32.6017 239.588 30.7495 237.159 28.876 234.743L23.2271 227.512L17.5072 220.309C15.5911 217.915 13.6537 215.521 11.7021 213.142V213.135Z" fill="#DBDBDB"/>
<path d="M286.115 251.046H235.055V300.558H286.115V251.046Z" fill="#DBDBDB"/>
<path d="M208.691 300.558H235.055V251.046H208.691V300.558Z" fill="#C7C7C7"/>
<path d="M256.252 263.278H257.331H258.147L258.608 262.334L259.261 263.278L260.141 261.339L260.971 263.278H263.363H264.456L264.853 261.986L265.222 263.278H265.932V251.046H256.252V263.278Z" fill="white"/>
<path d="M210.507 297.61C212.458 294.015 214.396 290.407 216.312 286.784L222.032 275.901L227.681 264.976C229.554 261.325 231.406 257.667 233.244 253.994C231.293 257.589 229.355 261.197 227.439 264.82L221.719 275.703L216.071 286.628C214.197 290.279 212.345 293.937 210.507 297.61Z" fill="#DBDBDB"/>
<path d="M210.507 253.994C212.345 257.667 214.197 261.332 216.071 264.976L221.719 275.901L227.439 286.784C229.355 290.407 231.293 294.015 233.244 297.61C231.406 293.937 229.554 290.272 227.681 286.628L222.032 275.703L216.312 264.82C214.396 261.197 212.458 257.589 210.507 253.994Z" fill="#DBDBDB"/>
<path d="M197.328 6.11621V126.947H280.401V6.11621H197.328ZM277.335 123.879H200.394V9.18494H277.335V123.879Z" fill="#EBEBEB"/>
<path d="M277.335 9.18506H200.394V123.879H277.335V9.18506Z" fill="white"/>
<path d="M200.401 71.6179L277.343 71.6179V68.5492L200.401 68.5492V71.6179Z" fill="#EBEBEB"/>
<path d="M191.686 135.749H286.05V126.94L191.686 126.94V135.749Z" fill="#DBDBDB"/>
<path d="M194.191 139.272L283.552 141.147V135.749H194.191V139.272Z" fill="#EBEBEB"/>
<path d="M200.401 9.18506H277.343V87.9846H200.401V9.18506ZM274.504 12.0265H203.24V85.1432H274.504V12.0265Z" fill="#DBDBDB"/>
<path d="M252.789 9.18506H251.256V85.1432H252.789V9.18506Z" fill="#DBDBDB"/>
<path d="M226.489 9.18506H224.956V85.1432H226.489V9.18506Z" fill="#DBDBDB"/>
<path d="M15.5908 6.11621V126.947H98.6638V6.11621H15.5908ZM95.5981 123.879H18.6566V9.18494H95.5981V123.879Z" fill="#EBEBEB"/>
<path d="M95.5978 9.18506H18.6562V123.879H95.5978V9.18506Z" fill="white"/>
<path d="M18.6561 71.6179L95.5977 71.6179V68.5492L18.6561 68.5492V71.6179Z" fill="#EBEBEB"/>
<path d="M9.94192 135.749H104.306V126.94L9.94192 126.94V135.749Z" fill="#DBDBDB"/>
<path d="M12.4473 139.272L101.808 141.147V135.749H12.4473V139.272Z" fill="#EBEBEB"/>
<path d="M18.6572 9.18506H95.5988V87.9846H18.6572V9.18506ZM92.7601 12.0265H21.4959V85.1432H92.7601V12.0265Z" fill="#DBDBDB"/>
<path d="M71.0446 9.18506H69.5117V85.1432H71.0446V9.18506Z" fill="#DBDBDB"/>
<path d="M44.7448 9.18506H43.2119V85.1432H44.7448V9.18506Z" fill="#DBDBDB"/>
<path d="M210.954 242.031H140.215V300.536H210.954V242.031Z" fill="#B3B3B3" fill-opacity="0.85"/>
<path opacity="0.1" d="M210.954 242.031H140.215V300.536H210.954V242.031Z" fill="black"/>
<path d="M238.986 242.031H210.954V300.536H238.986V242.031Z" fill="#B3B3B3" fill-opacity="0.85"/>
<path opacity="0.2" d="M238.986 242.031H210.954V300.536H238.986V242.031Z" fill="black"/>
<path d="M237.048 296.502C234.976 292.339 232.911 288.169 230.874 283.978L224.792 271.398L218.788 258.76C216.794 254.541 214.829 250.307 212.877 246.059C214.956 250.222 217.014 254.392 219.051 258.583L225.133 271.17L231.137 283.808C233.131 288.027 235.096 292.261 237.048 296.509V296.502Z" fill="#B3B3B3" fill-opacity="0.85"/>
<path d="M237.048 246.059C235.096 250.307 233.124 254.541 231.137 258.76L225.133 271.398L219.051 283.985C217.014 288.176 214.956 292.346 212.877 296.509C214.829 292.261 216.801 288.027 218.788 283.808L224.792 271.17L230.874 258.59C232.911 254.399 234.969 250.229 237.048 246.066V246.059Z" fill="#B3B3B3" fill-opacity="0.85"/>
<path d="M180.587 254.669H179.466H178.629L178.146 253.696L177.479 254.669L176.564 252.665L175.705 254.669H173.235H172.107L171.695 253.333L171.312 254.669H170.581V242.031H180.587V254.669Z" fill="white"/>
<path d="M215.219 183.527H162.441V242.024H215.219V183.527Z" fill="#B3B3B3" fill-opacity="0.85"/>
<path d="M242.47 183.527H215.219V242.032H242.47V183.527Z" fill="#B3B3B3" fill-opacity="0.85"/>
<path opacity="0.1" d="M242.47 183.527H215.219V242.032H242.47V183.527Z" fill="black"/>
<g opacity="0.1">
<path d="M211.351 237.997C207.476 233.834 203.63 229.664 199.826 225.48L188.472 212.9L177.266 200.263C173.547 196.043 169.871 191.81 166.224 187.562C170.098 191.724 173.945 195.894 177.749 200.078L189.103 212.659L200.309 225.296C204.027 229.515 207.703 233.749 211.351 237.997Z" fill="black"/>
<path d="M211.351 187.555C207.703 191.803 204.027 196.036 200.309 200.256L189.103 212.893L177.749 225.473C173.945 229.664 170.105 233.834 166.224 237.99C169.864 233.742 173.547 229.508 177.266 225.289L188.472 212.651L199.826 200.071C203.63 195.88 207.469 191.71 211.351 187.555Z" fill="black"/>
</g>
<path d="M238.631 232.129H233.854V238.878H238.631V232.129Z" fill="white"/>
<path d="M0 300.558L37.0018 300.387L73.9965 300.323L148 300.203L221.996 300.323L258.998 300.38L296 300.558L258.998 300.728L221.996 300.792L148 300.913L73.9965 300.792L37.0018 300.728L0 300.558Z" fill="#263238"/>
<path d="M175.13 98.0928C175.534 98.3343 175.932 98.59 176.329 98.8457" stroke="#263238" stroke-width="0.75" stroke-miterlimit="10"/>
<path d="M178.7 100.487C191.538 109.991 201.53 127.274 190.346 144.166C183.753 154.111 172.583 150.02 168.737 146.454C164.486 142.518 168.396 138.483 172.647 141.176C180.013 145.85 181.049 156.661 172.888 164.653C167.573 169.86 160.654 170.186 156.843 169.881" stroke="#263238" stroke-width="0.75" stroke-miterlimit="10"/>
<path d="M155.409 169.725C154.529 169.597 154.011 169.476 154.011 169.476" stroke="#263238" stroke-width="0.75" stroke-miterlimit="10"/>
<path d="M148.213 168.929C147.88 171.792 153.677 173.362 154.11 169.618C154.55 165.875 148.547 166.067 148.213 168.929Z" fill="#263238"/>
<path d="M155.828 173.632C155.289 174.712 153.38 174.854 151.407 173.483C149.434 172.112 148.071 169.732 148.071 169.732C148.071 169.732 150.789 169.405 153.067 170.165C155.345 170.932 156.367 172.545 155.821 173.632H155.828Z" fill="#EBEBEB"/>
<path d="M148.071 169.732C149.193 170.236 150.293 170.783 151.385 171.33C152.478 171.891 153.571 172.445 154.643 173.042C153.521 172.538 152.422 171.991 151.329 171.444C150.236 170.883 149.143 170.329 148.071 169.732Z" fill="#263238"/>
<path d="M153.223 173.61C152.968 173.319 152.748 172.999 152.535 172.68C152.329 172.353 152.123 172.026 151.953 171.678C152.209 171.969 152.429 172.289 152.641 172.609C152.847 172.936 153.053 173.262 153.223 173.61Z" fill="#263238"/>
<path d="M150.825 171.117C151.216 171.003 151.62 170.947 152.017 170.883C152.422 170.833 152.819 170.776 153.224 170.776C152.834 170.89 152.429 170.947 152.032 171.011C151.627 171.06 151.23 171.117 150.825 171.117Z" fill="#263238"/>
<path d="M150.222 171.586C150.087 171.437 150.002 171.266 149.91 171.096C149.832 170.918 149.746 170.748 149.711 170.549C149.846 170.698 149.931 170.868 150.023 171.039C150.101 171.217 150.186 171.387 150.222 171.586Z" fill="#263238"/>
<path d="M156.744 166.194C156.467 165.022 154.643 164.44 152.408 165.321C150.172 166.202 148.299 168.198 148.299 168.198C148.299 168.198 150.868 169.149 153.266 168.929C155.658 168.709 157.028 167.374 156.744 166.194Z" fill="#EBEBEB"/>
<path d="M148.299 168.198C149.505 167.963 150.697 167.686 151.897 167.409C153.089 167.118 154.281 166.834 155.459 166.5C154.253 166.727 153.061 167.011 151.861 167.288C150.669 167.579 149.477 167.864 148.299 168.198Z" fill="#263238"/>
<path d="M154.203 165.612C153.884 165.839 153.6 166.102 153.316 166.358C153.04 166.628 152.763 166.898 152.521 167.196C152.841 166.969 153.125 166.706 153.409 166.45C153.685 166.18 153.962 165.91 154.203 165.612Z" fill="#263238"/>
<path d="M151.301 167.487C151.656 167.686 152.032 167.835 152.408 167.991C152.784 168.133 153.167 168.276 153.558 168.375C153.203 168.176 152.827 168.027 152.45 167.871C152.074 167.729 151.691 167.587 151.301 167.487Z" fill="#263238"/>
<path d="M150.818 166.89C150.655 167.004 150.527 167.146 150.399 167.288C150.279 167.437 150.158 167.594 150.08 167.771C150.243 167.658 150.371 167.515 150.499 167.373C150.619 167.224 150.733 167.068 150.818 166.89Z" fill="#263238"/>
<path d="M148.213 168.929C148.781 168.993 149.193 169.512 149.122 170.08C149.058 170.648 148.54 171.06 147.972 170.989C147.404 170.918 146.993 170.407 147.064 169.839C147.127 169.27 147.646 168.858 148.213 168.929Z" fill="#455A64"/>
<path d="M148.454 166.862C149.022 166.926 149.434 167.445 149.363 168.013C149.292 168.581 148.781 168.993 148.213 168.922C147.645 168.851 147.234 168.34 147.305 167.771C147.369 167.203 147.887 166.791 148.454 166.862Z" fill="#455A64"/>
<path d="M84.1089 235.816C84.1089 235.816 69.0002 266.141 68.9931 266.169C67.7441 272.435 66.7576 277.947 66.5163 280.845C66.5163 280.859 66.5092 280.874 66.5163 280.895C66.4241 281.989 66.4383 282.699 66.5944 282.919C66.6086 282.941 66.6086 282.955 66.6228 282.969C68.2337 284.603 117.953 296.061 119.819 295.876C121.693 295.699 121.309 290.35 119.734 288.361C118.144 286.372 101.077 273.465 101.077 273.465L115.873 243.09L84.116 235.816H84.1089Z" fill="#D3766A"/>
<path d="M119.067 295.876C117.2 296.061 68.2265 284.596 66.6227 282.969C66.6085 282.955 66.6014 282.941 66.5943 282.919C66.4382 282.699 66.4311 281.982 66.5162 280.895C66.5162 280.874 66.5162 280.866 66.5233 280.845C66.7646 277.947 67.751 272.427 68.9929 266.162C68.9929 266.155 70.9374 262.269 72.6122 258.902L103.979 267.512L101.084 273.465C101.084 273.465 117.406 286.372 118.989 288.361C120.571 290.35 120.947 295.699 119.074 295.876H119.067Z" fill="#EBEBEB"/>
<path d="M119.741 295.081C117.854 295.223 68.0139 282.508 66.4243 280.817C65.8069 280.185 67.2404 272.804 69.2204 263.946C69.2417 263.854 69.263 263.761 69.2842 263.669L101.531 271.511L101.382 272.051C101.382 272.051 118.286 285.463 119.833 287.501C121.373 289.533 121.636 294.939 119.741 295.074V295.081Z" fill="#263238"/>
<path d="M119.67 293.006C111.325 290.655 77.4243 281.968 68.9935 280.277C68.9226 280.263 68.9155 280.312 68.9793 280.327C77.2043 282.834 111.169 291.252 119.635 293.141C119.812 293.184 119.848 293.056 119.67 293.006Z" fill="white"/>
<path d="M104.058 272.84C100.908 271.376 96.7347 270.858 93.6122 272.57C93.4915 272.634 93.5838 272.804 93.7044 272.804C97.2314 272.605 100.439 272.726 103.945 273.259C104.193 273.294 104.293 272.946 104.065 272.847L104.058 272.84Z" fill="white"/>
<path d="M106.073 274.886C102.922 273.422 98.7493 272.904 95.6268 274.616C95.5062 274.68 95.5984 274.85 95.7191 274.85C99.2461 274.651 102.454 274.772 105.96 275.305C106.208 275.34 106.307 274.992 106.08 274.893L106.073 274.886Z" fill="white"/>
<path d="M108.096 276.938C104.945 275.475 100.772 274.956 97.6493 276.668C97.5286 276.732 97.6209 276.903 97.7415 276.903C101.269 276.704 104.476 276.825 107.982 277.357C108.23 277.393 108.33 277.045 108.103 276.945L108.096 276.938Z" fill="white"/>
<path d="M120.962 293.49C121.764 294.058 120.813 297.013 120.103 297.084C119.401 297.162 65.1186 283.055 64.2457 282.607C63.3728 282.167 64.5579 278.935 65.6721 279.034C66.7863 279.141 120.955 293.483 120.955 293.483L120.962 293.49Z" fill="#B3B3B3" fill-opacity="0.85"/>
<path d="M76.0903 271.355C72.9394 268.627 68.6957 273.521 71.8536 276.256C75.0045 278.984 79.2483 274.09 76.0903 271.355Z" fill="white"/>
<path d="M72.719 256.48L109.082 265.658C109.082 265.658 142.976 204.433 142.216 188.869C141.166 167.381 115.987 101.396 115.987 101.396H85.8407C85.8407 101.396 105.853 172.751 106.109 184.756C106.243 191.035 72.7119 256.48 72.7119 256.48H72.719Z" fill="#455A64"/>
<path d="M110.636 258.27C108.699 257.496 91.3902 252.495 78.4743 249.76C78.3892 249.739 78.3608 249.867 78.4459 249.895C82.5123 251.33 108.174 258.086 110.579 258.419C110.658 258.434 110.721 258.313 110.636 258.277V258.27Z" fill="#263238"/>
<path d="M108.621 169.426C106.222 159.354 103.696 149.309 100.957 139.322C98.2101 129.291 95.3715 119.275 92.1993 109.366C91.809 108.158 91.4116 106.951 91.0142 105.743C90.9503 105.558 90.6664 105.644 90.7232 105.828C93.5406 115.688 96.4147 125.541 99.0972 135.443C101.78 145.345 104.349 155.276 106.762 165.242C107.358 167.714 107.947 170.179 108.529 172.651C109.125 175.202 109.771 177.766 110.069 180.373C110.352 182.88 110.211 185.367 109.572 187.81C108.94 190.211 107.925 192.477 106.896 194.729C102.546 204.177 98.1888 213.617 93.8599 223.079C89.5239 232.556 88.8142 234.715 84.6556 244.276C84.1375 245.463 83.6195 246.649 83.1298 247.842C83.0943 247.92 83.2079 247.984 83.2505 247.906C88.0052 238.544 88.7361 236.285 93.1502 226.759C97.5927 217.169 102.021 207.579 106.428 197.983C108.415 193.649 110.75 189.231 111.048 184.386C111.36 179.35 109.771 174.278 108.621 169.426Z" fill="#263238"/>
<path d="M110.268 247.814C110.268 247.814 111.432 281.193 111.432 281.222C111.623 287.608 111.9 293.198 112.319 296.082C112.319 296.097 112.319 296.111 112.326 296.132C112.482 297.219 112.652 297.908 112.858 298.093C112.872 298.107 112.879 298.121 112.894 298.135C114.831 299.364 165.849 299.336 167.63 298.739C169.418 298.15 167.836 293.014 165.856 291.437C163.862 289.86 144.325 281.122 144.325 281.122L142.841 247.764L110.261 247.828L110.268 247.814Z" fill="#D3766A"/>
<path d="M111.197 274.367C111.197 274.367 111.439 281.2 111.439 281.222C111.63 287.608 111.907 293.198 112.326 296.082C112.326 296.097 112.326 296.111 112.333 296.132C112.553 297.205 112.737 297.908 112.865 298.093C112.879 298.107 112.886 298.121 112.9 298.135C114.838 299.364 165.855 299.336 167.637 298.739C169.425 298.15 167.842 293.014 165.863 291.437C163.868 289.86 144.331 281.122 144.331 281.122L144.182 274.161L111.197 274.381V274.367Z" fill="#EBEBEB"/>
<path d="M167.658 298.661C165.856 299.236 114.426 298.441 112.489 297.162C111.744 296.693 111.425 289.185 111.297 280.099C111.297 280.007 111.297 279.908 111.297 279.815L144.481 279.957L144.459 280.518C144.459 280.518 164.011 289.639 165.991 291.266C167.956 292.886 169.468 298.085 167.658 298.654V298.661Z" fill="#263238"/>
<path d="M167.112 296.651C158.447 296.302 123.461 295.72 114.867 296.033C114.796 296.033 114.796 296.082 114.867 296.089C123.447 296.622 158.433 296.92 167.105 296.793C167.289 296.793 167.289 296.658 167.105 296.651H167.112Z" fill="white"/>
<path d="M147.248 280.668C143.849 279.979 139.669 280.433 137.022 282.827C136.923 282.92 137.05 283.062 137.164 283.033C140.549 282.024 143.7 281.392 147.227 281.101C147.475 281.08 147.49 280.717 147.248 280.668Z" fill="white"/>
<path d="M149.683 282.188C146.284 281.499 142.104 281.96 139.457 284.347C139.357 284.44 139.485 284.582 139.599 284.553C142.984 283.545 146.135 282.912 149.662 282.621C149.91 282.6 149.924 282.237 149.683 282.188Z" fill="white"/>
<path d="M152.124 283.715C148.725 283.026 144.545 283.481 141.898 285.875C141.799 285.967 141.926 286.109 142.04 286.081C145.425 285.072 148.576 284.44 152.103 284.148C152.351 284.127 152.366 283.765 152.124 283.715Z" fill="white"/>
<path d="M168.474 296.828C169.39 297.198 169.141 300.288 168.474 300.529C167.807 300.764 111.737 299.648 110.786 299.421C109.835 299.194 110.239 295.777 111.346 295.613C112.454 295.457 168.467 296.828 168.467 296.828H168.474Z" fill="#B3B3B3" fill-opacity="0.85"/>
<path d="M119.699 285.711C116.002 283.786 113.007 289.54 116.712 291.465C120.409 293.39 123.404 287.636 119.699 285.711Z" fill="white"/>
<path d="M115.619 101.367C115.619 101.367 115.619 101.375 115.611 101.396C115.477 102.014 107.961 131.756 107.025 132.318C105.96 132.943 134.332 171.16 137.696 189.913C139.846 201.911 144.757 271.845 144.757 271.845H108.621C108.621 271.845 105.08 212.46 103.895 192.882C103.434 185.289 74.9762 150.183 72.2724 126.777C71.4208 119.403 76.7149 101.36 76.7149 101.36H115.619V101.367Z" fill="#455A64"/>
<path d="M107.706 243.53C107.273 233.692 106.882 223.832 106.166 214.008C105.761 208.439 104.966 203.055 104.413 197.5C104.384 197.208 104.15 197.137 104.157 197.436C104.413 207.317 105.229 217.091 105.754 226.965C106.279 236.803 106.783 239.141 107.337 248.979C107.649 254.548 107.926 260.117 108.359 265.679C108.359 265.765 108.493 265.765 108.493 265.679C108.515 255.798 108.124 253.404 107.699 243.53H107.706Z" fill="#263238"/>
<path d="M137.738 190.325C137.391 187.732 136.958 185.146 136.227 182.632C135.517 180.174 134.474 177.83 133.296 175.564C130.833 170.833 128.03 166.258 125.326 161.655C122.587 156.995 119.805 152.364 116.952 147.782C115.349 145.203 113.738 142.632 112.112 140.06C110.473 137.46 108.734 134.924 107.031 132.367C106.967 132.268 106.804 132.367 106.868 132.467C109.636 137.105 112.375 141.765 115.143 146.411C117.91 151.049 120.636 155.716 123.368 160.383C126.05 164.972 128.74 169.561 131.302 174.214C132.529 176.445 133.7 178.718 134.559 181.119C135.446 183.584 135.971 186.148 136.383 188.727C137.348 194.743 138.136 200.795 139.342 206.762C139.356 206.841 139.477 206.819 139.477 206.741C139.101 201.257 138.448 195.773 137.724 190.325H137.738Z" fill="#263238"/>
<path d="M141.592 265.58C139.52 265.31 123.766 264.763 110.58 265.331C110.488 265.331 110.495 265.459 110.58 265.466C114.881 265.85 139.158 266.013 141.571 265.736C141.649 265.729 141.685 265.594 141.585 265.58H141.592Z" fill="#263238"/>
<path d="M111.751 130.222C108.053 131.493 104.491 133.305 101.077 135.194C100.943 135.265 101.035 135.478 101.177 135.415C104.775 133.866 108.437 132.388 111.942 130.648C112.219 130.513 112.035 130.122 111.751 130.222Z" fill="#263238"/>
<path d="M112.836 105.573C112.829 105.452 112.609 105.423 112.609 105.558C112.638 109.828 112.368 113.585 112.006 117.578C111.836 119.432 110.352 129.675 107.138 128.929C106.598 128.801 106.329 128.276 106.244 127.466C106.144 126.493 106.506 125.292 106.669 124.326C107.024 122.181 107.315 120.028 107.493 117.862C107.833 113.82 107.854 109.778 107.365 105.743C107.351 105.608 107.159 105.622 107.159 105.757C107.159 111.355 107.017 116.938 106.18 122.486C105.775 125.15 104.441 129.163 107.223 129.568C110.061 129.988 111.892 123.268 112.24 121.428C113.205 116.299 113.241 110.765 112.836 105.573Z" fill="#263238"/>
<path d="M107.223 129.206C106.932 129.895 106.698 130.613 106.499 131.33C106.343 131.891 106.138 132.495 106.201 133.077C106.216 133.191 106.365 133.198 106.421 133.127C106.798 132.651 106.954 131.998 107.167 131.429C107.408 130.776 107.67 130.122 107.897 129.455C108.047 129.014 107.401 128.787 107.223 129.206Z" fill="#263238"/>
<path d="M108.728 202.373C108.394 197.322 108.408 191.98 106.265 187.292C105.201 184.969 103.732 182.859 102.334 180.728C100.865 178.483 99.4168 176.232 97.9904 173.958C92.2847 164.887 86.8345 155.631 81.8456 146.148C79.4398 141.581 77.2257 136.864 76.0192 131.82C74.7561 126.542 74.7064 121.016 75.3593 115.653C75.5225 114.31 75.707 112.975 75.9341 111.639C75.9483 111.54 75.8063 111.504 75.7851 111.604C74.6993 116.732 74.1315 122.01 74.5999 127.253C75.047 132.303 76.6508 137.084 78.7656 141.666C80.9656 146.432 83.5842 151.021 86.1674 155.596C88.8286 160.305 91.5679 164.972 94.3924 169.59C97.2027 174.186 100.155 178.675 103.086 183.193C104.505 185.381 105.825 187.626 106.542 190.154C107.273 192.719 107.471 195.397 107.642 198.047C108.366 209.227 111.197 246.4 112.198 257.524C112.326 258.938 112.453 260.352 112.581 261.758C112.595 261.886 112.78 261.879 112.78 261.758C112.347 250.598 109.466 213.518 108.728 202.373Z" fill="#263238"/>
<path d="M91.3689 111.142C91.3547 111.064 91.2411 111.092 91.234 111.163C91.1276 114.274 91.2198 117.478 90.0205 120.412C88.9276 123.104 86.7277 124.994 84.2652 126.407C82.8458 127.224 81.3414 127.913 79.844 128.574C79.7375 128.624 79.7801 128.794 79.9007 128.759C82.7678 127.849 85.6703 126.862 88.0477 124.958C90.5882 122.919 91.7024 119.957 91.8301 116.754C91.9011 114.871 91.6811 113.003 91.3689 111.149V111.142Z" fill="#263238"/>
<path d="M107.115 60.5435C111.168 73.0174 122.139 94.264 126.056 96.8284C129.527 99.0944 145.856 96.5656 152.995 94.8394C155.671 94.193 149.66 73.8343 146.821 74.5801C143.408 75.4752 133.238 77.7696 132.5 77.2084C131.684 76.5904 121.507 63.9959 114.24 56.5514C107.648 49.803 105.59 55.8268 107.123 60.5506L107.115 60.5435Z" fill="#D3766A"/>
<path d="M151.455 94.9955C152.824 94.825 164.413 94.2994 169.729 91.394C172.546 89.8526 179.806 84.7522 179.089 82.9195C178.429 81.2502 176.094 82.1594 176.094 82.1594C176.094 82.1594 179.302 79.8366 178.358 77.5208C177.414 75.2051 173.561 76.9454 173.561 76.9454C173.561 76.9454 176.676 74.3171 175.576 72.0795C174.469 69.8419 170.885 72.2358 170.885 72.2358C170.885 72.2358 173.845 69.9698 172.163 68.5064C170.133 66.7448 165.144 71.5467 161.78 72.6691C161.014 72.9248 145.905 76.7465 145.905 76.7465L151.455 94.9955Z" fill="#D3766A"/>
<path d="M170.758 72.1718C167.082 75.688 164.861 76.5902 159.957 77.5918C159.858 77.6131 159.865 77.7552 159.971 77.7481C164.868 77.2082 167.813 76.4836 170.943 72.3423C171.099 72.1434 170.943 72.0084 170.765 72.1718H170.758Z" fill="#263238"/>
<path d="M173.441 76.8602C169.304 80.1847 166.905 81.1792 161.838 82.5999C161.767 82.6212 161.795 82.7419 161.866 82.7277C166.955 81.7474 169.871 80.9518 173.569 77.0946C173.739 76.917 173.625 76.7039 173.434 76.8602H173.441Z" fill="#263238"/>
<path d="M175.853 82.2232C171.617 85.1499 169.034 86.3575 163.938 87.1034C163.818 87.1176 163.832 87.2952 163.952 87.2952C169.218 87.0394 172.454 85.5548 175.924 82.3582C176.159 82.138 176.116 82.0385 175.846 82.2161L175.853 82.2232Z" fill="#263238"/>
<path d="M141.945 77.4001C141.945 77.4001 146.168 72.6194 148.481 70.9288C150.802 69.2381 161.752 66.1126 162.561 68.4425C163.604 71.4473 157.636 74.5019 154.521 75.61C154.521 75.61 156.94 82.5644 153.13 85.6828C149.319 88.8013 141.945 77.4001 141.945 77.4001Z" fill="#D3766A"/>
<path d="M162.575 69.3661C161.546 72.7971 157.359 73.9905 154.421 75.2976C154.194 75.397 154.201 75.6101 154.307 75.7664C155.124 78.7499 155.415 83.1967 153.328 85.7042C153.264 85.7753 153.364 85.8747 153.435 85.8108C156.039 83.424 156.11 79.0269 155.003 75.8232C158.04 74.5304 162.192 73.1523 162.611 69.3803C162.611 69.359 162.582 69.3519 162.575 69.3732V69.3661Z" fill="#263238"/>
<path d="M151.448 98.512L146.09 74.1184L132.848 76.5265C127.625 70.5383 117.186 58.5688 112.956 54.9744C107.996 50.7549 104.738 53.9302 106.562 60.3163C110.728 74.9211 122.828 96.3454 126.014 98.3983C130.584 101.346 151.441 98.5191 151.441 98.5191L151.448 98.512Z" fill="#B3B3B3" fill-opacity="0.85"/>
<path opacity="0.1" d="M132.543 83.9355C133.154 84.1486 133.899 84.0847 134.538 84.1699C135.936 84.3617 136.581 86.4573 135.29 87.2529C133.906 88.1053 132.238 88.2403 130.713 87.6436C129.286 87.0895 128.094 85.7114 128.399 84.106C128.669 82.6995 130.116 82.2946 131.231 83.0121C131.685 83.3033 132.018 83.7579 132.536 83.9355H132.543ZM128.882 78.1319C128.371 80.5542 132.103 82.6214 134.012 81.3356C134.694 80.8739 134.672 79.8226 134.062 79.3253C133.509 78.8707 133.033 78.7997 132.536 78.3877C132.295 78.1888 132.345 78.2243 132.082 77.9117C131.763 77.521 131.479 77.2227 131.025 76.967C130.102 76.4555 129.073 77.244 128.882 78.1319ZM122.928 78.2598C122.161 79.2614 122.736 80.7674 123.41 81.6766C124.077 82.5717 125.064 83.1541 126.199 83.0334C127.058 82.941 127.434 81.7476 126.724 81.2149C126.277 80.881 125.937 80.4335 125.731 79.9718C125.397 79.2188 125.17 78.2527 124.333 77.9188C123.85 77.727 123.254 77.8265 122.92 78.2527L122.928 78.2598ZM138.647 94.0581C137.646 96.0826 140.69 98.3841 142.543 97.9863C143.16 97.8514 143.756 97.0416 143.203 96.4591C142.763 95.9973 142.237 95.6209 141.826 95.1236C141.322 94.5198 141.052 93.7455 140.257 93.4401C139.626 93.1985 138.952 93.4401 138.647 94.0581ZM110.061 69.2312C109.891 68.9116 109.657 68.599 109.366 68.3717C109.763 69.3875 110.182 70.4104 110.622 71.4333C110.707 70.6874 110.374 69.8421 110.061 69.2312ZM114.014 67.093C113.965 65.3385 113.113 63.6905 112.056 62.3266C111.204 61.2326 109.735 59.4638 108.167 59.8616C107.798 59.954 107.627 60.3021 107.599 60.643C107.5 61.8435 108.876 63.1364 109.465 64.0883C110.21 65.2959 110.743 66.6313 111.502 67.8318C112.219 68.9542 114.043 68.464 114 67.093H114.014ZM113.553 74.7365C114.114 74.6938 114.61 74.3245 114.745 73.7562C114.88 73.1879 114.795 72.6551 114.639 72.101C114.511 71.6464 114.277 71.0497 113.894 70.7443C113.312 70.2825 112.425 70.4459 112.233 71.2344C112.134 71.6322 112.212 72.0797 112.219 72.4846C112.219 72.6622 112.219 72.8469 112.205 73.0245C112.19 73.2944 112.247 73.5573 112.29 73.8272C112.382 74.3529 113.035 74.772 113.546 74.7365H113.553Z" fill="#030402"/>
<path d="M146.814 96.3668C146.204 94.9248 144.707 88.6382 144.352 87.0683C144.004 85.5268 142.783 79.1478 142.421 77.5353C142.4 77.4501 142.521 77.3933 142.542 77.4856C142.925 79.0768 144.643 85.3421 145.012 86.9049C145.381 88.4748 146.8 94.7685 146.899 96.3526C146.899 96.4094 146.836 96.4236 146.821 96.3739L146.814 96.3668Z" fill="#263238"/>
<path opacity="0.1" d="M134.53 99.7266C130.804 99.7053 127.54 99.3643 126.028 98.3912C122.835 96.3311 110.742 74.914 106.576 60.3091C105.526 56.6437 106.158 54.0367 107.818 53.2766L134.537 99.7266H134.53Z" fill="black"/>
<path d="M74.4644 104.685C74.5567 104.82 118.84 110.503 119.308 110.091C119.485 109.941 119.84 106.347 119.84 106.347C119.84 106.347 115.781 58.0856 113.68 55.2584C111.842 52.7793 106.264 50.9963 102.468 52.6088C94.4982 55.9901 75.4154 99.1085 75.6212 100.884C75.6212 100.884 74.3438 104.514 74.4573 104.678L74.4644 104.685Z" fill="#B3B3B3" fill-opacity="0.85"/>
<path opacity="0.1" d="M90.4317 98.8102C91.042 99.208 91.8723 99.3359 92.5465 99.6058C94.0226 100.195 94.1574 102.66 92.5394 103.172C90.7936 103.726 88.9414 103.42 87.4369 102.362C86.0318 101.368 85.1021 99.5419 85.8686 97.8726C86.5428 96.4092 88.2388 96.3666 89.2608 97.4464C89.6795 97.8868 89.9207 98.4764 90.4388 98.8102H90.4317ZM88.0047 91.4723C86.7911 93.9798 90.304 97.2475 92.7381 96.3595C93.611 96.0399 93.8665 94.8891 93.3342 94.1787C92.8516 93.5323 92.3549 93.3263 91.922 92.7438C91.7091 92.4597 91.7588 92.5165 91.5601 92.0974C91.3117 91.5788 91.0917 91.181 90.6588 90.7761C89.793 89.9663 88.4517 90.5488 88.0047 91.4723ZM83.9099 88.8014C82.5828 89.2986 82.2422 91.0887 82.3416 92.3531C82.4409 93.6033 83.0441 94.747 84.2009 95.3082C85.0738 95.7344 86.1453 94.8181 85.7834 93.8875C85.5563 93.305 85.4925 92.6728 85.5705 92.1116C85.6983 91.1952 86.0602 90.1297 85.457 89.3199C85.1092 88.8511 84.4776 88.5883 83.9099 88.8014ZM98.458 97.2546C97.7554 97.1622 97.1025 97.6879 97.0103 98.3769C96.9038 99.1299 97.4219 99.7834 98.1102 100.018C98.6283 100.188 99.0754 100.174 99.6005 100.025C99.8489 99.9539 100.055 99.7195 100.175 99.5135C100.31 99.2862 100.388 99.0091 100.339 98.7463C100.253 98.2633 99.8773 97.8015 99.3663 97.7163C99.3238 97.6666 99.2741 97.6097 99.2102 97.56C98.9902 97.3824 98.7347 97.283 98.458 97.2475V97.2546ZM87.5718 80.1137C86.3866 81.3355 86.8905 84.113 88.2246 85.0507C88.9982 85.5906 90.1194 85.207 90.2472 84.2196C90.2898 83.8928 90.2685 83.6939 90.2614 83.3743C90.2614 83.0688 90.2259 82.8699 90.233 82.6923C90.2685 82.0956 90.4317 81.435 90.2969 80.8525C89.9846 79.5099 88.5156 79.1334 87.5718 80.1137ZM79.879 97.7589C78.2397 99.7053 80.9435 103.044 83.0654 103.108C83.7751 103.129 84.648 102.405 84.2009 101.623C83.846 100.998 83.3706 100.444 83.0583 99.7905C82.6751 98.9949 82.5828 98.0715 81.8022 97.5245C81.1777 97.0912 80.3758 97.1622 79.8719 97.7589H79.879ZM119.031 97.1409C118.541 97.219 118.08 97.5458 117.91 98.1638C117.683 98.9523 117.654 99.6556 117.065 100.274C116.469 100.892 115.767 101.275 115.327 102.035C114.943 102.682 115.511 103.641 116.278 103.555C117.505 103.428 118.648 102.767 119.45 101.822C119.336 100.487 119.194 98.9026 119.031 97.1409ZM115.461 91.2805C115.057 92.2466 115.135 93.3405 114.801 94.3492C114.503 95.2585 114.156 96.1961 113.751 97.0628C113.453 97.695 114.049 98.7108 114.83 98.3698C116.121 97.7944 117.079 97.0415 117.711 95.7344C118.25 94.6192 118.847 92.7438 118.329 91.5575C117.853 90.4636 116.043 89.8882 115.461 91.2876V91.2805ZM111.416 100.963C110.785 101.666 110.096 102.412 109.209 102.774C108.365 103.122 107.868 103.96 108.273 104.855C108.684 105.765 109.621 105.9 110.451 105.523C111.934 104.841 113.077 103.655 113.531 102.071C113.879 100.863 112.218 100.068 111.416 100.963ZM104.93 66.1553C105.767 66.2902 106.555 65.8569 106.775 65.0045C107.173 63.4773 105.81 61.9003 104.731 60.9484C103.617 59.9681 102.134 59.1299 100.622 59.62C99.6644 59.9326 99.5509 60.9697 100.119 61.673C100.779 62.497 101.694 63.1008 102.397 63.9035C103.156 64.7701 103.695 65.9493 104.93 66.1482V66.1553ZM110.359 72.1791C110.955 71.3196 110.494 70.0551 110.068 69.2311C109.841 68.7978 109.493 68.3929 109.06 68.1514C108.471 67.8246 107.577 67.8672 107.244 68.5421C107.024 68.9825 107.045 69.3803 107.158 69.8349C107.215 70.0622 107.3 70.254 107.4 70.4742C107.414 70.5026 107.421 70.524 107.428 70.5382C107.428 70.5524 107.435 70.5737 107.442 70.595C107.648 71.2556 107.776 71.9873 108.28 72.4916C108.94 73.1594 109.898 72.8539 110.366 72.172L110.359 72.1791ZM114.014 67.0929C113.964 65.3384 113.112 63.6904 112.055 62.3265C111.203 61.2325 109.735 59.4637 108.166 59.8615C107.797 59.9539 107.627 60.302 107.598 60.6429C107.499 61.8434 108.876 63.1363 109.465 64.0882C110.21 65.2958 110.742 66.6312 111.502 67.8317C112.218 68.9541 114.042 68.4639 114 67.0929H114.014ZM108.656 79.2542C108.918 79.3039 109.188 79.2968 109.451 79.2329C109.855 79.1334 110.16 78.8209 110.373 78.487C110.593 78.1389 110.629 77.6559 110.65 77.2581C110.671 76.839 110.501 76.4767 110.331 76.1144C110.253 76.015 110.174 75.9226 110.096 75.8232C109.99 75.7451 109.891 75.674 109.784 75.5959C109.5 75.4396 109.181 75.397 108.876 75.4538C108.308 75.5462 107.84 75.9653 107.705 76.5335C107.606 76.9527 107.478 77.3647 107.456 77.798C107.478 77.9258 107.499 78.0608 107.52 78.1887C107.57 78.3876 107.669 78.5652 107.804 78.7143C108.01 78.9772 108.315 79.2045 108.656 79.2684V79.2542ZM113.552 74.7364C114.113 74.6937 114.61 74.3244 114.745 73.7561C114.88 73.1878 114.794 72.655 114.638 72.1009C114.511 71.6463 114.276 71.0496 113.893 70.7442C113.311 70.2824 112.424 70.4458 112.233 71.2343C112.133 71.6321 112.211 72.0796 112.218 72.4845C112.218 72.6621 112.218 72.8468 112.204 73.0244C112.19 73.2943 112.247 73.5572 112.289 73.8271C112.382 74.3528 113.034 74.7719 113.545 74.7364H113.552Z" fill="#030402"/>
<path d="M111.105 62.8237C108.401 62.5751 104.938 56.7928 104.278 53.1203C104.235 52.8646 105.314 50.7335 106.499 48.0768C107.216 46.4643 107.968 44.6458 108.543 42.9409L118.364 49.1281C118.364 49.1281 116.115 52.3531 115.135 55.3366C115.057 55.5852 115.001 55.8267 114.972 56.0611C114.965 56.0967 114.958 56.1393 114.951 56.1819C114.724 57.5884 113.716 63.0652 111.097 62.8308L111.105 62.8237Z" fill="#D3766A"/>
<path d="M114.972 56.0539C114.972 56.0539 114.965 56.125 114.951 56.1676C114.603 56.1108 114.227 56.0042 113.83 55.8621C107.691 53.6458 108.77 45.5762 109.203 43.3457L111.658 44.8943L118.364 49.1209C118.364 49.1209 116.115 52.3459 115.143 55.3294C115.064 55.578 115.008 55.8124 114.979 56.0539H114.972Z" fill="#263238"/>
<path d="M109.564 31.5469C107.535 35.2053 107.187 46.9545 109.429 50.073C112.68 54.5908 119.209 56.3525 123.346 52.1685C127.355 48.1124 127.547 32.7901 124.928 29.8279C121.075 25.4734 112.566 26.1411 109.564 31.5469Z" fill="#D3766A"/>
<path d="M118.989 41.0445C118.989 41.0445 118.925 41.08 118.925 41.1155C118.925 41.9253 118.783 42.8488 118.045 43.0903C118.024 43.0974 118.024 43.14 118.045 43.1329C118.939 43.0406 119.11 41.8045 118.982 41.0374L118.989 41.0445Z" fill="#263238"/>
<path d="M118.293 40.1777C117.002 40.0357 116.81 42.6356 118.01 42.7705C119.188 42.8984 119.379 40.2985 118.293 40.1777Z" fill="#263238"/>
<path d="M123.644 41.3215C123.644 41.3215 123.701 41.3642 123.701 41.3997C123.609 42.2024 123.644 43.14 124.354 43.4668C124.375 43.4739 124.368 43.5165 124.347 43.5094C123.467 43.3105 123.438 42.0674 123.651 41.3215H123.644Z" fill="#263238"/>
<path d="M124.432 40.5401C125.738 40.5401 125.631 43.1542 124.425 43.1471C123.24 43.1471 123.346 40.5329 124.432 40.5401Z" fill="#263238"/>
<path d="M119.351 39.652C118.996 39.7302 118.648 39.7373 118.286 39.7799C117.875 39.8225 117.555 39.9007 117.179 39.7018C116.973 39.5952 116.881 39.2684 116.966 39.0624C117.165 38.5794 117.647 38.4018 118.137 38.3308C118.669 38.2526 119.095 38.3308 119.556 38.6007C120.004 38.8635 119.819 39.5526 119.344 39.6591L119.351 39.652Z" fill="#263238"/>
<path d="M125.589 38.1177C125.234 38.0325 124.922 37.8975 124.574 37.7767C124.184 37.6418 123.865 37.5707 123.609 37.2298C123.474 37.0451 123.524 36.7112 123.687 36.562C124.077 36.2139 124.588 36.2566 125.064 36.4057C125.575 36.562 125.93 36.8177 126.228 37.2653C126.519 37.6986 126.05 38.2385 125.582 38.1248L125.589 38.1177Z" fill="#263238"/>
<path d="M118.4 47.4518C119.45 47.118 120.756 47.3311 121.579 47.4944C121.671 47.4873 121.771 47.3098 121.792 47.2245L121.856 45.5126C122.069 45.6404 123.183 46.23 123.183 45.9103C123.204 43.2465 123.218 40.2844 122.679 37.6276C122.665 37.5424 122.53 37.5495 122.53 37.6347C122.409 40.192 122.743 42.7564 122.665 45.3279C122.31 45.1645 121.735 44.8661 121.409 44.8519C121.316 44.8732 121.437 46.6633 121.387 46.9333C121.387 46.9333 119.798 46.3366 118.414 47.0966C118.052 47.2955 117.903 47.6081 118.407 47.4518H118.4Z" fill="#263238"/>
<path d="M116.292 49.1423C116.47 49.3412 116.647 49.6111 116.938 49.6537C117.215 49.6964 117.548 49.5898 117.811 49.5046C117.839 49.4975 117.861 49.5259 117.846 49.5472C117.619 49.8384 117.172 50.0089 116.803 49.9166C116.448 49.8313 116.285 49.5046 116.221 49.1707C116.214 49.121 116.271 49.1068 116.299 49.1423H116.292Z" fill="#263238"/>
<path opacity="0.2" d="M112.992 27.8176C112.886 29.6503 112.453 35.3048 111.58 36.4555C110.742 37.5637 108.841 40.2843 107.89 40.7034C108.017 36.9315 108.599 33.3442 109.579 31.4902C110.381 29.9487 111.58 28.7127 112.992 27.8176Z" fill="#263238"/>
<path d="M123.105 33.3511C122.09 34.3669 120.628 34.8215 119.223 34.4877C117.853 34.168 116.554 33.1096 116.15 31.7315C116.136 31.6889 116.072 31.7102 116.086 31.7528C116.512 33.2232 117.591 34.4877 119.138 34.8144C120.592 35.1199 122.218 34.5587 123.176 33.4221C123.218 33.3724 123.147 33.3014 123.105 33.3511Z" fill="#263238"/>
<path d="M119.542 22.8237C117.136 22.703 114.844 23.8751 113.85 25.452C113.247 26.411 113.098 27.4126 113.183 28.4497C113.183 28.4924 113.275 28.4924 113.275 28.4497C113.254 26.8159 114.184 25.0187 116.008 24.01C117.753 23.0368 120.003 22.8593 121.869 23.7259C122.849 24.1805 123.615 24.8696 123.977 25.6794C124.02 25.7717 124.204 25.7291 124.169 25.6367C123.622 24.0882 121.72 22.9374 119.549 22.8308L119.542 22.8237Z" fill="#263238"/>
<path d="M133.104 29.018C132.806 27.8104 132.053 26.7378 131.053 26.0133C129.648 24.9974 127.973 25.0117 126.312 25.0614C126.27 25.0614 126.27 25.1324 126.312 25.1324C127.732 25.0969 129.165 25.1324 130.414 25.8925C131.429 26.5034 132.245 27.4695 132.642 28.5989C133.459 30.936 132.337 33.6851 130.095 34.7506C128.824 35.3544 127.306 35.4041 126.007 34.8785C125.957 34.8572 125.915 34.9353 125.965 34.9566C128.342 35.9866 131.287 35.0774 132.557 32.7971C133.189 31.6677 133.423 30.2896 133.111 29.0252L133.104 29.018Z" fill="#263238"/>
<path d="M108.847 33.8414C108.847 33.8414 106.896 29.3732 108.982 27.0362C110.167 25.7078 113.73 26.1624 113.73 26.1624C113.73 26.1624 115.036 24.1877 118.052 23.733C121.103 23.2713 124.531 25.2958 124.531 25.2958C124.531 25.2958 127.497 23.8822 130.052 25.6084C133.607 28.0165 132.713 33.6496 128.838 35.1839C126.113 36.2637 122.721 33.6638 122.721 33.6638C122.373 33.6851 118.705 35.5391 116.285 32.2004C116.285 32.2004 113.978 33.955 112.147 32.4633C112.147 32.4633 111.019 34.3386 108.84 33.8414H108.847Z" fill="#263238"/>
<path d="M110.011 41.2787C110.011 41.2787 108.152 37.109 106.314 37.7057C104.476 38.3023 105.377 43.9923 107.187 45.1004C109.004 46.2086 110.054 44.5464 110.054 44.5464L110.004 41.2787H110.011Z" fill="#D3766A"/>
<path d="M106.612 39.3323C106.612 39.3323 106.57 39.3678 106.591 39.382C107.854 40.1989 108.33 41.6125 108.578 43.0261C108.266 42.4365 107.769 42.0529 106.995 42.4081C106.953 42.4294 106.981 42.4862 107.017 42.4862C107.599 42.472 107.989 42.6496 108.28 43.1753C108.486 43.5447 108.592 43.9851 108.713 44.39C108.755 44.525 108.99 44.5036 108.968 44.3545C108.968 44.3403 108.968 44.3332 108.968 44.319C109.337 42.5786 108.45 39.865 106.612 39.3323Z" fill="#263238"/>
<path d="M208.376 49.5551L131.972 72.9807L145.747 117.998L222.151 94.5728L208.376 49.5551Z" fill="#B3B3B3" fill-opacity="0.85"/>
<path opacity="0.2" d="M208.376 49.5551L131.972 72.9807L145.747 117.998L222.151 94.5728L208.376 49.5551Z" fill="black"/>
<path opacity="0.2" d="M208.372 49.5554L182.696 57.4277L196.472 102.445L222.148 94.5731L208.372 49.5554Z" fill="black"/>
<path d="M207.143 51.8486C206.284 55.8337 205.44 59.8188 204.624 63.811L202.197 75.8018L199.855 87.8138C199.088 91.8202 198.343 95.8337 197.612 99.8543C198.471 95.8693 199.315 91.8842 200.139 87.892L202.566 75.9012L204.908 63.8891C205.674 59.8827 206.419 55.8692 207.15 51.8486H207.143Z" fill="#B3B3B3" fill-opacity="0.85"/>
<path d="M219.754 93.0634C216.901 90.1438 214.041 87.2314 211.16 84.3473L202.502 75.7094L193.788 67.1355C190.878 64.287 187.947 61.4526 185.002 58.6396C187.855 61.5592 190.715 64.4716 193.596 67.3557L202.254 75.9936L210.968 84.5676C213.878 87.4161 216.809 90.2504 219.754 93.0634Z" fill="#B3B3B3" fill-opacity="0.85"/>
<path d="M146.655 78.7791L147.075 78.6501L145.265 72.7343L144.844 72.8633L146.655 78.7791Z" fill="#263238"/>
<path d="M145.649 79.0819L146.069 78.9529L144.259 73.037L143.838 73.166L145.649 79.0819Z" fill="#263238"/>
<path d="M144.64 79.4039L145.061 79.2749L143.25 73.359L142.83 73.488L144.64 79.4039Z" fill="#263238"/>
<path d="M143.639 79.6929L144.06 79.564L142.25 73.6478L141.83 73.7767L143.639 79.6929Z" fill="#263238"/>
<path d="M142.632 80.0001L143.053 79.8711L141.242 73.9552L140.822 74.0842L142.632 80.0001Z" fill="#263238"/>
<path d="M141.626 80.3077L142.047 80.1787L140.237 74.2628L139.816 74.3918L141.626 80.3077Z" fill="#263238"/>
<path d="M140.62 80.6385L141.041 80.5095L139.231 74.5936L138.81 74.7226L140.62 80.6385Z" fill="#263238"/>
<path d="M139.613 80.9381L140.034 80.8091L138.223 74.8935L137.802 75.0226L139.613 80.9381Z" fill="#263238"/>
<path d="M138.613 81.254L139.033 81.125L137.223 75.2091L136.802 75.3381L138.613 81.254Z" fill="#263238"/>
<path d="M149.512 71.9234L147.759 71.966L151.541 70.8081L150.065 71.7529L150.732 73.9266C151.932 73.7277 152.741 74.7222 153.351 76.7182L149.568 77.8761C148.958 75.8871 149.072 74.6014 150.179 74.097L149.512 71.9163V71.9234Z" fill="#263238"/>
<path d="M153.315 73.4365L154.302 73.131L153.415 70.2399L155.941 69.4585L156.828 72.3567L157.822 72.0513L156.488 75.7593L153.315 73.4365Z" fill="#263238"/>
<path opacity="0.1" d="M131.969 72.9818L133.104 76.6756L185.917 67.9525L182.695 57.4321L131.969 72.9818Z" fill="black"/>
<path d="M232.052 99.6768L206.369 107.547L196.47 102.447L222.152 94.5693L232.052 99.6768Z" fill="#B3B3B3" fill-opacity="0.85"/>
<path opacity="0.2" d="M232.052 99.6768L206.369 107.547L196.47 102.447L222.152 94.5693L232.052 99.6768Z" fill="black"/>
<path d="M140.399 127.779L166.082 119.901L171.426 110.126L145.743 117.997L140.399 127.779Z" fill="#B3B3B3" fill-opacity="0.85"/>
<path opacity="0.1" d="M140.399 127.779L166.082 119.901L171.426 110.126L145.743 117.997L140.399 127.779Z" fill="black"/>
<path d="M98.1317 66.0345C101.886 78.6007 112.339 100.11 116.2 102.76C119.613 105.111 135.999 102.973 143.181 101.417C145.871 100.835 140.35 80.334 137.49 81.0159C134.055 81.8328 123.836 83.8786 123.105 83.2961C122.31 82.6568 112.431 69.8207 105.342 62.2057C98.9123 55.3011 96.7124 61.2752 98.1317 66.0274V66.0345Z" fill="#D3766A"/>
<path d="M136.014 82.6853C136.014 82.6853 141.443 76.5621 145.289 74.225C150.441 71.0995 156.175 70.5241 158.588 70.4246C163.634 70.2257 175.975 73.2305 175.727 76.9386C175.507 80.2985 163.045 76.5834 163.045 76.5834C163.045 76.5834 176.372 78.2669 175.358 82.2591C174.35 86.2513 160.135 81.1225 160.135 81.1225C160.135 81.1225 173.789 83.1613 172.093 87.1108C170.816 90.0943 157.68 86.1803 157.68 86.1803C157.68 86.1803 169.404 88.013 168.218 91.1385C166.913 94.598 154.557 91.7423 154.557 91.7423C150.214 99.1868 145.105 100.956 141.322 101.78C140.407 101.979 136.007 82.6853 136.007 82.6853H136.014Z" fill="#D3766A"/>
<path d="M158.475 75.7026C160.051 75.8447 161.64 75.9726 163.195 76.2567C164.749 76.5337 166.296 76.8747 167.814 77.2938C171.547 78.3309 173.719 79.567 173.577 79.5101C170.206 78.0539 164.656 76.96 163.102 76.6829C161.548 76.4059 160.015 76.0436 158.461 75.7666C158.419 75.7666 158.44 75.7026 158.475 75.7097V75.7026Z" fill="#263238"/>
<path d="M157.368 81.3074C159.369 81.5773 161.363 81.7691 163.35 82.1243C165.33 82.4795 167.175 82.9838 169.127 83.474C169.276 83.5095 169.205 83.5805 169.056 83.545C167.09 83.133 165.238 82.9057 163.265 82.515C161.299 82.1314 159.334 81.6626 157.361 81.35C157.332 81.35 157.34 81.3003 157.368 81.3003V81.3074Z" fill="#263238"/>
<path d="M155.544 85.9388C158.624 86.1874 161.647 87.0114 164.599 87.8852C164.748 87.9278 164.649 88.0059 164.493 87.9704C161.498 87.2672 159.149 86.6918 155.537 86.0454C155.48 86.0383 155.48 85.9317 155.544 85.9388Z" fill="#263238"/>
<path d="M141.542 105.054L136.773 80.54L123.481 82.6285C118.407 76.5194 108.252 64.3013 104.107 60.6004C99.2462 56.2601 95.9179 59.3573 97.5856 65.786C101.404 80.4903 112.985 102.192 116.122 104.323C120.621 107.377 141.542 105.054 141.542 105.054Z" fill="#B3B3B3" fill-opacity="0.85"/>
<path opacity="0.1" d="M132.544 83.9354C133.154 84.1485 133.899 84.0846 134.538 84.1698C135.936 84.3616 136.582 86.4572 135.29 87.2528C133.906 88.1052 132.239 88.2402 130.713 87.6435C129.287 87.0894 128.094 85.7113 128.4 84.1059C128.669 82.6994 130.117 82.2945 131.231 83.012C131.685 83.3032 132.019 83.7578 132.537 83.9354H132.544ZM131.146 81.4208C132.125 81.8257 133.225 81.8683 134.013 81.3355C134.176 81.2219 134.304 81.0798 134.382 80.9093L131.146 81.4208ZM124.241 82.5005C124.802 82.8983 125.469 83.1114 126.2 83.0333C126.718 82.9765 127.065 82.5218 127.094 82.053L124.241 82.5005ZM139.286 93.4471C139.023 93.5536 138.796 93.7596 138.647 94.058C138.051 95.2585 138.881 96.5513 140.038 97.3256L139.286 93.4471ZM117.911 98.1638C117.684 98.9523 117.655 99.6556 117.066 100.274C116.477 100.892 115.775 101.275 115.328 102.035C114.944 102.682 115.519 103.641 116.286 103.555C118.727 103.293 120.849 100.927 120.636 98.4266C120.501 96.8568 118.351 96.6366 117.911 98.1638ZM115.462 91.2805C115.058 92.2466 115.136 93.3405 114.802 94.3492C114.504 95.2585 114.157 96.1961 113.752 97.0628C113.454 97.695 114.05 98.7108 114.831 98.3698C116.122 97.7944 117.08 97.0415 117.712 95.7344C118.251 94.6192 118.847 92.7438 118.329 91.5575C117.854 90.4636 116.044 89.8882 115.462 91.2876V91.2805ZM104.924 66.1553C105.761 66.2902 106.549 65.8569 106.769 65.0045C107.166 63.4773 105.804 61.9003 104.725 60.9484C103.611 59.9681 102.128 59.1299 100.616 59.62C99.6582 59.9326 99.5447 60.9697 100.112 61.673C100.772 62.497 101.688 63.1008 102.39 63.9035C103.15 64.7701 103.689 65.9493 104.924 66.1482V66.1553ZM110.353 72.1791C110.949 71.3196 110.488 70.0551 110.062 69.2311C109.835 68.7978 109.487 68.3929 109.054 68.1514C108.465 67.8246 107.571 67.8672 107.237 68.5421C107.017 68.9825 107.039 69.3803 107.152 69.8349C107.209 70.0622 107.294 70.254 107.394 70.4742C107.408 70.5026 107.415 70.524 107.422 70.5382C107.422 70.5524 107.429 70.5737 107.436 70.595C107.642 71.2556 107.77 71.9873 108.273 72.4916C108.933 73.1594 109.892 72.8539 110.36 72.172L110.353 72.1791ZM108.65 79.2542C108.912 79.3039 109.182 79.2968 109.444 79.2329C109.849 79.1334 110.154 78.8209 110.367 78.487C110.587 78.1389 110.622 77.6559 110.644 77.2581C110.665 76.839 110.495 76.4767 110.324 76.1144C110.246 76.015 110.168 75.9226 110.09 75.8232C109.984 75.7451 109.884 75.674 109.778 75.5959C109.494 75.4396 109.175 75.397 108.87 75.4538C108.302 75.5462 107.833 75.9653 107.699 76.5335C107.599 76.9527 107.472 77.3647 107.45 77.798C107.472 77.9258 107.493 78.0608 107.514 78.1887C107.564 78.3876 107.663 78.5652 107.798 78.7143C108.004 78.9772 108.309 79.2045 108.65 79.2684V79.2542ZM114.639 72.108C114.639 72.108 114.632 72.1009 114.632 72.0938C114.171 71.5611 113.702 71.0212 113.248 70.4955C112.801 70.46 112.361 70.7015 112.233 71.2343C112.134 71.6321 112.205 72.0725 112.219 72.4845C112.219 72.6621 112.212 72.8397 112.205 73.0244C112.191 73.2943 112.24 73.5572 112.29 73.82C112.375 74.3528 113.035 74.7719 113.546 74.7292C114.107 74.6866 114.604 74.3172 114.739 73.749C114.873 73.1949 114.788 72.655 114.639 72.108Z" fill="#030402"/>
<path d="M136.958 102.802C136.383 101.346 135.034 95.0241 134.715 93.4471C134.403 91.8985 133.331 85.4911 133.012 83.8715C132.998 83.7863 133.118 83.7294 133.133 83.8218C133.48 85.4201 135.042 91.7209 135.375 93.2979C135.709 94.8749 136.979 101.197 137.036 102.788C137.036 102.845 136.972 102.852 136.958 102.81V102.802Z" fill="#263238"/>
<path d="M132.572 105.743C130.393 105.864 128.214 105.914 126.036 105.9C123.857 105.871 121.671 105.829 119.493 105.523C118.407 105.353 117.314 105.196 116.271 104.671C115.27 104.038 114.596 103.158 113.915 102.291C112.581 100.529 111.502 98.6185 110.43 96.7147C108.301 92.893 106.47 88.915 104.682 84.9371C102.936 80.9378 101.276 76.8959 99.7783 72.7971C101.588 76.768 103.376 80.746 105.229 84.6884C107.052 88.6451 108.968 92.5592 111.005 96.4022C112.034 98.313 113.127 100.195 114.355 101.971C114.979 102.831 115.639 103.74 116.484 104.294C117.385 104.777 118.485 104.976 119.542 105.154C123.836 105.772 128.214 105.779 132.565 105.75L132.572 105.743Z" fill="#263238"/>
<path d="M101.176 76.2637C100.871 75.9724 100.63 75.6386 100.395 75.3047C100.182 74.9566 99.9411 74.6085 99.8418 74.1965C99.9482 74.3741 100.076 74.5375 100.19 74.708L100.537 75.2123C100.757 75.5604 100.991 75.8943 101.176 76.2708V76.2637Z" fill="#263238"/>
<path d="M112.361 69.6787C114.163 71.483 115.767 73.4649 117.435 75.39C119.095 77.3221 120.706 79.2969 122.395 81.1865L123.034 81.8826C123.14 81.9963 123.247 82.1099 123.36 82.2094C123.417 82.2662 123.467 82.3088 123.516 82.3514C123.552 82.387 123.531 82.3514 123.531 82.3728C123.531 82.3728 123.58 82.3728 123.609 82.3728C124.148 82.3514 124.829 82.252 125.447 82.1667L129.215 81.6056C131.734 81.2362 134.247 80.8526 136.766 80.5116H136.794V80.5329L136.887 81.158L136.737 80.54L136.766 80.5614C134.275 81.0941 131.777 81.5701 129.272 82.0318C128.016 82.2591 126.76 82.458 125.504 82.6498C124.858 82.7421 124.283 82.8487 123.552 82.8771C123.495 82.8771 123.46 82.8842 123.396 82.8629C123.325 82.8416 123.226 82.7848 123.204 82.7563C123.133 82.6995 123.055 82.6427 122.998 82.5859C122.871 82.4722 122.764 82.3585 122.651 82.2378C122.431 82.0034 122.211 81.7689 121.998 81.5274C120.323 79.5953 118.712 77.6276 117.122 75.6386L114.745 72.648C113.957 71.6464 113.191 70.6306 112.354 69.6716L112.361 69.6787Z" fill="#263238"/>
<path d="M113.297 69.8989C113.567 70.2257 113.765 70.5809 113.964 70.9502C114.141 71.3267 114.34 71.6961 114.383 72.1223C114.297 71.9305 114.191 71.7601 114.099 71.5754L113.808 71.0355C113.63 70.6661 113.439 70.3038 113.297 69.906V69.8989Z" fill="#263238"/>
<path d="M28.1802 255.642C27.9106 248.993 28.017 242.337 28.457 235.703C29.3512 222.014 31.6079 208.432 34.6949 195.077C36.4336 187.562 38.5768 180.167 40.8122 172.787C40.8832 172.566 41.238 172.623 41.1742 172.858C34.2691 198.885 28.606 225.743 28.9964 252.801C29.1028 260.373 29.9828 267.81 30.6995 275.333C30.7208 275.532 30.3873 275.617 30.3447 275.411C28.9183 268.975 28.457 262.227 28.1873 255.649L28.1802 255.642Z" fill="#B3B3B3" fill-opacity="0.85"/>
<path d="M41.174 172.857C41.174 172.857 51.6345 199.432 49.2926 205.683C46.9507 211.927 42.125 213.262 42.125 213.262C42.125 213.262 48.5261 222.412 44.0553 230.986C39.5844 239.567 29.642 239.162 28.9821 248.887C28.9821 248.887 28.4285 208.212 41.174 172.857Z" fill="#B3B3B3" fill-opacity="0.85"/>
<path d="M30.1174 232.094C30.1032 232.051 30.1103 232.002 30.1316 231.952C31.6006 213.88 34.8012 195.866 40.2798 178.484C40.294 178.434 40.3791 178.448 40.3649 178.505C38.2927 186.276 36.4476 194.097 34.8722 201.954C36.2276 200.554 38.0089 199.752 39.8682 199.169C39.9037 199.155 39.9179 199.205 39.8895 199.226C37.9521 200.064 36.0999 201.03 34.7302 202.671C34.4251 204.213 34.127 205.754 33.8432 207.295C36.1779 204.681 39.4211 203.381 42.6643 202.153C42.7068 202.138 42.7352 202.202 42.6926 202.224C39.3146 203.602 35.9509 205.378 33.6586 208.29C32.8638 212.701 32.1613 217.127 31.558 221.566C33.2683 219.776 35.376 218.576 37.796 217.986C37.8669 217.972 37.9095 218.079 37.8386 218.1C35.3547 218.817 33.2116 220.21 31.5155 222.156C31.5013 222.17 31.4871 222.177 31.48 222.184C31.2742 223.747 31.0755 225.31 30.891 226.873C32.2038 225.75 33.6586 224.891 35.2625 224.23C35.3051 224.216 35.3263 224.28 35.2838 224.294C33.6586 224.99 32.1896 225.985 30.9052 227.192C30.8839 227.207 30.8697 227.207 30.8484 227.214C30.671 228.706 30.5006 230.19 30.3516 231.682C32.7503 228.791 35.7167 226.695 39.2224 225.338C39.2934 225.31 39.3288 225.417 39.2579 225.445C35.8444 226.93 32.8425 229.281 30.5148 232.179C30.451 232.257 30.3658 232.272 30.2948 232.25C30.0678 234.538 29.869 236.825 29.6987 239.119C29.6987 239.148 29.642 239.155 29.6491 239.119C29.7839 236.768 29.9471 234.424 30.1316 232.073L30.1174 232.094Z" fill="#263238"/>
<path d="M38.5197 196.527C40.3364 195.276 42.6428 194.744 44.8073 194.566C44.857 194.566 44.8641 194.637 44.8073 194.644C42.5577 194.978 40.6629 195.795 38.5907 196.676C38.4984 196.711 38.4345 196.576 38.5126 196.527H38.5197Z" fill="#263238"/>
<path d="M37.2499 224.664C38.6835 223.804 40.3228 223.314 41.9692 223.051C42.026 223.044 42.0331 223.129 41.9692 223.144C40.3015 223.449 38.8183 224.039 37.2996 224.784C37.2357 224.813 37.179 224.706 37.2428 224.671L37.2499 224.664Z" fill="#263238"/>
<path d="M0.680946 206.116C5.04537 209.185 9.23237 212.73 12.7878 216.708C16.5774 220.956 19.3451 225.772 21.2824 231.121C25.2423 242.081 27.4068 253.951 27.6055 265.594C27.7191 272.122 27.1371 278.601 25.7391 284.98C25.6894 285.214 25.3417 285.143 25.3772 284.909C27.0804 273.685 27.0236 262.227 25.1856 251.018C23.3901 240.021 20.5657 228.059 13.5826 219.123C9.77881 214.257 5.03827 210.428 0.354501 206.471C0.10612 206.265 0.425467 205.924 0.673849 206.102L0.680946 206.116Z" fill="#B3B3B3" fill-opacity="0.85"/>
<path d="M26.0659 257.681C26.0659 257.681 22.475 251.621 17.2377 246.386C12.0075 241.151 7.60048 237.429 6.9192 233.962C6.23793 230.495 12.1636 227.945 12.1636 227.945C12.1636 227.945 4.92505 229.245 2.938 226.205C0.958044 223.165 0 205.541 0 205.541C0 205.541 13.1713 214.953 19.3099 228.151C25.4485 241.35 26.0659 257.674 26.0659 257.674V257.681Z" fill="#B3B3B3" fill-opacity="0.85"/>
<path d="M4.55628 210.066C10.0987 215.514 15.6767 221.325 18.9411 228.485C20.0624 230.943 21.0133 233.486 21.8507 236.079C21.8507 236.079 21.8507 236.086 21.8507 236.093C22.0211 236.612 22.1914 237.13 22.3475 237.656C22.3617 237.684 22.3688 237.713 22.3759 237.741C23.9868 243.09 25.1294 248.617 26.1158 254.022C26.1158 254.058 26.0661 254.079 26.059 254.037C25.4913 251.288 24.8668 248.51 24.1642 245.747C24.1358 245.747 24.1146 245.747 24.0862 245.733C22.9649 245.264 21.8365 244.965 20.6301 244.852C20.5521 244.845 20.5592 244.71 20.6372 244.71C21.8082 244.767 22.9507 244.973 24.0578 245.335C23.4191 242.842 22.7236 240.348 21.943 237.897C19.4024 237.272 16.7483 236.938 14.1296 236.875C14.1012 236.875 14.1012 236.832 14.1296 236.832C16.7696 236.711 19.2463 236.938 21.8153 237.485C21.6804 237.066 21.5385 236.647 21.3966 236.228C19.6792 235.837 17.9547 235.504 16.1947 235.347C16.1663 235.347 16.1663 235.29 16.1947 235.29C17.9121 235.34 19.6082 235.518 21.283 235.908C20.5662 233.785 19.7927 231.689 18.934 229.65C18.2244 227.967 17.3799 226.361 16.4502 224.813C15.0451 224.493 13.6754 224.188 12.2348 224.06C12.1922 224.06 12.1993 223.989 12.2348 223.989C13.5477 223.903 14.9102 224.003 16.1805 224.379C15.4851 223.257 14.7612 222.163 13.9806 221.098C11.0284 220.444 8.03362 219.833 5.01046 220.401C4.96078 220.409 4.93949 220.323 4.98917 220.309C7.8633 219.549 10.7232 219.989 13.5832 220.558C13.2709 220.139 12.9516 219.734 12.6251 219.322C10.8084 218.761 9.00586 218.491 7.10396 218.455C7.06848 218.455 7.06138 218.398 7.10396 218.391C8.84263 218.228 10.5742 218.391 12.249 218.846C9.80777 215.805 7.11106 212.957 4.44273 210.137C4.32209 210.009 4.41434 209.931 4.54918 210.059L4.55628 210.066Z" fill="#263238"/>
<path d="M4.70553 222.078C5.57132 221.985 6.4513 221.886 7.32418 221.985C7.43063 222 7.42354 222.17 7.31709 222.17C6.4513 222.199 5.58551 222.128 4.71263 222.177C4.64876 222.177 4.63457 222.078 4.70553 222.071V222.078Z" fill="#263238"/>
<path d="M14.1857 239.169C15.5696 239.155 16.9534 239.524 18.245 239.986C18.2805 240 18.2592 240.05 18.2237 240.043C16.8824 239.723 15.527 239.595 14.1715 239.368C14.058 239.346 14.0651 239.169 14.1786 239.169H14.1857Z" fill="#263238"/>
<path d="M17.032 233.266C17.5926 233.238 18.2029 233.337 18.7565 233.422C18.8133 233.429 18.8133 233.522 18.7565 233.522C18.1958 233.529 17.5784 233.543 17.032 233.444C16.9326 233.422 16.9397 233.273 17.0391 233.266H17.032Z" fill="#263238"/>
<path d="M64.6857 224.813C60.449 226.29 56.2407 228.187 52.444 230.588C48.3918 233.145 45.0422 236.406 42.2461 240.291C36.5121 248.24 32.0128 257.347 29.1671 266.731C27.5703 271.987 26.5413 277.365 26.2007 282.849C26.1865 283.048 26.4846 283.076 26.5058 282.877C27.7194 273.394 30.4161 264.138 34.4824 255.493C38.4778 247.011 43.5235 237.983 51.2376 232.371C55.4388 229.316 60.158 227.313 64.8631 225.196C65.1115 225.083 64.934 224.735 64.6857 224.82V224.813Z" fill="#B3B3B3" fill-opacity="0.85"/>
<path d="M32.2327 260.671C32.2327 260.671 36.5403 256.601 41.9834 253.575C47.4265 250.549 51.8548 248.553 53.2032 245.91C54.5515 243.268 50.3503 239.83 50.3503 239.83C50.3503 239.83 55.9141 242.557 58.2134 240.554C60.5198 238.551 65.3597 224.514 65.3597 224.514C65.3597 224.514 52.5219 229.089 44.5098 238.345C36.4978 247.608 32.2256 260.671 32.2256 260.671H32.2327Z" fill="#B3B3B3" fill-opacity="0.85"/>
<path d="M32.9071 257.773C39.3295 245.711 47.8952 234.8 59.633 227.597C59.633 227.597 59.6401 227.597 59.633 227.605C56.5459 229.572 53.6931 231.852 51.039 234.332C53.4163 234.268 55.8363 234.644 57.9369 235.788C57.9866 235.816 57.9511 235.873 57.9014 235.859C55.5524 235.063 53.2957 234.545 50.7977 234.658C50.7622 234.658 50.7409 234.644 50.7196 234.63C50.3009 235.028 49.8893 235.426 49.4848 235.83C50.7196 235.88 51.9686 236.058 53.175 236.321C53.2105 236.321 53.1963 236.377 53.1679 236.37C51.8622 236.122 50.5919 236.029 49.2719 236.051C47.1216 238.217 45.1204 240.526 43.2185 242.934C44.0772 242.806 44.9784 242.884 45.7946 243.119C45.8584 243.133 45.8371 243.225 45.7733 243.218C44.8365 243.097 43.9494 243.112 43.0198 243.183C42.6649 243.63 42.3101 244.078 41.9695 244.532C44.6094 244.376 47.1926 244.625 49.7616 245.292C49.7971 245.299 49.79 245.363 49.7474 245.349C47.1003 244.831 44.432 244.66 41.7424 244.831C41.4159 245.264 41.1037 245.711 40.7843 246.152C42.3598 246.102 43.8856 246.301 45.4184 246.685C45.4752 246.699 45.461 246.791 45.3971 246.777C43.8146 246.415 42.2108 246.322 40.5998 246.4C39.216 248.304 37.896 250.251 36.6257 252.225C37.2999 252.083 38.0025 252.161 38.6625 252.346C38.6979 252.353 38.6908 252.403 38.6483 252.403C37.896 252.318 37.1864 252.41 36.4483 252.51C35.3058 254.293 34.1987 256.09 33.1413 257.901C33.049 258.05 32.8077 257.937 32.8929 257.78L32.9071 257.773Z" fill="#263238"/>
<path d="M42.8921 247.771C44.1482 247.665 45.4256 247.864 46.6249 248.226C46.6604 248.233 46.6533 248.29 46.6178 248.283C45.383 248.055 44.1624 247.97 42.9063 247.899C42.8211 247.899 42.8069 247.778 42.8992 247.764L42.8921 247.771Z" fill="#263238"/>
<path d="M54.0901 233.067C54.6578 233.003 55.2469 233.074 55.8075 233.166C55.8714 233.181 55.8501 233.273 55.7862 233.266C55.2185 233.202 54.6649 233.223 54.0972 233.209C54.0049 233.209 53.9908 233.074 54.083 233.06L54.0901 233.067Z" fill="#263238"/>
<path d="M15.6768 300.558H44.6523L40.522 270.261L39.4646 262.497H20.8644L19.8141 270.261L15.6768 300.558Z" fill="#455A64"/>
<path d="M19.8145 270.261H40.5224L39.465 262.497H20.8648L19.8145 270.261Z" fill="#263238"/>
<path d="M18.2033 266.375H42.126V259.798H18.2033V266.375Z" fill="#455A64"/>
<path d="M170 15.9332C170 24.6493 162.939 31.7173 154.231 31.7173C150.711 31.7173 147.461 30.5594 144.835 28.6059L137.114 30.5807L140.329 23.3777C139.137 21.1614 138.463 18.6184 138.463 15.9332C138.463 7.21719 145.524 0.14917 154.231 0.14917C162.939 0.14917 170 7.21719 170 15.9332Z" fill="white"/>
<path d="M170 15.9332C169.971 18.8315 169.219 21.751 167.672 24.2231C167.324 24.8624 166.849 25.4165 166.423 26.0132C165.926 26.5459 165.472 27.1213 164.911 27.5901C163.854 28.5917 162.64 29.4229 161.349 30.0977C160.064 30.808 158.652 31.2272 157.233 31.5539C156.509 31.6676 155.792 31.8096 155.054 31.8239C154.323 31.8878 153.592 31.8807 152.861 31.8239C149.93 31.6036 147.07 30.5452 144.686 28.8048L144.899 28.8475L137.192 30.8791L136.567 31.0425L136.83 30.4458L140.016 23.2357L140.031 23.534C137.653 19.2435 137.533 13.8519 139.534 9.4122C140.534 7.18879 142.046 5.2069 143.912 3.65833C145.779 2.10266 148.014 1.01582 150.356 0.447534C152.705 -0.113646 155.175 -0.149164 157.524 0.369395C159.873 0.90216 162.087 1.96769 163.96 3.45943C167.764 6.39319 170.021 11.1526 170.007 15.9332H170ZM170 15.9332C169.978 11.1526 167.693 6.42871 163.889 3.54468C162.002 2.10266 159.788 1.09396 157.467 0.618018C155.146 0.149185 152.726 0.241531 150.448 0.831124C148.17 1.42782 146.027 2.52887 144.253 4.07034C142.486 5.6118 141.06 7.53686 140.109 9.67503C139.136 11.8132 138.76 14.1787 138.817 16.5086C138.916 18.8457 139.541 21.1543 140.634 23.2144L140.712 23.3635L140.641 23.5127L137.398 30.7015L137.036 30.2753L144.778 28.3573L144.899 28.3289L144.991 28.3999C147.262 30.1332 150.03 31.2201 152.89 31.49C153.606 31.561 154.323 31.5752 155.04 31.5255C155.764 31.5255 156.473 31.3976 157.183 31.2982C158.588 31.0069 159.993 30.6163 161.271 29.9414C162.562 29.3021 163.79 28.5065 164.84 27.512C165.401 27.0503 165.855 26.482 166.352 25.9563C166.778 25.3738 167.26 24.8198 167.608 24.1876C169.169 21.7368 169.943 18.8315 169.992 15.9332H170Z" fill="#263238"/>
<path d="M155.33 17.6453V19.3856C155.33 20.1315 154.77 20.6927 154.017 20.6927C153.322 20.6927 152.712 20.1315 152.712 19.3856V16.601C152.712 16.601 152.74 16.5726 152.74 16.5442C152.74 16.5442 152.731 16.5253 152.712 16.4874C152.712 15.7912 153.329 15.1732 154.017 15.1732C155.699 15.1732 157.062 13.8378 157.062 12.1755C157.062 10.5133 155.699 9.17785 154.017 9.17785C152.925 9.17785 151.959 9.76744 151.456 10.6483C151.079 11.2876 150.278 11.5007 149.639 11.1313C149.021 10.7548 148.809 9.98054 149.185 9.34123C150.143 7.6861 151.959 6.55664 154.017 6.55664C157.119 6.55664 159.652 9.07129 159.652 12.1755C159.652 14.8252 157.807 17.0415 155.323 17.6311L155.33 17.6453ZM155.33 23.4986V23.9816C155.33 24.7275 154.77 25.2958 154.017 25.2958C153.322 25.2958 152.712 24.7346 152.712 23.9816V23.4986C152.712 22.774 153.329 22.1915 154.017 22.1915C154.763 22.1915 155.33 22.7811 155.33 23.4986Z" fill="#B3B3B3" fill-opacity="0.85"/>
</g>
<defs>
<clipPath id="clip0_1886_33010">
<rect width="296" height="300.913" fill="white"/>
</clipPath>
</defs>
</svg>
