<svg width="27" height="24" viewBox="0 0 27 24" fill="none" xmlns="http://www.w3.org/2000/svg">
<path d="M24.7969 8.0625C25.4219 8.1875 25.8125 8.51562 25.9688 9.04688C26.1562 9.60938 26.0312 10.1406 25.5938 10.6406L20.625 15.4219L21.7969 22.2656C21.8906 22.7656 21.7812 23.1719 21.4688 23.4844C21.1562 23.8281 20.7812 24 20.3438 24C20.0938 24 19.8594 23.9375 19.6406 23.8125L13.5 20.625L7.35938 23.8125C7.14062 23.9375 6.90625 24 6.65625 24C6.21875 24 5.84375 23.8281 5.53125 23.4844C5.21875 23.1719 5.10938 22.7656 5.20312 22.2656L6.375 15.375L1.40625 10.5938C0.96875 10.125 0.84375 9.60938 1.03125 9.04688C1.1875 8.51562 1.57812 8.1875 2.20312 8.0625L9.09375 7.03125L12.1406 0.84375C12.4844 0.28125 12.9219 0 13.4531 0C14.0781 0 14.5469 0.28125 14.8594 0.84375L17.9062 7.03125L24.7969 8.0625ZM18.2812 15.0469C18.25 14.7656 18.3281 14.5312 18.5156 14.3438L22.9688 10.0312L16.8281 9.14062C16.5469 9.10938 16.3594 8.96875 16.2656 8.71875L13.5 3.1875L10.7344 8.76562C10.6406 8.98438 10.4531 9.10938 10.1719 9.14062L4.07812 10.0312L8.48438 14.3438C8.64062 14.5312 8.71875 14.7656 8.71875 15.0469L7.64062 21.1406L13.1719 18.2344C13.3906 18.1406 13.6094 18.1406 13.8281 18.2344L19.3594 21.1406L18.2812 15.0469Z" fill="#FAA73B"/>
</svg>
